<?xml version="1.0" encoding="UTF-8"?>
<svg id="Layer_2" data-name="Layer 2" xmlns="http://www.w3.org/2000/svg" width="421.1635" height="421.1635" xmlns:xlink="http://www.w3.org/1999/xlink" viewBox="0 0 421.1635 421.1635">
  <defs>
    <style>
      .cls-1 {
        fill: #f2e9e1;
      }

      .cls-2 {
        fill: #fe8000;
      }

      .cls-3 {
        fill: #f0b976;
      }

      .cls-4 {
        fill: #7d4825;
      }

      .cls-5 {
        fill: #dba465;
      }

      .cls-6 {
        fill: #5e361c;
      }

      .cls-7 {
        clip-path: url(#clippath);
        fill: none;
      }
    </style>
    <clipPath id="clippath">
      <circle class="cls-1" cx="210.58177" cy="210.58173" r="210.58179" transform="translate(-87.22579 210.58176) rotate(-45)"/>
    </clipPath>
  </defs>
  <g id="_ÎÓÈ_1" data-name="—ÎÓÈ_1">
    <g>
      <circle class="cls-1" cx="210.58177" cy="210.58173" r="210.58179" transform="translate(-87.22579 210.58176) rotate(-45)"/>
      <g class="cls-7">
        <path class="cls-6" d="m313.6979,206.3878c1.7618-23.7512,25.9363-64.314-7.648-113.8068-33.5843-49.4927-92.0306-37.8788-92.0306-37.8788l-5.704,302.155,90.5049,8.8691s25.8872-52.3265,26.0351-73.7489c.2806-40.6748-14.4354-41.3996-11.1574-85.5896Z"/>
        <path class="cls-5" d="m177.5781,316.3175c40.7366,77.4302,58.2784,10.4679,67.081,0v-28.0751h-67.081v28.0751Z"/>
        <path class="cls-3" d="m120.859,183.6139c-3.2401-1.8498-7.4107.1415-6.9966,3.341l3.9376,30.397c.7644,5.9001,6.7613,10.5713,13.8263,10.7714h.0003l-7.3528-42.5593-3.4148-1.9501Z"/>
        <path class="cls-3" d="m292.6995,160.807c-6.2843-58.2971-33.7435-96.5289-84.322-96.5289s-78.0384,38.2318-84.3225,96.5289c-.5395,5.0024-.3217,20.643-.3359,25.8205-.0374,13.1493,4.8447,35.8609,7.3908,45.8476,1.5385,6.0347,31.5036,69.0533,77.2676,69.0533s75.7285-63.0186,77.267-69.0533c2.5461-9.9867,7.4291-32.6983,7.3915-45.8476-.0149-5.1775.2032-20.8181-.3365-25.8205Z"/>
        <path class="cls-6" d="m234.1465,55.824h-14.9515v52.8475s65.8141,5.5773,73.841,77.956l6.6369-18.9751-8.8226-78.8849-56.7038-32.9435Z"/>
        <path class="cls-3" d="m295.777,182.2538l-2.7098,1.1429-8.0581,43.3665c7.0652-.2001,13.0623-4.8713,13.8269-10.7714l3.9376-30.3971c.414-3.1994-3.7565-5.1907-6.9966-3.3409Z"/>
        <path class="cls-4" d="m124.3209,277.6017c.5524.3988.9069.5942.9069.5942l-.9069-.5942Z"/>
        <path class="cls-6" d="m122.6481,156.4331l-12.3827,111.96,14.0555,9.2086c-3.4478-2.4881-14.8929-13.1896.0272-37.8152,17.3107-28.5713,21.2201-27.0872,29.3076-80.622,8.2271-54.4585,70.6334-50.493,70.6334-50.493v-52.8475l-81.5192,21.1537-20.1218,79.4554Z"/>
        <g>
          <path class="cls-3" d="m67.836,365.3136c12.3403,11.3661,26.047,21.2674,40.8343,29.4549l68.5301-89.8867h-21.0608c-40.2178,0-74.5578,25.0738-88.3036,60.4318Z"/>
          <path class="cls-2" d="m244.6591,304.8818h-67.4587l-68.5301,89.8867c30.2097,16.7266,64.952,26.2632,101.9292,26.2632,37.2255,0,72.1852-9.6656,102.5356-26.6024l-68.2716-89.5475h-.2044Z"/>
          <path class="cls-3" d="m259.4049,304.8818h-14.5414l68.2716,89.5475c14.9705-8.3542,28.8252-18.4686,41.2661-30.0821-14.1361-34.7113-55.2586-59.2388-94.9963-59.4654Z"/>
        </g>
        <path class="cls-6" d="m103.7369,148.7712c-.3403,5.9919.5302,11.9907,1.6707,17.8828,2.6372,13.6259,7.5712,42.8009,4.8188,58.0499-3.6693,20.3273-23.5675,31.5151-12.5073,88.3798,7.2948,37.5048-5.4865,59.0214-3.3469,73.026,0,0,37.8249,25.8061,75.5499,30.9989,18.1848,2.503,10.7425-46.8736,7.9264-108.4917v-16.6395s-57.5753-40.1777-44.2122-130.8994,80.494-83.6258,80.494-83.6258l-.111-22.75s-103.7539-20.8674-110.2824,94.069Z"/>
      </g>
    </g>
  </g>
</svg>