<?xml version="1.0" encoding="UTF-8"?>
<svg id="Layer_2" data-name="Layer 2" xmlns="http://www.w3.org/2000/svg" width="421.16339" height="421.16339" xmlns:xlink="http://www.w3.org/1999/xlink" viewBox="0 0 421.16339 421.16339">
  <defs>
    <style>
      .cls-1 {
        fill: #f2e9e1;
      }

      .cls-2 {
        fill: #f0b976;
      }

      .cls-3 {
        fill: #8c6a43;
      }

      .cls-4 {
        fill: #dba465;
      }

      .cls-5 {
        fill: #162233;
      }

      .cls-6 {
        fill: #223650;
      }

      .cls-7 {
        clip-path: url(#clippath);
        fill: none;
      }
    </style>
    <clipPath id="clippath">
      <circle class="cls-1" cx="210.58169" cy="210.5817" r="210.5817"/>
    </clipPath>
  </defs>
  <g id="_ÎÓÈ_1" data-name="—ÎÓÈ_1">
    <g>
      <circle class="cls-1" cx="210.58169" cy="210.5817" r="210.5817"/>
      <g class="cls-7">
        <path class="cls-5" d="m146.0474,305.43869l30.4468-.4251v-13.0658c-27.8472.98-30.4468,13.4909-30.4468,13.4909Z"/>
        <path class="cls-5" d="m243.66099,291.94779v13.0658l30.4468.4251s-2.5994-12.5109-30.4468-13.4909Z"/>
        <path class="cls-2" d="m119.775,183.7456c-3.2399-1.8498-7.4105.1415-6.9965,3.341l3.9377,30.397c.7643,5.9001,6.7613,10.5714,13.82641,10.7714h.00019l-7.3529-42.5594-3.4149-1.95Z"/>
        <path class="cls-2" d="m294.69309,182.3855l-3.4154,1.9501-7.3523,42.5593c7.06521-.2,13.06221-4.8713,13.8267-10.7714l3.93751-30.397c.41419-3.1995-3.75641-5.1908-6.99651-3.341Z"/>
        <path class="cls-4" d="m176.4942,316.44929c40.7366,77.4301,58.2785,10.46776,67.0811,0v-28.0753h-67.0811v28.0753Z"/>
        <path class="cls-2" d="m291.61549,160.9387c-6.2841-58.2971-33.7433-96.5288-84.3218-96.5288s-78.0384,38.2317-84.3225,96.5288c-.53959,5.0025-.3218,20.6431-.3358,25.8205-.0375,13.1493,4.8446,35.8609,7.3907,45.8477,1.5386,6.0346,31.5036,69.0533,77.2676,69.0533s75.7284-63.0187,77.267-69.0533c2.5461-9.9868,7.4291-32.6984,7.3914-45.8477-.0147-5.1774.2033-20.818-.3366-25.8205Z"/>
        <path class="cls-3" d="m282.05849,93.8906c.0133.014-.0038.0196-.0258-.0506-5.3866-17.1145-5.3685-29.4368-26.2428-34.4699l-94.52529-.0286c-20.87461,5.0332-21.86541,17.06629-28.71011,34.4985-.02689.0687-.0393.0646-.02589.0506-.609.9428-4.79731,16.3003-7.92591,37.2434-3.9347,26.3394-3.6415,53.1397.7026,79.4147l7.90131-29.069c.16859-.676.34139-1.3486.51769-2.0172,5.0781-19.2735,14.4677-37.1424,27.1795-52.4936h.0003c3.5169-4.2474,9.1239-6.15211,14.4984-4.9167,8.1986,1.88459,19.44,3.7181,31.891,3.65,12.4503.0681,23.6905-1.7651,31.88911-3.6496,5.37539-1.2356,10.98389.6695,14.50179,4.9178v.0001c12.7116,15.3506,22.1004,33.2191,27.1783,52.492.1763.6686.34891,1.3412.5177,2.0172l7.9013,29.069c4.34391-26.2751,4.6374-53.0756.7025-79.4151-3.1288-20.9429-7.3168-36.3002-7.9257-37.243Z"/>
        <path class="cls-6" d="m258.32099,305.01359h-14.7457s-27.9062,67.2838-67.0811,0h-21.4385c-40.2176,0-74.5577,25.07376-88.3035,60.4318,37.5512,34.5865,87.6865,55.718,142.7636,55.718,55.587,0,106.1385-21.5265,143.8016-56.6844-14.1362-34.71132-55.2586-59.2388-94.9964-59.4654Z"/>
        <path class="cls-5" d="m176.4942,305.01359l-30.4468.4251c8.0493,32.18369,63.0724,29.32878,63.0724,29.32878-13.9713-.39951-32.6256-29.75388-32.6256-29.75388Z"/>
        <path class="cls-5" d="m211.03529,334.76747s55.0231,2.85491,63.0725-29.32878l-30.4468-.4251s-18.654,29.35437-32.6257,29.75388Z"/>
      </g>
    </g>
  </g>
</svg>