<?xml version="1.0" encoding="UTF-8"?>
<svg id="Layer_2" data-name="Layer 2" xmlns="http://www.w3.org/2000/svg" width="421.1634" height="421.1635" xmlns:xlink="http://www.w3.org/1999/xlink" viewBox="0 0 421.1634 421.1635">
  <defs>
    <style>
      .cls-1 {
        fill: #f2e9e1;
      }

      .cls-2 {
        fill: #a67c52;
      }

      .cls-3 {
        fill: #d14bf3;
      }

      .cls-4 {
        fill: #0d0500;
      }

      .cls-5 {
        clip-path: url(#clippath);
        fill: none;
      }
    </style>
    <clipPath id="clippath">
      <circle class="cls-1" cx="210.5817" cy="210.58178" r="210.58171"/>
    </clipPath>
  </defs>
  <g id="_ÎÓÈ_1" data-name="—ÎÓÈ_1">
    <g>
      <circle class="cls-1" cx="210.5817" cy="210.58178" r="210.58171"/>
      <g class="cls-5">
        <path class="cls-2" d="m178.3898,316.3016c40.7367,77.4301,58.2784,10.4679,67.081,0v-28.0751h-67.081v28.0751Z"/>
        <path class="cls-2" d="m245.471,304.866s-28.7048,28.0771-67.0812,0h-21.4384c-7.7846,0-15.3447.9496-22.582,2.721,9.7959,11.5325,35.1902,35.6129,77.561,37.3089,39.6108,1.5853,66.6371-22.4624,78.2457-35.4168-9.7694-2.9385-19.9081-4.5559-29.9595-4.6131h-14.7456Z"/>
        <path class="cls-3" d="m290.1761,309.4791c-11.6086,12.9544-38.6349,37.0021-78.2457,35.4168-42.3708-1.696-67.7651-25.7764-77.561-37.3089-30.1537,7.3809-54.6363,29.1964-65.7216,57.7108,37.5512,34.5863,87.6864,55.718,142.7635,55.718,55.587,0,106.1387-21.5264,143.8016-56.6845-10.5605-25.9311-36.1831-46.1738-65.0368-54.8522Z"/>
        <path class="cls-4" d="m283.2749,70.6335c-17.4114-7.0316-28.1261-31.8092-62.2789-24.108-34.1531,7.7011-40.18-3.0136-63.9531,9.6358-23.7731,12.6493-23.6636,24.9455-37.8714,39.9195-14.2078,14.9739-6.3284,39.8075-9.0053,59.2654-2.6768,19.4579,4.4795,27.5414,4.4795,27.5414,0,0,161.845,33.8116,176.511,22.2222,16.7521-13.238,12.8605-52.7127,14.8867-72.5322,2.0262-19.8196-5.3573-54.9126-22.7685-61.9441Z"/>
        <path class="cls-4" d="m216.8576,50.8133s-82.4898-6.599-99.9305,62.6923c-17.4407,69.2915,14.9946,118.9536,14.9946,118.9536,0,0-15.7191-162.3196,77.2674-151.0067,92.9865,11.3128,92.3301,95.9137,76.6316,145.2948,0,0,72.4481-163.6783-68.9631-175.934Z"/>
        <path class="cls-2" d="m121.6707,183.598c-3.2401-1.8497-7.4107.1414-6.9964,3.3411l3.9375,30.397c.7644,5.9001,6.7613,10.5712,13.8262,10.7714h.0003l-7.3527-42.5594-3.4149-1.9501Z"/>
        <path class="cls-2" d="m296.5888,182.2378l-2.7098,1.143-8.0583,43.3665c7.0654-.2001,13.0624-4.8713,13.827-10.7714l3.9376-30.3969c.4141-3.1997-3.7564-5.1909-6.9965-3.3412Z"/>
        <path class="cls-4" d="m153.2642,238.1077s-14.4879,22.1733,0,34.5722c0,0-22.2378,23.2526,0,37.3267,0,0-20.1539,13.9938,0,32.697,0,0-14.944,7.689,0,23.5987,0,0-20.8946,11.4744,5.566,40.9981,0,0-2.8234-3.2989,4.4585-15.0969,4.9063-7.9495,16.0926-9.7596,3.0873-25.4473,0,0,10.6853-7.8121,2.2495-24.0526,0,0,16.3094-20.5338,0-32.4236,0,0,19.1212-16.8439,3.3745-35.3389,0,0,20.3124-5.6147,6.2194-27.7427l-24.9552-9.0907Z"/>
        <path class="cls-4" d="m270.2703,272.6799c14.4877-12.3989,0-34.5722,0-34.5722l-24.9554,9.0907c-14.0928,22.128,6.2196,27.7427,6.2196,27.7427-15.747,18.495,3.3744,35.3389,3.3744,35.3389-16.3094,11.8898,0,32.4236,0,32.4236-8.4359,16.2405,2.2495,24.0526,2.2495,24.0526-13.0053,15.6877-1.8191,17.4978,3.0874,25.4473,7.2818,11.798,4.4584,15.0969,4.4584,15.0969,26.4606-29.5237,5.5661-40.9981,5.5661-40.9981,14.944-15.9097,0-23.5987,0-23.5987,20.1538-18.7032,0-32.697,0-32.697,22.2377-14.0741,0-37.3267,0-37.3267Z"/>
        <path class="cls-2" d="m293.5112,160.7911c-6.2842-58.2969-33.7436-96.5288-84.3219-96.5288s-78.0383,38.2319-84.3226,96.5288c-.5394,5.0025-.3216,20.643-.336,25.8205-.0372,13.1494,4.845,35.861,7.391,45.8476,1.5383,6.0348,31.5037,69.0534,77.2676,69.0534s75.7285-63.0186,77.267-69.0534c2.546-9.9866,7.4291-32.6982,7.3914-45.8476-.0148-5.1775.2033-20.818-.3365-25.8205Z"/>
        <path class="cls-4" d="m223.6779,58.0256s-45.2009,6.2939-47.461,38.3112c0,0,21.4705,32.7706,53.4877,35.0306,32.0173,2.2602,23.1836,27.8819,42.5643,44.0709,15.976,13.3452,7.8849,45.7327,7.8849,45.7327h0c10.5431-10.9271,16.435-25.5189,16.435-40.7032v-53.1281l-18.2931-41.9265-54.6178-27.3876Z"/>
        <path class="cls-4" d="m170.728,66.833l-36.3314,18.5802-15.2251,58.761,5.3276,41.0391s-2.6528-22.5695,14.901-29.369c17.5537-6.7996,7.2238-27.5762,30.3335-29.8362,23.1097-2.2601,42.1968-54.2026,42.1968-54.2026-1.6313-32.0173-41.2024-4.9725-41.2024-4.9725Z"/>
      </g>
    </g>
  </g>
</svg>