<?xml version="1.0" encoding="UTF-8"?>
<svg id="Layer_2" data-name="Layer 2" xmlns="http://www.w3.org/2000/svg" width="421.1634" height="421.1636" xmlns:xlink="http://www.w3.org/1999/xlink" viewBox="0 0 421.1634 421.1636">
  <defs>
    <style>
      .cls-1 {
        fill: #f2e9e1;
      }

      .cls-2 {
        fill: #ff5252;
      }

      .cls-3 {
        fill: #e3dbb8;
      }

      .cls-4 {
        fill: #f0b976;
      }

      .cls-5 {
        fill: #dba465;
      }

      .cls-6 {
        clip-path: url(#clippath);
        fill: none;
      }
    </style>
    <clipPath id="clippath">
      <circle class="cls-1" cx="210.58175" cy="210.5818" r="210.5818" transform="translate(-87.22585 210.58176) rotate(-45)"/>
    </clipPath>
  </defs>
  <g id="_ÎÓÈ_1" data-name="—ÎÓÈ_1">
    <g>
      <circle class="cls-1" cx="210.58175" cy="210.5818" r="210.5818" transform="translate(-87.22585 210.58176) rotate(-45)"/>
      <g class="cls-6">
        <g>
          <path class="cls-3" d="m183.0859,57.6414s-97.8784-4.6687-85.9576,120.6033l8.9747,78.8003c2.5068,22.0103,17.3684,40.6539,38.2661,48.0041l66.8202,23.5024,62.3167-22.7657c20.4198-7.4596,34.9299-25.7424,37.5578-47.3227l11.6604-95.7553c.4447-14.103-1.2652-28.1783-4.9002-41.8119-25.1328-94.2663-134.7381-63.2545-134.7381-63.2545Z"/>
          <path class="cls-5" d="m177.7096,316.2449c40.6627,77.2896,58.1727,10.4488,66.9594,0v-28.0243h-66.9594v28.0243Z"/>
          <path class="cls-2" d="m259.388,304.8298h-14.719s-28.6526,28.0263-66.9594,0h-21.3996c-40.1448,0-74.4227,25.0285-88.1435,60.3223,37.4829,34.5238,87.5274,55.617,142.5047,55.617,55.4862,0,105.9463-21.4874,143.5409-56.5816-14.1105-34.6484-55.1583-59.1314-94.8241-59.3577Z"/>
          <path class="cls-4" d="m295.6942,182.4241l-3.4092,1.9465-7.3392,42.4823c7.0526-.1998,13.0387-4.8626,13.8018-10.7519l3.9305-30.342c.4134-3.1936-3.7497-5.1814-6.9839-3.3349Z"/>
          <path class="cls-4" d="m292.6222,161.0163c-6.2728-58.1915-33.6823-96.3539-84.169-96.3539s-77.8969,38.1624-84.1697,96.3539c-.5384,4.9933-.321,20.6055-.3353,25.7736-.0372,13.1255,4.836,35.7959,7.3775,45.7645,1.5357,6.0238,31.4465,68.9281,77.1275,68.9281s75.5912-62.9043,77.127-68.9281c2.5414-9.9686,7.4156-32.639,7.378-45.7645-.0149-5.1681.2029-20.7803-.336-25.7736Z"/>
          <path class="cls-3" d="m199.3491,64.6624l-38.9727,2.7828-30.0757,54.1051-28.2836,44.8624,14.2413,28.174,8.6173-9.1941s5.2888-8.8939,9.9026-31.887c4.1198-20.533,14.0502-36.2597,52.4132-50.4747,33.4664-12.4007,26.4544-35.5857,26.4544-35.5857l-14.2968-2.7828Z"/>
          <path class="cls-3" d="m207.6098,58.2472l-14.2968,2.7828s-3.7033,20.114,25.1365,41.1387c21.9858,16.0279,26.2046,29.793,31.5191,42.8627,0,0,12.8306,43.8019,38.8762,59.2526l13.8618-47.7255v-39.8659l-28.4867-43.9494-66.6101-14.496Z"/>
          <path class="cls-4" d="m121.0933,183.7817c-3.2342-1.8464-7.3972.1412-6.9838,3.3351l3.9304,30.3419c.7631,5.8894,6.7491,10.552,13.8012,10.7518h.0003l-7.3395-42.4822-3.4086-1.9466Z"/>
        </g>
      </g>
    </g>
  </g>
</svg>