<?xml version="1.0" encoding="UTF-8"?>
<svg id="Layer_2" data-name="Layer 2" xmlns="http://www.w3.org/2000/svg" width="421.1634" height="421.16339" xmlns:xlink="http://www.w3.org/1999/xlink" viewBox="0 0 421.1634 421.16339">
  <defs>
    <style>
      .cls-1 {
        fill: #f2e9e1;
      }

      .cls-2 {
        fill: #f0b976;
      }

      .cls-3 {
        fill: #91faff;
      }

      .cls-4 {
        fill: #dba465;
      }

      .cls-5 {
        fill: #15b6be;
      }

      .cls-6 {
        fill: #191c21;
      }

      .cls-7 {
        clip-path: url(#clippath);
        fill: none;
      }
    </style>
    <clipPath id="clippath">
      <circle class="cls-1" cx="210.58165" cy="210.5817" r="210.58165" transform="translate(-87.22581 210.58166) rotate(-45)"/>
    </clipPath>
  </defs>
  <g id="_ÎÓÈ_1" data-name="—ÎÓÈ_1">
    <g>
      <circle class="cls-1" cx="210.58165" cy="210.5817" r="210.58165" transform="translate(-87.22581 210.58166) rotate(-45)"/>
      <g class="cls-7">
        <path class="cls-2" d="m120.3221,183.7456c-3.2401-1.8498-7.4107.1415-6.9966,3.341l3.9376,30.397c.7644,5.9001,6.7613,10.5714,13.8262,10.7714h.0004l-7.3528-42.5594-3.4148-1.95Z"/>
        <path class="cls-2" d="m295.24,182.3855l-3.4154,1.9501-7.3525,42.5593c7.0653-.2,13.0623-4.8713,13.8269-10.7714l3.9376-30.397c.4142-3.1995-3.7564-5.1908-6.9966-3.341Z"/>
        <path class="cls-4" d="m177.0411,316.44929c40.7367,77.4301,58.2785,10.46776,67.081,0v-28.0753h-67.081v28.0753Z"/>
        <path class="cls-2" d="m292.1625,160.9387c-6.2842-58.2971-33.7436-96.5288-84.3218-96.5288s-78.0385,38.2317-84.3227,96.5288c-.5394,5.0025-.3216,20.6431-.3358,25.8205-.0374,13.1493,4.8448,35.8609,7.3907,45.8477,1.5385,6.0346,31.5037,69.0533,77.2678,69.0533s75.7284-63.0187,77.2669-69.0533c2.5461-9.9868,7.4291-32.6984,7.3915-45.8477-.0149-5.1774.2032-20.818-.3366-25.8205Z"/>
        <path class="cls-6" d="m239.1617,62.6233c-33.9399-3.8552-28.0115-16.5696-77.5107-8.1243-23.0014,3.9246-35.4729,13.20779-41.4598,23.2086-3.3646,5.6207-4.4969,12.4336-3.4632,19.0063.0372.2362.0758.4717.1165.7067.3176,1.84719.8487,3.6407,1.4665,5.3999.5788,1.64829,1.224,4.3894.0279,6.2855-3.707,5.2466-18.1505,29.6942,4.0875,65.4003.0071,1.7063.0152,3.2491.0181,4.4925l-.1109-.0634c.41,3.8292,1.9339,21.538,5.1356,40.034,6.2986-15.1433,12.3377-45.6833,8.8623-63.5027-1.4345-7.3553-.6253-14.5337,2.3392-20.7585,5.2104-10.9377,13.9296-14.7746,25.9138-11.4011,9.5441,2.6861,15.3953,4.85569,20.0959,6.59869,9.2965,3.44731,13.9623,5.17761,33.1873,5.61981,20.7652.4678,31.9763-5.3784,40.1562-9.6544,4.6187-2.415,7.9598-4.1588,11.2615-3.743,8.503,1.0723,16.3476,13.728,14.1387,35.0709-1.3706,13.2354-2.5299,45.6021,5.0722,60.3698,4.034-23.5613,5.4183-38.2068,7.392-41.1458,5.2043-9.6896,16.8381-34.8122,9.9085-54.8497-8.7763-25.377-32.6944-55.0944-66.6351-58.9501Z"/>
        <g>
          <path class="cls-5" d="m155.6027,305.01359c-40.2177,0-74.5579,25.07376-88.3036,60.4318,33.0878,30.4755,75.9488,50.4952,123.3492,54.8259l-13.6072-115.2577h-21.4384Z"/>
          <path class="cls-3" d="m177.0411,305.01359l13.6072,115.2577c6.394.5843,12.8679.8921,19.4143.8921,6.9038,0,13.7295-.3335,20.463-.9825l13.5966-115.1673c-.0001.0001-28.7047,28.077-67.0811,0Z"/>
          <path class="cls-5" d="m258.8679,305.01359h-14.7457l-13.5966,115.1673c47.4818-4.5764,90.3534-24.9105,123.3386-55.7019-14.1361-34.71132-55.2584-59.2389-94.9963-59.4654Z"/>
        </g>
      </g>
    </g>
  </g>
</svg>