<?xml version="1.0" encoding="UTF-8"?>
<svg id="Layer_2" data-name="Layer 2" xmlns="http://www.w3.org/2000/svg" width="421.1634" height="421.1635" xmlns:xlink="http://www.w3.org/1999/xlink" viewBox="0 0 421.1634 421.1635">
  <defs>
    <style>
      .cls-1 {
        fill: #f2e9e1;
      }

      .cls-2 {
        fill: #eaff00;
      }

      .cls-3 {
        fill: #f0b976;
      }

      .cls-4 {
        fill: #8c6a43;
      }

      .cls-5 {
        clip-path: url(#clippath);
        fill: none;
      }
    </style>
    <clipPath id="clippath">
      <circle class="cls-1" cx="210.58178" cy="210.58178" r="210.58177" transform="translate(-87.22583 210.58178) rotate(-45)"/>
    </clipPath>
  </defs>
  <g id="_ÎÓÈ_1" data-name="—ÎÓÈ_1">
    <g>
      <circle class="cls-1" cx="210.58178" cy="210.58178" r="210.58177" transform="translate(-87.22583 210.58178) rotate(-45)"/>
      <g class="cls-5">
        <path class="cls-2" d="m177.686,316.4863c40.7352,77.4308,58.2783,10.4688,67.0812.0011l.0004-28.0751-67.081-.0013-.0006,28.0753Z"/>
        <path class="cls-3" d="m120.9694,183.7815c-3.2401-1.8498-7.4107.1415-6.9966,3.3409l3.9372,30.3971c.7642,5.9001,6.761,10.5714,13.8258,10.7717h.0002l-7.3518-42.5595-3.4148-1.9502Z"/>
        <path class="cls-3" d="m292.8102,160.9779c-6.283-58.2972-33.7417-96.5295-84.3199-96.5305-50.5791-.0009-78.0394,38.2303-84.3243,96.5273-.5397,5.0024-.3222,20.643-.3365,25.8204-.0376,13.1494,4.8442,35.861,7.39,45.8477,1.5381,6.0348,31.5023,69.0542,77.2663,69.0548,45.7641.001,75.7296-63.0171,77.2682-69.0518,2.5462-9.9867,7.4297-32.6981,7.3923-45.8475-.0147-5.1775.2037-20.8181-.3361-25.8204Z"/>
        <path class="cls-4" d="m164.0492,67.9339h0c-22.7394,13.2105-37.874,36.4145-40.7974,62.5497l-1.9419,17.3588c-1.4712,13.15-1.849,26.4625,2.5196,38.9527,8.028-72.3784,87.4009-78.0934,87.4009-78.0934l.0011-52.7084-2.8565-.0001c-15.57-.0003-30.8627,4.1194-44.3258,11.9407Z"/>
        <path class="cls-3" d="m295.8873,182.4247l-2.7097,1.1428-8.0588,43.3664c7.0653-.1999,13.0623-4.8711,13.827-10.7711l3.9382-30.3971c.4141-3.1993-3.7564-5.1907-6.9967-3.341Z"/>
        <path class="cls-4" d="m294.3657,130.4868c-2.9226-26.1354-18.0563-49.3398-40.7951-62.5512l-.0002-.0001c-13.4626-7.8217-28.7553-11.942-44.3254-11.9423h-2.8562l-.0009,52.7085s79.3722,5.7178,87.3979,78.0966c4.3688-12.49,3.9915-25.8025,2.5211-38.9527l-1.9412-17.3588Z"/>
        <path class="cls-4" d="m126.5886,38.0776s-27.7676,7.1828-20.2224,26.1976c7.5454,19.0147-13.884,22.8172-.0008,39.7194,13.8836,16.9021,40.528.0007,40.528.0007l32.2263-23.2142s-7.319-10.589,1.9771-21.1526c9.2962-10.5635-27.042-46.9032-54.5082-21.5509Z"/>
        <path class="cls-4" d="m312.2646,64.279c7.5457-19.0145-20.2215-26.1982-20.2215-26.1982-27.465-25.3535-63.805,10.985-54.509,21.5488,9.296,10.5637,1.9762,21.1526,1.9762,21.1526l32.2255,23.2155s26.644,16.9023,40.5278.0007c13.8842-16.9016-7.5452-20.7049.001-39.7194Z"/>
        <path class="cls-4" d="m209.1412,69.0105c-39.429,10.2308-73.0177,19.3016-83.0186,58.7894l-1.9822,23.7266c-2.6011,10.2706.3576,18.8126-.8071,29.3433l-2.1275,19.2314c-3.5048,31.6833,2.7159,63.0464,26.9494,83.7547h0c-8.672-20.0631-10.0381-42.5587-3.7078-63.4792,4.0094-13.2494,8.359-30.8565,11.6427-52.5897,8.2281-54.4584,90.3252-68.1696,90.3252-68.1696l-19.69-35.1696-17.5841,4.5627Z"/>
        <path class="cls-3" d="m259.513,305.0521l-14.7456-.0004s-28.7053,28.0767-67.0812-.0013l-21.4384-.0003c-40.2178-.0006-74.5585,25.0724-88.3047,60.43,14.4855,13.3426,30.8498,24.6716,48.642,33.569l24.1905-45.7022s27.7716-24.1956,70.4559,0c42.6841-24.1956,70.4559,0,70.4559,0l23.9702,45.2862c17.8962-9.0484,34.3339-20.5632,48.8505-34.1139-14.1353-34.7115-55.2573-59.2398-94.9951-59.4671Z"/>
        <path class="cls-2" d="m281.6874,353.3469s-27.7718-24.1956-70.4559,0c-42.6843-24.1956-70.4559,0-70.4559,0l-24.1905,45.7022c28.3302,14.167,60.2898,22.1512,94.1204,22.1518.1743,0,.3479-.0058.5222-.0062.0024,0,.005-.0001.0076-.0001,33.9654-.0833,66.0342-8.2084,94.4223-22.5615l-23.9702-45.2862Z"/>
      </g>
    </g>
  </g>
</svg>