<?xml version="1.0" encoding="UTF-8"?>
<svg width="90px" height="90px" viewBox="0 0 90 90" version="1.1" xmlns="http://www.w3.org/2000/svg" xmlns:xlink="http://www.w3.org/1999/xlink">
    <title>buy-for-me copy</title>
    <g id="buy-for-me-copy" stroke="none" stroke-width="1" fill="none" fill-rule="evenodd">
        <g id="shopping-cart" transform="translate(1.500000, 6.075558)" fill="#FFFFFF">
            <path d="M31.5937364,79.4007834 C33.7748522,79.4007834 35.5429959,77.6666724 35.5429959,75.527538 C35.5429959,73.3884035 33.7748522,71.6542925 31.5937364,71.6542925 C29.4126206,71.6542925 27.6444769,73.3884035 27.6444769,75.527538 C27.6444769,77.6666724 29.4126206,79.4007834 31.5937364,79.4007834 Z M67.1365626,79.4007834 C69.3176784,79.4007834 71.0858221,77.6666724 71.0858221,75.527538 C71.0858221,73.3884035 69.3176784,71.6542925 67.1365626,71.6542925 C64.9554469,71.6542925 63.1873032,73.3884035 63.1873032,75.527538 C63.1873032,77.6666724 64.9554469,79.4007834 67.1365626,79.4007834 Z M86.4878153,16.0738106 C86.0929402,15.686536 85.5005428,15.4928155 84.9081454,15.4928155 L25.6699321,15.4928155 C24.4851372,15.4928155 23.6953872,16.2675312 23.6953872,17.429355 C23.6953872,18.5911789 24.4853069,19.3658946 25.6699321,19.3658946 L82.5385558,19.3658946 L77.7995463,50.9325207 C77.6020239,52.8690602 75.8250014,54.224771 73.8502868,54.224771 L25.2748873,54.224771 L16.3892656,4.84151524 C15.7968682,1.93653953 13.4272786,0 10.4654613,0 L5.92380437,0 C2.5669423,0 0,2.5177011 0,5.80995143 C0,6.97177529 0.789919772,7.74649096 1.97454489,7.74649096 C3.15917001,7.74649096 3.94908978,6.97177529 3.94908978,5.80995143 C3.94908978,4.64812757 4.73900956,3.87341191 5.92363468,3.87341191 L10.4652916,3.87341191 C11.452564,3.87341191 12.2424838,4.45440705 12.4398364,5.42267681 L21.5229805,55.3869277 C19.3509133,56.7426385 17.7712434,59.2601732 17.7712434,61.9714284 C17.7712434,66.2319485 21.3254582,69.7177529 25.6695927,69.7177529 L77.0092871,69.7177529 C78.1940819,69.7177529 78.983832,68.9430373 78.983832,67.7812134 C78.983832,66.6193896 78.1939122,65.8446739 77.0092871,65.8446739 L25.6699321,65.8446739 C23.4978648,65.8446739 21.7206726,64.1016885 21.7206726,61.9714284 C21.7206726,59.8411684 23.4978648,58.0981829 25.6699321,58.0981829 L73.8502868,58.0981829 C77.7995463,58.0981829 81.1564083,55.3869277 81.748636,51.5136823 L86.8826903,17.6230755 C86.8826903,17.2358009 86.685168,16.6548058 86.4878153,16.0738106 Z" id="Combined-Shape" stroke="#FFFFFF" stroke-width="3.12"></path>
            <path d="M73.060367,40.6686615 L65.1620177,40.6686615 L65.1620177,32.9223369 L73.060367,32.9223369 C74.2451618,32.9223369 75.0349119,32.1476213 75.0349119,30.9857974 C75.0349119,29.8239736 74.2451618,29.0490915 73.060367,29.0490915 L65.1620177,29.0490915 L65.1620177,25.175846 C65.1620177,24.0138557 64.372098,23.2393065 63.1874729,23.2393065 C62.0028477,23.2393065 61.212928,24.0140221 61.212928,25.175846 L61.212928,29.0490915 L53.3145787,29.0490915 L53.3145787,25.175846 C53.3145787,24.0138557 52.5246589,23.2393065 51.3400338,23.2393065 C50.1554087,23.2393065 49.3654889,24.0140221 49.3654889,25.175846 L49.3654889,29.0490915 L41.4671397,29.0490915 L41.4671397,25.175846 C41.4671397,24.0138557 40.6772199,23.2393065 39.4925948,23.2393065 C38.3079696,23.2393065 37.5180499,24.0140221 37.5180499,25.175846 L37.5180499,29.0490915 L29.6197006,29.0490915 C28.4349058,29.0490915 27.6451557,29.8238071 27.6451557,30.985631 C27.6451557,32.1474549 28.4350755,32.9221705 29.6197006,32.9221705 L37.5180499,32.9221705 L37.5180499,40.6684951 L29.6197006,40.6684951 C28.4349058,40.6684951 27.6451557,41.4432107 27.6451557,42.6050346 C27.6451557,43.7670249 28.4350755,44.5415741 29.6197006,44.5415741 L37.5180499,44.5415741 L37.5180499,48.4148196 C37.5180499,49.5768099 38.3079696,50.3513591 39.4925948,50.3513591 C40.6772199,50.3513591 41.4671397,49.5766435 41.4671397,48.4148196 L41.4671397,44.5415741 L49.3654889,44.5415741 L49.3654889,48.4148196 C49.3654889,49.5768099 50.1554087,50.3513591 51.3400338,50.3513591 C52.5246589,50.3513591 53.3145787,49.5766435 53.3145787,48.4148196 L53.3145787,44.5415741 L61.212928,44.5415741 L61.212928,48.4148196 C61.212928,49.5768099 62.0028477,50.3513591 63.1874729,50.3513591 C64.372098,50.3513591 65.1620177,49.5769763 65.1620177,48.4151524 L65.1620177,44.541907 L73.060367,44.541907 C74.2451618,44.541907 75.0349119,43.7671913 75.0349119,42.6053674 C75.0349119,41.4433771 74.2451618,40.6686615 73.060367,40.6686615 Z M49.3651495,40.6686615 L41.4668003,40.6686615 L41.4668003,32.9223369 L49.3651495,32.9223369 L49.3651495,40.6686615 Z M61.2127583,40.6686615 L53.314409,40.6686615 L53.314409,32.9223369 L61.2127583,32.9223369 L61.2127583,40.6686615 Z" id="Shape" fill-rule="nonzero"></path>
        </g>
    </g>
</svg>