<?xml version="1.0" encoding="UTF-8"?>
<svg width="90px" height="90px" viewBox="0 0 90 90" version="1.1" xmlns="http://www.w3.org/2000/svg" xmlns:xlink="http://www.w3.org/1999/xlink">
    <title>give-away copy</title>
    <g id="give-away-copy" stroke="none" stroke-width="1" fill="none" fill-rule="evenodd">
        <path d="M38.653732,6.66266702 C40.945953,9.12221073 43.4909232,13.5938724 44.998813,18.0231935 C46.5062062,13.5951638 49.0516164,9.12481911 51.3454071,6.66359157 C55.8906986,1.77797503 63.7899571,1.77993756 68.3333009,6.66350009 C72.9330215,11.6067659 72.9362308,19.6066723 68.3470495,24.5497562 L80.4827586,24.5497562 C84.0977115,24.5497562 87,27.649582 87,31.4120025 L87,44.9469334 C87,47.2205115 85.2382287,49.1021934 83.0172414,49.1021934 L81.9310345,49.1021934 L81.9310345,80.1377538 C81.9310345,83.9001742 79.0287459,87 75.4137931,87 L14.5862069,87 C10.9712541,87 8.06896552,83.9001742 8.06896552,80.1377538 L8.06896552,49.1021934 L6.98275862,49.1021934 C4.7617713,49.1021934 3,47.2205115 3,44.9469334 L3,31.4120025 C3,27.649582 5.90228854,24.5497562 9.51724138,24.5497562 L21.6478902,24.5497562 C17.062997,19.6010637 17.0691328,11.6044508 21.6666101,6.66359585 C26.2100429,1.77993756 34.1093014,1.77797503 38.653732,6.66266702 Z M41.0172414,49.2957557 L16.0344828,49.2957557 L16.0344828,78.1101704 C16.0344828,78.4301142 16.2938488,78.6894799 16.6137931,78.6894799 L41.0172414,78.6894799 L41.0172414,49.2957557 Z M73.9655172,49.2957557 L48.9827586,49.2957557 L48.9827586,78.6894799 L73.3862069,78.6894799 C73.7061512,78.6894799 73.9655172,78.4301142 73.9655172,78.1101704 L73.9655172,49.2957557 Z M78.8896552,32.3166897 L11.4,32.3166897 C10.9200836,32.3166897 10.5310345,32.7057383 10.5310345,33.185654 L10.5310345,41.4013167 L79.7586207,41.4013167 L79.7586207,33.185654 C79.7586207,32.7057383 79.3695716,32.3166897 78.8896552,32.3166897 Z M57.0589396,12.4545613 C54.4726472,15.2342433 51.4297082,22.9123747 51.3684957,24.5491811 C54.1387417,24.4989305 60.3946512,21.1666982 62.6184042,18.7750587 C64.2255779,17.0462063 64.2255779,14.181856 62.620703,12.4554706 C61.13861,10.8685939 58.5426379,10.8670406 57.0589396,12.4545613 Z M30.1631379,11.2043869 C29.1194001,11.2043869 28.1385185,11.6408781 27.3810499,12.4535908 C25.7744221,14.1825046 25.7746041,17.046402 27.3814984,18.774954 C29.6006363,21.1616299 35.8347669,24.4848144 38.6138491,24.5488175 C38.5517499,22.8679527 35.5203144,15.2257146 32.9407037,12.4541775 C32.1835077,11.6414609 31.2025239,11.2043869 30.1631379,11.2043869 Z" id="giveaway" fill="#FFFFFF" fill-rule="nonzero"></path>
    </g>
</svg>