<?xml version="1.0" encoding="UTF-8"?>
<svg xmlns="http://www.w3.org/2000/svg" width="592.66584" height="556.25979" xmlns:xlink="http://www.w3.org/1999/xlink" viewBox="0 0 592.66584 556.25979">
  <defs>
    <style>
      .cls-1, .cls-2, .cls-3, .cls-4 {
        fill: none;
      }

      .cls-2 {
        stroke-miterlimit: 10;
        stroke-width: 14px;
      }

      .cls-2, .cls-3 {
        stroke: #aaa;
      }

      .cls-5 {
        clip-path: url(#clippath);
      }

      .cls-6 {
        fill: #060223;
      }

      .cls-7 {
        fill: #060222;
      }

      .cls-8 {
        fill: #060225;
      }

      .cls-9 {
        fill: #060224;
      }

      .cls-10 {
        fill: #060221;
      }

      .cls-11 {
        fill: #05021a;
      }

      .cls-12 {
        fill: #05021c;
      }

      .cls-13 {
        fill: #69a7b5;
      }

      .cls-14 {
        fill: #fff;
      }

      .cls-15 {
        fill: #979797;
      }

      .cls-16 {
        fill: #7c7c7c;
      }

      .cls-17 {
        fill: #9c9c9c;
      }

      .cls-18 {
        fill: #a0a0a0;
      }

      .cls-19 {
        fill: #b7b7b7;
      }

      .cls-20, .cls-21 {
        fill: #911a1a;
      }

      .cls-22 {
        fill: #b3b3b3;
      }

      .cls-23 {
        fill: #671313;
      }

      .cls-24 {
        fill: #8e8e8e;
      }

      .cls-25 {
        fill: #939393;
      }

      .cls-26 {
        fill: #a9a9a9;
      }

      .cls-27 {
        fill: #b1b1b1;
      }

      .cls-28 {
        fill: #a5a5a5;
      }

      .cls-29 {
        fill: #aeaeae;
      }

      .cls-30 {
        fill: #c6c6c6;
      }

      .cls-31 {
        fill: #dcf2f7;
      }

      .cls-32 {
        fill: #0c0c0d;
      }

      .cls-33 {
        fill: #0b0b0c;
      }

      .cls-34 {
        fill: #0b0b0b;
      }

      .cls-35 {
        fill: #090334;
      }

      .cls-36 {
        fill: #090909;
      }

      .cls-37 {
        fill: #09090a;
      }

      .cls-38 {
        fill: #08032d;
      }

      .cls-39 {
        fill: #080808;
      }

      .cls-40 {
        fill: #080809;
      }

      .cls-41 {
        fill: #070226;
      }

      .cls-42 {
        fill: #070229;
      }

      .cls-43 {
        fill: #07022a;
      }

      .cls-44 {
        fill: #070708;
      }

      .cls-45 {
        fill: #08d88c;
      }

      .cls-46 {
        fill: #10074a;
      }

      .cls-47 {
        fill: #19191c;
      }

      .cls-48 {
        fill: #0a0a0b;
      }

      .cls-49 {
        fill: #0a0a0a;
      }

      .cls-50 {
        fill: #1a1a1d;
      }

      .cls-51 {
        fill: #727272;
      }

      .cls-52 {
        fill: #868686;
      }

      .cls-53 {
        fill: gray;
      }

      .cls-54 {
        fill: #565658;
      }

      .cls-55 {
        fill: #4a4a4a;
      }

      .cls-56 {
        fill: #2a292e;
      }

      .cls-57, .cls-58 {
        fill: #5c5c5c;
      }

      .cls-59 {
        fill: #3b3b3d;
      }

      .cls-60 {
        fill: #39383f;
      }

      .cls-61 {
        fill: #4c4c4c;
      }

      .cls-62 {
        fill: #606062;
      }

      .cls-63 {
        fill: #777;
      }

      .cls-64 {
        fill: #4f4f4f;
      }

      .cls-65 {
        fill: #312f3c;
      }

      .cls-66 {
        fill: #4e4c61;
      }

      .cls-3 {
        stroke-width: 5px;
      }

      .cls-3, .cls-4 {
        stroke-linecap: round;
        stroke-linejoin: round;
      }

      .cls-67 {
        clip-path: url(#clippath-1);
      }

      .cls-68 {
        clip-path: url(#clippath-4);
      }

      .cls-69 {
        clip-path: url(#clippath-3);
      }

      .cls-70 {
        clip-path: url(#clippath-2);
      }

      .cls-71 {
        clip-path: url(#clippath-7);
      }

      .cls-72 {
        clip-path: url(#clippath-8);
      }

      .cls-73 {
        clip-path: url(#clippath-6);
      }

      .cls-74 {
        clip-path: url(#clippath-5);
      }

      .cls-75 {
        clip-path: url(#clippath-9);
      }

      .cls-76 {
        fill: #afadb2;
        mix-blend-mode: multiply;
        opacity: .61;
      }

      .cls-77 {
        clip-path: url(#clippath-14);
      }

      .cls-78 {
        clip-path: url(#clippath-13);
      }

      .cls-79 {
        clip-path: url(#clippath-12);
      }

      .cls-80 {
        clip-path: url(#clippath-10);
      }

      .cls-81 {
        clip-path: url(#clippath-11);
      }

      .cls-4 {
        stroke: #10074a;
        stroke-width: 9px;
      }

      .cls-82 {
        opacity: .2;
      }

      .cls-83 {
        isolation: isolate;
      }

      .cls-21 {
        opacity: .5;
      }

      .cls-58 {
        opacity: .4;
      }
    </style>
    <clipPath id="clippath">
      <rect class="cls-1" y="0" width="592.66584" height="556.25979"/>
    </clipPath>
    <clipPath id="clippath-1">
      <path class="cls-1" d="m305.93933,341.90768c.13376.05347.30151.14858.43073.21226,13.00539,6.40854,26.00992,12.81689,39.01531,19.22543-.13002-.0406-.25638-.09116-.3787-.15146l-39.44606-19.43767c.12233.06029.24869.11085.37872.15145Z"/>
    </clipPath>
    <clipPath id="clippath-2">
      <path class="cls-1" d="m308.08446,327.48663c1.29676-.87237,2.52663-1.01002,3.50079-.53019l39.44605,19.43768c-.97416-.47983-2.20403-.34218-3.50079.53019-11.83382-5.8313-27.61224-13.60637-39.44605-19.43768Z"/>
    </clipPath>
    <clipPath id="clippath-3">
      <path class="cls-1" d="m303.49831,337.77135c-.05353-.74819-.01681-1.52772.09817-2.31161,13.14898,6.4793,26.29706,12.95839,39.44604,19.43768-.11497.78389-.15169,1.56342-.09816,2.31161.00351.04908.00739.09777.01164.1461-13.14899-6.47929-26.29707-12.95838-39.44605-19.43767-.00425-.04833-.00813-.09703-.01164-.1461Z"/>
    </clipPath>
    <clipPath id="clippath-4">
      <path class="cls-35" d="m343.57727,364.70755l-39.44605-19.43767c-1.63768-.807-2.78551-2.79559-3.03088-5.70947-.00468-.05523-.00918-.11105-.01318-.167-.40031-5.59511,2.62796-12.38792,6.76381-15.17023l39.44605,19.43768c-4.13585,2.78231-7.16412,9.57511-6.76381,15.17023.004.05595.0085.11177.01318.167.24537,2.91389,1.3932,4.90247,3.03088,5.70946Z"/>
    </clipPath>
    <clipPath id="clippath-5">
      <path class="cls-1" d="m314.3265,322.43232c2.87264-2.45661,3.53695-4.96696,4.00538-5.50821,12.05074,5.93813,25.16664,12.40136,39.44604,19.43768-.46842.54125-1.13273,3.0516-4.00537,5.50821-11.83382-5.8313-27.61224-13.60637-39.44605-19.43768Z"/>
    </clipPath>
    <clipPath id="clippath-6">
      <path class="cls-1" d="m313.60562,321.98901l39.44605,19.43768c.25088.12362.49157.27161.72091.44323l-39.44606-19.43767c-.22933-.17162-.47003-.31962-.7209-.44324Z"/>
    </clipPath>
    <clipPath id="clippath-7">
      <polygon class="cls-1" points="339.50684 359.69817 300.06078 340.2605 300.06066 340.25863 339.5067 359.69631 339.50684 359.69817"/>
    </clipPath>
    <clipPath id="clippath-8">
      <path class="cls-33" d="m313.01518,323.44313l39.44604,19.43768c-1.43763-.70842-3.2523-.50614-5.1642.78005l-39.44605-19.43768c1.9119-1.28619,3.72657-1.48847,5.16421-.78005Z"/>
    </clipPath>
    <clipPath id="clippath-9">
      <path class="cls-1" d="m322.86468,317.43602c9.98309,4.91926,19.96562,9.83823,29.94872,14.75749.0013.00071.00303.00167.00433.00238-9.98456-4.92-19.96849-9.83986-29.95305-14.75986Z"/>
    </clipPath>
    <clipPath id="clippath-10">
      <path class="cls-1" d="m300.52434,334.6798c.21326.1051.42652.21018.63978.31527,6.46838,3.18735,12.93636,6.37463,19.40477,9.56193,6.46729,3.18675,12.93423,6.37334,19.40163,9.55988-.40567,1.81889-.56932,3.65349-.44493,5.39209l.01205.16847-39.44605-19.43767c-.00415-.05798-.00791-.11053-.01205-.16848-.12438-1.73841.03922-3.57279.4448-5.39149Z"/>
    </clipPath>
    <clipPath id="clippath-11">
      <path class="cls-35" d="m277.54053,409.13416l-39.44605-19.43768c-1.63773-.80702-2.78617-2.79591-3.03175-5.71056-.00468-.05523-.00918-.11105-.01318-.167-.40031-5.59511,2.62796-12.38792,6.75926-15.16716l39.44605,19.43768c-4.13129,2.77925-7.15957,9.57205-6.75926,15.16716.004.05595.0085.11177.01318.167.24558,2.91465,1.39403,4.90354,3.03176,5.71056Z"/>
    </clipPath>
    <clipPath id="clippath-12">
      <path class="cls-1" d="m275.6288,393.63422l-39.44606-19.43768c1.37883-2.90273,3.31153-5.41109,5.53342-6.90582l39.44605,19.43768c-2.22189,1.49474-4.15459,4.00309-5.53342,6.90582Z"/>
    </clipPath>
    <clipPath id="clippath-13">
      <path class="cls-1" d="m273.49252,403.93143l-39.44605-19.43768c-.23914-3.34241.60112-7.06886,2.13628-10.29721l39.44604,19.43769c-1.53516,3.22834-2.37541,6.95478-2.13628,10.2972Z"/>
    </clipPath>
    <clipPath id="clippath-14">
      <path class="cls-1" d="m261.44049,400.55297l-39.44605-19.43768c.2808.11654.57918.17801.88993.18506.68341.0157,1.42561-.23098,2.16752-.73008l39.44605,19.43768c-.7419.4991-1.4841.74578-2.16752.73008-.31075-.00705-.60913-.06852-.88993-.18506Z"/>
    </clipPath>
  </defs>
  <g class="cls-83">
    <g id="Layer_2" data-name="Layer 2">
      <g id="Create_a_delivery_ad" data-name="Create a delivery ad">
        <g id="helps-on-the-way">
          <g class="cls-5">
            <g>
              <g class="cls-82">
                <polyline class="cls-2" points="-9.38481 -3.23065 581.49275 218.69795 646.67183 218.69795"/>
                <path class="cls-2" d="m477.03557-3.81107l-86.56499,281.17827c-1.03499,3.35874-19.83377,32.24932-22.00769,35.01092l-167.4864,114.51318,48.41937,258.56477"/>
                <polyline class="cls-2" points="647.50563 539.32932 220.15793 529.32224 -28.07866 396.56816"/>
                <polyline class="cls-2" points="643.45589 596.66567 232.54047 595.44639 -32.1284 453.90451"/>
                <polyline class="cls-3" points="252.60003 .43813 127.897 182.24829 58.27672 384.74639 -32.1284 323.33114 89.42237 152.88607 189.65893 0"/>
                <line class="cls-3" x1="-28.91246" y1="118.46139" x2="127.897" y2="182.24829"/>
                <polyline class="cls-3" points="630.0923 0 592.88327 53.15575 579.21465 130.61128 517.70585 306.02526 508.59344 467.01125 508.59344 556.51841 508.59344 680.26706"/>
                <polyline class="cls-3" points="-32.1284 323.33114 53.48727 382.64324 206.65924 449.90439 646.67183 459.67069"/>
                <polyline class="cls-3" points="647.50563 308.65598 517.70585 306.02526 127.897 182.24829"/>
              </g>
              <path class="cls-4" d="m55.75483,382.07169c13.67986,7.85054,59.20139,27.20449,91.54818,43.4024,20.79542,10.41347,45.62514,8.58395,64.67786-4.75336l149.95671-104.97286c14.83959-12.59293,25.68298-29.24161,31.2012-47.9056l28.11222-105.67165"/>
              <g>
                <path class="cls-46" d="m55.75483,382.89314l-30.30094-65.50305c-6.97236-20.7187,8.44047-42.16766,30.30089-42.16766h.00009c21.86043,0,37.27325,21.44896,30.30089,42.16766l-30.30094,65.50305Z"/>
                <circle class="cls-14" cx="55.75483" cy="305.39784" r="15.65903"/>
              </g>
              <path class="cls-76" d="m228.75717,387.90511c-1.38812.92957-3.30967-.86021-2.00127.39773.28528.27434-.1018,1.03529-.7722,1.95518-2.07004,2.84042-1.23274,6.84414,1.81051,8.60245,12.38952,7.15831,40.09109,21.87334,52.90156,18.36757l87.67534-59.60719c4.95756-3.37046,5.07671-10.64576.21972-14.15959-11.12803-8.05065-32.43773-13.21711-32.34605-13.7656,1.30935-7.88153-23.88529-10.92754-23.88529-10.92754-12.74621-1.56-46.86442,32.90346,30.05609,1.09921,0,0-9.7722,2.54301-37.26018,19.20135-21.85164,13.24126-39.82363,24.60474-46.27811,28.70896-1.37123.87329-22.31485,14.89863-30.12013,20.12747Z"/>
              <g>
                <path class="cls-33" d="m356.46518,349.71557l-10.50698-4.9772c-3.42747,3.21302-5.78265,9.12117-5.42666,14.09305.00394.05729.00788.11475.01835.16455l-1.01277.6823-.01182-.17204c-.12765-1.75055.04096-3.60067.45592-5.43162.83396-3.70531,2.64106-7.31184,4.97707-9.82993l-27.87939-13.73718c.00901-.28912.01852-.57087.01366-.85164.00165-.28861-.01057-.56888-.02929-.84148l-.01135-.16521c-.20961-2.94873-1.22171-5.08543-2.72683-6.21488l37.97609,18.71053c.52963.1509,1.02174.39116,1.4705.72804.88932.6671,1.60103,1.68524,2.08124,3.00779h0c.76179.94508,1.0952,2.16492.92003,3.36609l-.30777,1.46884Z"/>
                <path class="cls-27" d="m347.53051,346.9243c2.80268-1.88545,5.29291-.33889,5.56443,3.45613.27152,3.79502-1.77885,8.39631-4.58153,10.28176-2.80723,1.88851-5.29752.34186-5.56905-3.45316-.27152-3.79502,1.77891-8.39622,4.58615-10.28473Zm-1.59418,8.27194c.11148,1.55808,1.13449,2.19386,2.28748,1.4182,1.14817-.77241,1.99065-2.66316,1.87917-4.22124-.11148-1.55808-1.1347-2.19371-2.28287-1.4213-1.15299.77565-1.99525,2.66626-1.88378,4.22434m.95873,2.95753c.04369-.16166.00592-.30178-.09171-.31335-.06967-.00835-.13579-.02997-.19759-.0547-.06195-.03-.11983-.06274-.17332-.10401-.04566-.03304-.10239-.02853-.15682.00809-.04463.03002-.08793.08172-.12243.15209l-1.22528,2.46837c-.07637.15617-.06887.32773.01399.38781.13217.10966.27661.19461.43368.25984.15681.06561.32171.11463.48467.13747.03617.00482.07389-.00644.10989-.03066.0659-.04433.12564-.13229.15656-.24243l.76835-2.66851m4.41505-1.00602c.07674-.15105.08238-.33124.00369-.3997l-1.24644-1.11445c-.04278-.03833-.10248-.03377-.16024.00508-.042.02826-.08298.07483-.11559.13627-.05281.1017-.11022.20105-.17664.30082-.05806.09428-.12094.18078-.1842.2619-.09743.12077-.14378.31196-.09441.4221l.79363,1.81078c.03747.08342.11751.09708.19627.0441.02507-.01687.05037-.04081.07396-.07132.16498-.20483.32482-.42267.47816-.66381.15378-.23586.29759-.48153.4318-.73177m-7.99962-1.52562c-.00751.15405.06877.25167.17657.2122l1.77508-.71417c.01212-.00486.02417-.01149.0359-.01938.08829-.0594.16342-.19835.17378-.33691.01053-.11181.021-.22365.0401-.34136.01975-.1125.04415-.22277.06893-.32771.04331-.16698.00082-.3095-.09643-.31575l-1.63198-.12131c-.0313-.00111-.06406.01032-.09557.03151-.0704.04736-.13482.14376-.16483.25948-.07264.27499-.13531.55986-.17992.83815-.04857.28654-.07973.56129-.10163.83526m9.14213-5.582c.10854-.09499.16882-.2846.1406-.42006-.04813-.22142-.10997-.43905-.18891-.63974-.07438-.20376-.16591-.38496-.26525-.54983-.04109-.0705-.1153-.07956-.18785-.03076-.02914.01961-.05833.04885-.08484.0873l-1.49629,2.15969c-.08747.13052-.11582.31512-.05856.40907.04213.07088.07967.14498.10841.22487.03331.07702.05787.16522.07804.251.02489.1211.1104.16172.20539.09782.01147-.00771.02305-.01685.0348-.02771l1.71445-1.56166m-5.43615-2.11364c-.10853.09518-.1738.27694-.14584.4127l.44681,2.18187c.02529.11875.11369.15823.20771.09498.00932-.00627.01879-.01358.02798-.02171.07355-.06607.14775-.12707.22704-.18041.0704-.04736.14589-.08706.21705-.12385.01043-.00493.02072-.01098.03074-.01772.09767-.0657.17573-.21233.18252-.35206l.10764-2.55487c.00713-.15937-.08152-.23758-.18852-.18777-.1835.07944-.36936.18789-.55843.31508-.18933.12737-.37748.27054-.55471.43376"/>
                <path class="cls-51" d="m351.95119,348.39983c.07257-.04882.14677-.03977.18785.03077.09936.16482.19089.34599.26526.54977.07891.20073.14077.41832.18889.63977.02821.13547-.03204.32505-.14058.42007l-1.71446,1.56163c-.01173.01088-.02334.02004-.03479.02775-.09501.06391-.18048.02324-.20541-.09782-.02015-.08582-.04473-.17404-.07801-.25102-.02873-.07989-.06631-.15398-.10841-.22488-.05726-.09392-.02893-.2785.05855-.40904l1.49628-2.15969c.02652-.03849.0557-.0677.08483-.0873Z"/>
                <g class="cls-83">
                  <g class="cls-67">
                    <g class="cls-83">
                      <path class="cls-55" d="m345.00697,361.19406l-39.44605-19.43768c.01015.005.02033.00994.03053.0148l39.44605,19.43768c-.01021-.00487-.02038-.0098-.03053-.0148"/>
                      <path class="cls-61" d="m345.03751,361.20886l-39.44605-19.43768c.09248.04411.18722.0827.28406.11568l39.44605,19.43768c-.09685-.03298-.19159-.07157-.28406-.11568"/>
                      <path class="cls-64" d="m345.32157,361.32454l-39.44605-19.43768c.09443.03215.19086.05897.28915.08037l39.44605,19.43768c-.09829-.02139-.19472-.04821-.28915-.08037"/>
                    </g>
                  </g>
                </g>
                <path class="cls-51" d="m346.2756,357.68983c.05443-.03661.11115-.0411.1568-.00806.05349.04124.11138.07398.17332.10399.06182.02471.12792.04639.19757.05476.09765.01153.13545.15162.09172.31333l-.76834,2.66848c-.0309.11013-.09066.19808-.15654.2424-.03604.02425-.07377.03556-.10989.03068-.16301-.02279-.32789-.07184-.48471-.13741-.15704-.06526-.30148-.15022-.43367-.25989-.08286-.06009-.09038-.23163-.01398-.38778l1.22525-2.46838c.0345-.07035.07783-.1221.12247-.15213Z"/>
                <g class="cls-83">
                  <g class="cls-70">
                    <g class="cls-83">
                      <path class="cls-19" d="m347.53051,346.9243l-39.44605-19.43768c.21129-.14214.42081-.26478.62773-.36842l39.44605,19.43768c-.20692.10364-.41644.22627-.62773.36842"/>
                      <path class="cls-22" d="m348.15824,346.55589l-39.44605-19.43768c.18616-.09324.37023-.1711.5516-.23396l39.44605,19.43768c-.18137.06285-.36543.14072-.5516.23396"/>
                      <path class="cls-29" d="m348.70983,346.32193l-39.44605-19.43768c.14163-.04908.28162-.08901.41968-.11997l39.44605,19.43768c-.13806.03095-.27805.07088-.41968.11997"/>
                      <path class="cls-26" d="m349.12952,346.20197l-39.44605-19.43768c.12193-.02734.24236-.04767.36109-.06113l39.44605,19.43768c-.11873.01346-.23916.03379-.36109.06113"/>
                      <path class="cls-28" d="m349.49061,346.14084l-39.44605-19.43768c.11142-.01263.22134-.0192.3296-.01981l39.44605,19.43768c-.10827.00061-.21819.00718-.3296.01981"/>
                      <path class="cls-18" d="m349.82021,346.12103l-39.44605-19.43768c.10504-.00059.20853.00442.31031.01496l39.44605,19.43768c-.10178-.01053-.20527-.01555-.31031-.01496"/>
                      <path class="cls-17" d="m350.13052,346.13599l-39.44605-19.43768c.10091.01044.20014.02631.29755.04751l39.44605,19.43768c-.09741-.0212-.19664-.03707-.29755-.04751"/>
                      <path class="cls-15" d="m350.42807,346.1835l-39.44605-19.43768c.09825.02138.19465.04819.28905.08034l39.44605,19.43768c-.0944-.03214-.1908-.05895-.28905-.08034"/>
                      <path class="cls-25" d="m350.71712,346.26384l-39.44605-19.43768c.09683.03297.19156.07156.28402.11566l39.44605,19.43768c-.09246-.0441-.18719-.08268-.28402-.11566"/>
                      <path class="cls-24" d="m351.00114,346.37949l-39.44605-19.43768c.01021.00487.0204.00981.03056.01482l39.44605,19.43768c-.01016-.00501-.02034-.00994-.03056-.01482"/>
                    </g>
                  </g>
                </g>
                <path class="cls-51" d="m347.57114,347.49279c.18906-.12718.37495-.23563.55842-.31505.10702-.04985.19568.02834.18857.18772l-.10768,2.55493c-.00677.13969-.08485.28635-.18248.35203-.01003.00674-.02035.01279-.03076.0177-.07117.03681-.14665.0765-.21707.12388-.07925.05331-.15345.1143-.22703.18042-.00918.00812-.01866.0154-.02797.02166-.09405.06327-.18244.02381-.2077-.09493l-.44684-2.18189c-.02798-.13577.03733-.31754.14586-.4127.17722-.16322.36538-.30641.55468-.43376Z"/>
                <path class="cls-51" d="m343.75686,353.68926c.03151-.0212.06422-.03258.09557-.03152l1.63196.12137c.09727.00625.13974.14873.0964.31573-.02477.10496-.04915.2152-.06888.32769-.0191.11776-.02961.22959-.04012.34142-.01036.13851-.08548.2775-.1738.33692-.0117.00787-.02373.01447-.03589.01936l-1.77509.71421c-.10777.03942-.18405-.05816-.17656-.21226.02193-.27396.05306-.54872.10162-.8352.04464-.27831.10732-.56322.17997-.83822.03-.11567.09441-.21212.16483-.25949Z"/>
                <g class="cls-83">
                  <g class="cls-69">
                    <g class="cls-83">
                      <path class="cls-63" d="m345.00697,361.19406l-39.44605-19.43768c-1.13107-.55735-1.91679-1.94697-2.06261-3.98503-.03068-.42883-.03171-.86795-.00536-1.31229l39.44605,19.43768c-.02636.44434-.02532.88346.00536,1.31229.14582,2.03806.93154,3.42767,2.06261,3.98503"/>
                      <path class="cls-16" d="m342.939,355.89674l-39.44605-19.43768c.01865-.31438.05101-.63137.09628-.94918l39.44605,19.43768c-.04527.31781-.07763.6348-.09628.94918"/>
                      <path class="cls-53" d="m343.03528,354.94756l-39.44605-19.43768c.03585-.2517.07981-.50392.13146-.75575l39.44605,19.43768c-.05165.25183-.09561.50405-.13146.75575"/>
                    </g>
                  </g>
                </g>
                <g>
                  <path class="cls-35" d="m343.57727,364.70755l-39.44605-19.43767c-1.63768-.807-2.78551-2.79559-3.03088-5.70947-.00468-.05523-.00918-.11105-.01318-.167-.40031-5.59511,2.62796-12.38792,6.76381-15.17023l39.44605,19.43768c-4.13585,2.78231-7.16412,9.57511-6.76381,15.17023.004.05595.0085.11177.01318.167.24537,2.91389,1.3932,4.90247,3.03088,5.70946Z"/>
                  <g class="cls-68">
                    <g class="cls-83">
                      <path class="cls-35" d="m343.57727,364.70755l-39.44605-19.43768c-1.63768-.80699-2.78551-2.79557-3.03088-5.70946-.00468-.05523-.00918-.11105-.01318-.167-.04518-.63147-.04669-1.27819-.00786-1.93268l39.44605,19.43768c-.03883.65449-.03732,1.30122.00786,1.93268.004.05595.0085.11177.01318.167.24537,2.91389,1.3932,4.90247,3.03088,5.70946"/>
                      <path class="cls-35" d="m340.52535,356.8984l-39.44605-19.43768c.02748-.46325.07517-.93039.14188-1.39877l39.44605,19.43768c-.06671.46838-.1144.93552-.14188,1.39877"/>
                      <path class="cls-35" d="m340.66723,355.49963l-39.44605-19.43768c.05289-.37135.11775-.74348.19397-1.11507l39.44605,19.43768c-.07622.37158-.14107.74372-.19397,1.11507"/>
                      <path class="cls-35" d="m340.8612,354.38456l-39.44605-19.43768c.06645-.32395.14154-.64749.22489-.96974l39.44605,19.43768c-.08334.32225-.15843.64579-.22489.96974"/>
                      <path class="cls-35" d="m341.08609,353.41482l-39.44605-19.43768c.07657-.29605.16009-.591.25028-.88419l39.44605,19.43768c-.09019.29319-.17372.58814-.25028.88419"/>
                      <path class="cls-35" d="m341.33637,352.53064l-39.44605-19.43768c.08503-.2764.17597-.55123.27258-.82392l39.44605,19.43768c-.09661.27269-.18756.54752-.27258.82392"/>
                      <path class="cls-35" d="m341.60895,351.70671l-39.44605-19.43768c.09288-.26216.191-.52233.29413-.78002l39.44605,19.43768c-.10313.25769-.20125.51786-.29413.78002"/>
                      <path class="cls-35" d="m341.90308,350.92669l-39.44605-19.43768c.10075-.25174.20628-.5011.31638-.74762l39.44605,19.43768c-.1101.24652-.21563.49589-.31638.74762"/>
                      <path class="cls-35" d="m342.21946,350.17907l-39.44605-19.43768c.10909-.24426.22267-.48572.34053-.72393l39.44605,19.43768c-.11786.23821-.23144.47968-.34053.72393"/>
                      <path class="cls-35" d="m342.55999,349.45513l-39.44605-19.43768c.11936-.24123.2431-.47913.37103-.71321l39.44605,19.43768c-.12793.23409-.25168.47198-.37103.71321"/>
                      <path class="cls-35" d="m342.93102,348.74192l-39.44605-19.43768c.13213-.24177.26872-.47948.40953-.71259l39.44605,19.43768c-.14082.23311-.2774.47082-.40953.71259"/>
                      <path class="cls-35" d="m343.34056,348.02933l-39.44605-19.43768c.14976-.24792.3043-.49065.46334-.72756l39.44605,19.43768c-.15904.23691-.31358.47963-.46334.72756"/>
                      <path class="cls-35" d="m343.80389,347.30178l-39.44605-19.43768c.1773-.26411.36019-.52098.54829-.76974l39.44605,19.43768c-.18809.24876-.37098.50563-.54829.76974"/>
                      <path class="cls-35" d="m344.35218,346.53204l-39.44605-19.43768c.23779-.31448.48389-.61599.73751-.90276l39.44605,19.43768c-.25362.28677-.49972.58828-.73751.90276"/>
                      <path class="cls-35" d="m345.08969,345.62928l-39.44605-19.43768c.68595-.77561,1.42692-1.44341,2.20733-1.96841l39.44605,19.43768c-.78041.52501-1.52139,1.19281-2.20733,1.96841"/>
                    </g>
                  </g>
                </g>
                <path class="cls-57" d="m347.29702,343.66086c4.13129-2.77925,7.8086-.49749,8.20891,5.09762.00379.053.0073.106.01038.15928.3325,5.56408-2.67703,12.25466-6.76943,15.00774-4.09459,2.75456-7.7396.54593-8.20049-4.92741-.00468-.05523-.00918-.11105-.01318-.167-.40031-5.59511,2.62796-12.38792,6.76381-15.17023Zm1.21639,17.00133c2.80268-1.88545,4.85305-6.48674,4.58153-10.28176-.27152-3.79502-2.76175-5.34158-5.56443-3.45613-2.80723,1.88851-4.85767,6.48971-4.58615,10.28473.27152,3.79502,2.76181,5.34167,5.56905,3.45316"/>
                <path class="cls-51" d="m349.90709,355.63877c.05777-.03886.11749-.04342.16026-.00515l1.24641,1.11451c.0787.06842.07308.24865-.00368.39966-.13421.25027-.27802.49592-.43177.7318-.15338.24117-.31319.45897-.47817.66379-.02359.03053-.0489.05444-.07396.07131-.07877.05299-.15881.03934-.19631-.04408l-.79358-1.81079c-.04941-.11013-.00304-.30131.0944-.42208.06325-.08116.12612-.1676.18417-.26188.06642-.09976.12386-.19916.17663-.30081.03263-.06146.07359-.10802.1156-.13628Z"/>
                <g class="cls-83">
                  <g class="cls-83">
                    <path class="cls-42" d="m356.31039,336.50043l-39.44605-19.43768c1.44609-.11295,1.45687-.12631,1.46754-.13865.0991-.11626.2119-.24599-1.09867-.28867l39.44605,19.43768c1.31057.04269,1.19777.17241,1.09867.28867-.01068.01234-.02145.0257-.03236.04005"/>
                  </g>
                </g>
                <g class="cls-83">
                  <g class="cls-74">
                    <g class="cls-83">
                      <path class="cls-43" d="m353.77255,341.86999l-39.44605-19.43768c.53044-.45362.98559-.90907,1.37811-1.35362l39.44605,19.43768c-.39252.44455-.84766.9-1.37811,1.35362"/>
                      <path class="cls-42" d="m355.15066,340.51637l-39.44605-19.43768c.2328-.26366.44357-.52348.63495-.77681l39.44605,19.43768c-.19138.25333-.40215.51315-.63495.77681"/>
                      <path class="cls-57" d="m355.78561,339.73957l-39.44605-19.43768c.15516-.20538.29758-.4065.42866-.60193l39.44605,19.43768c-.13108.19543-.2735.39654-.42866.60193"/>
                      <path class="cls-41" d="m356.21427,339.13764l-39.44605-19.43768c.12647-.18856.2424-.37182.34904-.54853l39.44605,19.43768c-.10664.1767-.22256.35997-.34904.54853"/>
                      <path class="cls-8" d="m356.56331,338.58911l-39.44605-19.43768c.11714-.19411.22308-.38029.31949-.55688l39.44605,19.43768c-.09641.17658-.20235.36277-.31949.55688"/>
                      <path class="cls-9" d="m356.88279,338.03223l-39.44605-19.43768c.18955-.34719.34228-.65725.47093-.91738l39.44605,19.43768c-.12864.26013-.28137.57019-.47093.91738"/>
                      <path class="cls-6" d="m357.35372,337.11485l-39.44605-19.43768c.00222-.00449.00444-.00897.00664-.01343l39.44605,19.43768c-.00221.00446-.00442.00894-.00664.01343"/>
                      <path class="cls-9" d="m357.36036,337.10142l-39.44605-19.43768c.08231-.1664.15472-.312-1.21454-.33479l39.44605,19.43768c1.36926.02279,1.29685.16839,1.21454.33479"/>
                      <path class="cls-8" d="m356.14582,336.76663l-39.44605-19.43768c1.46021-.14468,1.48431-.18727.07247-.1276l39.44605,19.43768c1.41184-.05968,1.38775-.01708,1.36272.029"/>
                      <path class="cls-41" d="m356.21829,336.63904l-39.44605-19.43768c1.45263-.12768,1.46966-.15471.05116-.08101l39.44605,19.43768c1.4185-.0737,1.40147-.04667,1.38402-.01758"/>
                      <path class="cls-57" d="m356.26945,336.55802l-39.44605-19.43768c1.44905-.11928,1.46268-.13849.04093-.0576l39.44605,19.43768c1.42175-.0809,1.40812-.06168,1.39425-.041"/>
                      <path class="cls-42" d="m356.31039,336.50043l-39.44605-19.43768c1.44609-.11295,1.45687-.12631,1.46754-.13865.0991-.11626.2119-.24599-1.09867-.28867l39.44605,19.43768c1.31057.04269,1.19777.17241,1.09867.28867-.01068.01234-.02145.0257-.03236.04005"/>
                    </g>
                  </g>
                </g>
                <g class="cls-83">
                  <g class="cls-73">
                    <g class="cls-83">
                      <path class="cls-47" d="m353.77258,341.86991l-39.44605-19.43768c-.22934-.17161-.47003-.31961-.72091-.44323l39.44605,19.43768c.25087.12362.49157.27161.72091.44323"/>
                    </g>
                  </g>
                </g>
                <path class="cls-51" d="m347.82006,350.97199c1.14819-.77242,2.17143-.13679,2.28291,1.42127s-.73102,3.44883-1.8792,4.22124c-1.15296.77563-2.17597.13984-2.28744-1.41821-.11147-1.55805.73078-3.44867,1.88374-4.2243Z"/>
                <g class="cls-83">
                  <g class="cls-71">
                    <g class="cls-83">
                      <polyline class="cls-44" points="339.50684 359.69817 300.06079 340.26049 300.06066 340.25863 339.50671 359.69631 339.50684 359.69817"/>
                    </g>
                  </g>
                </g>
                <polygon class="cls-32" points="339.50671 359.69631 300.06066 340.25863 300.09136 340.23993 339.53741 359.67761 339.50671 359.69631"/>
                <polygon class="cls-44" points="339.50684 359.69817 339.50671 359.69631 339.53741 359.67761 339.50684 359.69817"/>
                <g>
                  <path class="cls-33" d="m313.01518,323.44313l39.44604,19.43768c-1.43763-.70842-3.2523-.50614-5.1642.78005l-39.44605-19.43768c1.9119-1.28619,3.72657-1.48847,5.16421-.78005Z"/>
                  <g class="cls-72">
                    <g class="cls-83">
                      <path class="cls-33" d="m347.29702,343.66086l-39.44605-19.43768c.31111-.20929.61965-.38989.9244-.54253l39.44605,19.43768c-.30476.15264-.61329.33323-.9244.54253"/>
                      <path class="cls-33" d="m348.22142,343.11834l-39.44605-19.43768c.2743-.13738.54553-.25212.81282-.34475l39.44605,19.43768c-.26729.09264-.53853.20737-.81282.34475"/>
                      <path class="cls-33" d="m349.03425,342.77358l-39.44605-19.43768c.20884-.07238.41528-.13127.6189-.17692l39.44605,19.43768c-.20361.04565-.41005.10454-.6189.17692"/>
                      <path class="cls-33" d="m349.65314,342.59666l-39.44605-19.43768c.17988-.04033.35756-.07034.53275-.09019l39.44605,19.43768c-.17518.01985-.35286.04986-.53275.09019"/>
                      <path class="cls-33" d="m350.18589,342.50647l-39.44605-19.43768c.16443-.01864.32666-.02833.48646-.02923l39.44605,19.43768c-.1598.0009-.32203.0106-.48646.02923"/>
                      <path class="cls-33" d="m350.67235,342.47724l-39.44605-19.43768c.15506-.00087.30783.00653.45809.02208l39.44605,19.43768c-.15026-.01555-.30303-.02296-.45809-.02208"/>
                      <path class="cls-33" d="m351.13044,342.49932l-39.44605-19.43768c.14899.01542.2955.03885.43933.07015l39.44605,19.43768c-.14383-.0313-.29035-.05473-.43933-.07015"/>
                      <path class="cls-33" d="m351.56977,342.56948l-39.44605-19.43768c.14509.03158.28745.07117.42685.11864l39.44605,19.43768c-.13941-.04747-.28177-.08706-.42685-.11864"/>
                      <path class="cls-33" d="m351.99662,342.68812l-39.44605-19.43768c.14301.0487.28291.10568.41947.17081l39.44605,19.43768c-.13656-.06513-.27647-.12212-.41947-.17081"/>
                      <path class="cls-33" d="m352.4161,342.85893l-39.44605-19.43768c.01508.00719.03013.01449.04513.02188l39.44605,19.43768c-.015-.00739-.03005-.01469-.04513-.02188"/>
                    </g>
                  </g>
                </g>
                <g class="cls-83">
                  <g class="cls-75">
                    <g class="cls-83">
                      <path class="cls-47" d="m352.81847,332.42081l-39.44605-19.43768c.00463-.07661.0045-.15191-.00074-.22518-.026-.36343-.17114-.60998-.3856-.71566l39.44605,19.43768c.21446.10568.3596.35223.3856.71566.00524.07327.00537.14857.00074.22518"/>
                    </g>
                  </g>
                </g>
                <g class="cls-83">
                  <g class="cls-80">
                    <g class="cls-83">
                      <path class="cls-44" d="m339.53764,359.67745l-39.44605-19.43768-.01205-.16847c-.0521-.72817-.05367-1.47318-.0081-2.22682l39.44605,19.43768c-.04557.75364-.044,1.49865.0081,2.22682l.01205.16847"/>
                      <path class="cls-39" d="m339.51749,357.28215l-39.44605-19.43768c.03136-.51857.08504-1.04123.15994-1.56531l39.44605,19.43768c-.0749.52408-.12858,1.04674-.15994,1.56531"/>
                      <path class="cls-39" d="m339.67743,355.71684l-39.44605-19.43768c.05915-.41387.13154-.82862.21662-1.24294l39.44605,19.43768c-.08508.41432-.15746.82907-.21662,1.24294"/>
                      <path class="cls-40" d="m339.89405,354.47391l-39.44605-19.43768c.0275-.13394.05633-.26784.08647-.40164.05285-.23514.10966-.46996.1703-.70418l39.44605,19.43768c-.06065.23422-.11746.46903-.1703.70418-.03014.13381-.05897.2677-.08647.40164"/>
                    </g>
                  </g>
                </g>
                <path class="cls-20" d="m351.61865,331.61756c.61157-.41142,1.14668-.15348,1.19903.57814.05197.72634-.39841,1.65278-1.00998,2.06421l-1.39907.94119c-.60727.40853-1.14706.1482-1.19903-.57814-.05235-.73162.4027-1.65567,1.00998-2.06421l1.39907-.94119Z"/>
                <polygon class="cls-38" points="320.34046 372.58091 280.89441 353.14323 281.15389 352.96868 320.59994 372.40636 320.34046 372.58091"/>
                <polygon class="cls-12" points="320.59994 372.40636 281.15389 352.96868 280.79237 347.91572 320.23842 367.3534 320.59994 372.40636"/>
                <polygon class="cls-65" points="320.34046 372.58091 280.89441 353.14323 280.53289 348.09028 319.97894 367.52795 320.34046 372.58091"/>
                <polygon class="cls-38" points="293.60722 390.57071 254.16117 371.13303 254.41598 370.95608 293.86202 390.39376 293.60722 390.57071"/>
                <polygon class="cls-12" points="293.86202 390.39376 254.41598 370.95608 253.99358 365.94408 293.43963 385.38175 293.86202 390.39376"/>
                <polygon class="cls-57" points="293.60722 390.57071 254.16117 371.13303 253.73745 366.11638 293.1835 385.55406 293.60722 390.57071"/>
                <path class="cls-35" d="m339.98052,354.07229c-.413,1.83351-.58035,3.68389-.45494,5.4367l.01205.16848-49.05868,32.99772-.01168-.1632c-.12541-1.75281-.53-3.21843-1.15539-4.35338l3.8716-2.60455.42373,5.01665.2548-.17695-.42239-5.01201,26.53931-17.8538.36152,5.05296.25948-.17456-.36152-5.05296,19.7421-13.28111Z"/>
                <path class="cls-30" d="m361.68231,329.13205c.09672-.00481-.18329-.72955-.37597-1.06097-1.18632-2.04047-1.64635-3.91108-5.18058-5.62318-11.53031-5.58567-39.48796-19.13934-46.52033-19.50811l40.40234,16.79675c.1574.02696,10.14783,8.37515,10.38765,8.71137.00669.00939,1.27539.68471,1.2869.68414Z"/>
                <polygon class="cls-54" points="320.23842 367.3534 320.59994 372.40636 320.34046 372.58091 319.97894 367.52795 320.23842 367.3534"/>
                <polygon class="cls-66" points="319.97894 367.52795 280.53289 348.09028 280.79237 347.91572 320.23842 367.3534 319.97894 367.52795"/>
                <polygon class="cls-56" points="320.10963 365.55314 280.66358 346.11546 298.6063 334.04485 338.05235 353.48253 320.10963 365.55314"/>
                <polygon class="cls-50" points="320.23843 367.35336 280.79238 347.91568 280.66358 346.11546 320.10963 365.55314 320.23843 367.35336"/>
                <polygon class="cls-59" points="319.97897 367.52791 280.53292 348.09023 280.40412 346.29001 319.85017 365.72769 319.97897 367.52791"/>
                <polygon class="cls-54" points="319.97897 367.52791 319.85017 365.72769 320.10963 365.55314 320.23843 367.35336 319.97897 367.52791"/>
                <polygon class="cls-62" points="320.08478 365.20576 280.63873 345.76808 298.51533 333.74195 337.96138 353.17963 320.08478 365.20576"/>
                <polygon class="cls-62" points="319.82531 365.38031 280.37926 345.94263 280.63873 345.76808 320.08478 365.20576 319.82531 365.38031"/>
                <path class="cls-13" d="m332.13117,315.13476c.4619-.31073.91094-.35361,1.2678-.13573l3.43651,2.13383-1.83529,12.28014.14832.62875,1.39763-.94023,1.6333-11.13423,7.75747,4.81678-10.78841,7.25769-3.44844-14.61696.43111-.29002Z"/>
                <path class="cls-57" d="m333.89135,313.88981l13.99057,8.68364-24.62606,16.5667c-1.39478.93831-2.64434.16802-2.77991-1.72686l-.81494-11.39038c-.1352-1.88963.89406-4.19845,2.28884-5.13676l10.10643-6.7989c.66883-.44994,1.31875-.51749,1.83508-.19743Zm-2.19126,1.53492l3.44845,14.61698,10.78839-7.25768-7.7575-4.81679-1.34394-.83443-3.43649-2.13387c-.35689-.21785-.80592-.17495-1.26779.13576l-.43112.29003m-8.51918,22.66797l11.17558-7.51815-3.17863-13.49304-.26553-1.12682-2.97787,2.0033-5.90967,3.97561c-.96794.65116-1.68356,2.25242-1.58941,3.56836l.81494,11.39038c.09415,1.31587.96265,1.85151,1.93059,1.20035"/>
                <polygon class="cls-31" points="336.8355 317.1328 338.17944 317.96723 336.54617 329.10148 335.14855 330.0417 335.00024 329.41294 336.8355 317.1328"/>
                <path class="cls-57" d="m323.1965,346.17555c-.69391.46681-1.3188.20924-1.5364-.55529l2.85159-1.91835c-.09319.97361-.62483,2.00921-1.3152,2.47364Z"/>
                <polygon class="cls-54" points="319.86658 365.68276 318.80099 351.06342 319.06045 350.88887 320.10742 365.52229 319.86658 365.68276"/>
                <path class="cls-57" d="m322.91217,342.20146c.70184-.47215,1.33547-.19755,1.54317.60045l-2.86692,1.92866c.07973-.99136.61816-2.05444,1.32375-2.52911Z"/>
                <path class="cls-57" d="m325.51875,342.08657c.20672-.13907.38837-.0516.40606.1957.0177.24744-.13532.56005-.34204.69912l-1.07108.72055-2.85161,1.91836-1.06679.71766c-.20672.13907-.38837.0516-.40607-.19584-.01769-.2473.13533-.55991.34205-.69898l1.05915-.71252,2.86688-1.92864,1.06344-.71541Z"/>
                <polygon class="cls-38" points="293.43963 385.38175 253.99358 365.94408 280.53289 348.09028 319.97894 367.52795 293.43963 385.38175"/>
                <polygon class="cls-62" points="293.25999 383.25161 253.81394 363.81393 280.37926 345.94263 319.82531 365.38031 293.25999 383.25161"/>
                <path class="cls-57" d="m314.02727,352.34398c-.69032.4644-1.31762.20845-1.53618-.55543l2.85545-1.92095c-.09421.97429-.62917,2.01213-1.31927,2.47638Z"/>
                <path class="cls-57" d="m313.74293,348.36988c.70178-.47211,1.33879-.19979,1.54719.59774l-2.87067,1.93118c.08038-.99179.6217-2.05682,1.32348-2.52893Z"/>
                <polygon class="cls-31" points="330.91233 315.95468 331.17782 317.08173 328.33582 334.62483 324.97076 336.88861 327.93446 317.95799 330.91233 315.95468"/>
                <path class="cls-57" d="m316.3495,348.255c.20672-.13907.38813-.05144.40582.19586.0177.24744-.13508.55989-.3418.69896l-1.06702.71782-2.85542,1.92093-1.06702.71782c-.20672.13907-.38837.0516-.40607-.19584-.01769-.2473.13533-.55991.34205-.69898l1.05939-.71268,2.8707-1.93121,1.05939-.71268Z"/>
                <polygon class="cls-12" points="290.47896 392.67519 251.03291 373.23751 251.02123 373.07431 290.46728 392.51199 290.47896 392.67519"/>
                <polygon class="cls-59" points="293.28913 383.59611 253.84308 364.15843 253.81394 363.81393 293.25999 383.25161 293.28913 383.59611"/>
                <polygon class="cls-50" points="293.43968 385.38169 253.99363 365.94402 253.84308 364.15843 293.28913 383.59611 293.43968 385.38169"/>
                <polygon class="cls-57" points="293.1835 385.55406 253.73745 366.11638 253.58669 364.33095 293.03274 383.76862 293.1835 385.55406"/>
                <g>
                  <path class="cls-35" d="m277.54053,409.13416l-39.44605-19.43768c-1.63773-.80702-2.78617-2.79591-3.03175-5.71056-.00468-.05523-.00918-.11105-.01318-.167-.40031-5.59511,2.62796-12.38792,6.75926-15.16716l39.44605,19.43768c-4.13129,2.77925-7.15957,9.57205-6.75926,15.16716.004.05595.0085.11177.01318.167.24558,2.91465,1.39403,4.90354,3.03176,5.71056Z"/>
                  <g class="cls-81">
                    <g class="cls-83">
                      <path class="cls-35" d="m277.54053,409.13416l-39.44605-19.43768c-1.63773-.80702-2.78617-2.79591-3.03176-5.71056-.00468-.05523-.00918-.11105-.01318-.167-.04518-.63152-.04669-1.2783-.00786-1.93284l39.44605,19.43768c-.03883.65454-.03733,1.30132.00786,1.93284.004.05595.0085.11177.01318.167.24558,2.91465,1.39403,4.90354,3.03176,5.71056"/>
                      <path class="cls-35" d="m274.48773,401.32376l-39.44605-19.43768c.02749-.46336.07519-.93061.14192-1.39909l39.44605,19.43768c-.06673.46848-.11443.93573-.14192,1.39909"/>
                      <path class="cls-35" d="m274.62965,399.92467l-39.44605-19.43768c.05291-.37144.11777-.74365.19401-1.11531l39.44605,19.43768c-.07624.37166-.1411.74388-.19401,1.11531"/>
                      <path class="cls-35" d="m274.82366,398.80936l-39.44605-19.43768c.06647-.32406.14159-.6477.22496-.97005l39.44605,19.43768c-.08337.32235-.15848.64599-.22496.97005"/>
                      <path class="cls-35" d="m275.04862,397.83931l-39.44605-19.43768c.07659-.29614.16015-.59119.25036-.88446l39.44605,19.43768c-.09022.29327-.17377.58832-.25036.88446"/>
                      <path class="cls-35" d="m275.29898,396.95484l-39.44605-19.43768c.08505-.27649.17603-.5514.27266-.82416l39.44605,19.43768c-.09664.27276-.18761.54767-.27266.82416"/>
                      <path class="cls-35" d="m275.57164,396.13068l-39.44605-19.43768c.09291-.26223.19105-.52247.2942-.78022l39.44605,19.43768c-.10315.25775-.20129.51799-.2942.78022"/>
                      <path class="cls-35" d="m275.86584,395.35046l-39.44605-19.43768c.10077-.25179.20632-.5012.31644-.74777l39.44605,19.43768c-.11012.24656-.21567.49597-.31644.74777"/>
                      <path class="cls-35" d="m276.18228,394.6027l-39.44605-19.43768c.1091-.24428.22269-.48576.34055-.72398l39.44605,19.43768c-.11787.23822-.23145.4797-.34055.72398"/>
                      <path class="cls-35" d="m276.52283,393.87872l-39.44605-19.43768c.11935-.24122.24309-.47909.371-.71315l39.44605,19.43768c-.12791.23406-.25165.47194-.371.71315"/>
                      <path class="cls-35" d="m276.89383,393.16556l-39.44605-19.43768c.1321-.24172.26866-.47937.40943-.71242l39.44605,19.43768c-.14078.23305-.27733.4707-.40943.71242"/>
                      <path class="cls-35" d="m277.30327,392.45314l-39.44605-19.43768c.1497-.24783.30418-.49045.46314-.72725l39.44605,19.43768c-.15896.2368-.31344.47942-.46314.72725"/>
                      <path class="cls-35" d="m277.7664,391.72589l-39.44605-19.43768c.17718-.26394.35995-.52063.5479-.76921l39.44605,19.43768c-.18795.24857-.37071.50527-.5479.76921"/>
                      <path class="cls-35" d="m278.3143,390.95669l-39.44605-19.43768c.23766-.31432.48362-.61565.73708-.90223l39.44605,19.43768c-.25346.28658-.49941.58791-.73708.90223"/>
                      <path class="cls-35" d="m279.05138,390.05446l-39.44605-19.43768c.68489-.77439,1.42458-1.44104,2.20347-1.96502l39.44605,19.43768c-.77889.52398-1.51858,1.19063-2.20347,1.96502"/>
                    </g>
                  </g>
                </g>
                <g class="cls-83">
                  <g class="cls-79">
                    <g class="cls-83">
                      <path class="cls-49" d="m275.6288,393.63422l-39.44605-19.43768c.05278-.11112.10637-.22165.16076-.33158l39.44605,19.43768c-.05439.10993-.10798.22046-.16076.33158"/>
                      <path class="cls-48" d="m275.78957,393.30264l-39.44605-19.43768c.1358-.27446.27657-.54511.42207-.81139l39.44605,19.43768c-.1455.26628-.28627.53693-.42207.81139"/>
                      <path class="cls-48" d="m276.21164,392.49125l-39.44605-19.43768c.14986-.27426.30474-.54389.4644-.80831l39.44605,19.43768c-.15966.26442-.31454.53405-.4644.80831"/>
                      <path class="cls-48" d="m276.67604,391.68294l-39.44605-19.43768c.16936-.28049.3441-.55512.5239-.82317l39.44605,19.43768c-.1798.26805-.35453.54268-.5239.82317"/>
                      <path class="cls-34" d="m277.19993,390.85977l-39.44605-19.43768c.20043-.2988.40715-.58944.61976-.87092l39.44605,19.43768c-.2126.28149-.41933.57212-.61976.87092"/>
                      <path class="cls-33" d="m277.81969,389.98885l-39.44605-19.43768c.26572-.35181.54063-.68934.82391-1.01068l39.44605,19.43768c-.28328.32133-.55818.65886-.82391,1.01068"/>
                      <path class="cls-33" d="m278.64359,388.97817l-39.44605-19.43768c.78154-.88654,1.62679-1.64981,2.51863-2.24978l39.44605,19.43768c-.89184.59997-1.73709,1.36324-2.51863,2.24978"/>
                    </g>
                  </g>
                </g>
                <path class="cls-57" d="m314.81405,327.18163c.45937.29785.73443.91825.7748,1.74068l.59953,12.50628c.07586,1.63713-.79313,3.54584-1.9855,4.34799l-22.54477,15.16655-.31864-.43637c-.0077-.39022-.01785.2014-.02353-.37485.00339.32051.22488-.46098.22868-.1943l1.28631-.88135,3.39297-2.28256,17.90403-12.04459c.77009-.51806,1.33212-1.75132,1.28381-2.81112l-.59991-12.5116c-.02415-.52983-.20469-.92705-.50011-1.12553-.29531-.19298-.67066-.15563-1.05785.10484l-14.20215,9.55422-3.25812,2.19184-4.19939,2.82505c.00013-.18032.00024-.34666.0005-.49691l-.00145-.60032,21.58567-14.52133c.59844-.40259,1.18025-.45743,1.63511-.15662Z"/>
                <polygon class="cls-27" points="293.43968 385.38169 293.28913 383.59611 319.85017 365.72769 319.97897 367.52791 293.43968 385.38169"/>
                <polygon class="cls-27" points="293.25999 383.25161 292.0631 369.05081 318.80099 351.06342 319.85881 365.66732 293.25999 383.25161"/>
                <path class="cls-54" d="m349.26702,330.20389c.0704-.04736.13337-.00696.14015.08783.00715.09992-.0449.21219-.1153.25955l-30.23142,20.3376-.25946.17455-26.73789,17.98739-.02893-.34464,26.74196-17.99013.25946-.17455,30.23142-20.3376Z"/>
                <g class="cls-83">
                  <g class="cls-78">
                    <g class="cls-83">
                      <path class="cls-44" d="m273.49252,403.93143l-39.44605-19.43768c-.05159-.72103-.05294-1.45994-.00793-2.20786l39.44605,19.43768c-.04501.74792-.04366,1.48683.00793,2.20786"/>
                      <path class="cls-39" d="m273.48459,401.72357l-39.44605-19.43768c.03144-.52236.0855-1.04912.16086-1.57725l39.44605,19.43768c-.07536.52814-.12942,1.05489-.16086,1.57725"/>
                      <path class="cls-39" d="m273.64545,400.14631l-39.44605-19.43768c.06001-.42058.13354-.84203.21991-1.26283l39.44605,19.43768c-.08637.4208-.15989.84225-.21991,1.26283"/>
                      <path class="cls-40" d="m273.86536,398.88348l-39.44605-19.43768c.07557-.36821.16098-.73592.25578-1.10211l39.44605,19.43768c-.0948.36619-.18021.7339-.25578,1.10211"/>
                      <path class="cls-40" d="m274.12114,397.78137l-39.44605-19.43768c.08665-.33472.18115-.66818.28316-.99959l39.44605,19.43768c-.102.33141-.1965.66486-.28316.99959"/>
                      <path class="cls-36" d="m274.4043,396.78179l-39.44605-19.43768c.096-.31189.19864-.62196.30765-.92957l39.44605,19.43768c-.10901.30761-.21165.61769-.30765.92957"/>
                      <path class="cls-37" d="m274.71194,395.85221l-39.44605-19.43768c.10474-.29558.21536-.58888.33161-.87933l39.44605,19.43768c-.11624.29045-.22686.58375-.33161.87933"/>
                      <path class="cls-37" d="m275.04355,394.97288l-39.44605-19.43768c.11351-.28362.23238-.56452.35639-.84217l39.44605,19.43768c-.124.27765-.24288.55855-.35639.84217"/>
                      <path class="cls-49" d="m275.39994,394.13071l-39.44605-19.43768c.07446-.16671.15076-.33225.22886-.49649l39.44605,19.43768c-.0781.16425-.15441.32978-.22886.49649"/>
                    </g>
                  </g>
                </g>
                <polygon class="cls-33" points="275.58503 393.64137 236.13898 374.20369 236.18275 374.19654 275.6288 393.63422 275.58503 393.64137"/>
                <polygon class="cls-42" points="275.58503 393.64137 236.13898 374.20369 236.18275 374.19654 275.6288 393.63422 275.58503 393.64137"/>
                <path class="cls-52" d="m291.40508,361.11339c.0048.13356.01009.23895.01516.30977l.6139,7.28305.02891.34466,1.19691,14.20078.02915.3445.15052,1.7856.42239,5.01201-.2548.17695-.42373-5.01665-.15076-1.78544-.02915-.3445-1.19882-14.19949-.02915-.3445-.61486-7.28241c-.00528-.07382-.01074-.17805-.01563-.30945l.25995-.17488Z"/>
                <path class="cls-60" d="m263.1952,363.45751c-.0341-1.37844.70964-2.97108,1.69527-3.63413l25.92392-17.43981.00309.49443c-.00308,2.60343-.00787,9.93378.02176,14.68738-.02798-4.42446-.0275-11.08202-.02464-14.08407l-25.84919,17.38953c-.57647.38781-1.01234,1.32096-.9917,2.12354l.38097,13.70704c.01399.38781.13652.68056.34549.8324.21321.14348.4838.12139.76529-.06797l25.40039-17.08761c.00267.18408.00555.35378.00877.50713l.00917.57867-25.34338,17.04926c-.49273.33148-.97381.37377-1.34781.11221-.37302-.251-.59562-.78552-.61193-1.46412l-.38546-13.70389Z"/>
                <path class="cls-51" d="m277.71927,398.11476c.03151-.0212.06422-.03258.09557-.03152l1.62767.12426c.10157.00336.14404.14584.10069.31283-.02477.10496-.04915.2152-.06888.32769-.0191.11776-.03391.23248-.04012.34142-.01036.13851-.08548.2775-.1769.339-.01194.00803-.02445.01495-.03709.02016l-1.77079.71132c-.10777.03942-.18835-.05527-.17656-.21226.01764-.27107.05306-.54872.10162-.8352.04464-.27831.10732-.56322.17997-.83822.03-.11567.09441-.21212.16483-.25949Z"/>
                <path class="cls-27" d="m281.48834,391.35288c2.80268-1.88545,5.29752-.34199,5.56904,3.45303.27152,3.79502-1.78346,8.39941-4.58614,10.28486s-5.29292.33876-5.56444-3.45626c-.27152-3.79502,1.77891-8.39622,4.58154-10.28163Zm-1.58958,8.26885c.11148,1.55808,1.1347,2.19371,2.28287,1.4213,1.15272-.77547,1.99525-2.66626,1.88378-4.22434s-1.13476-2.19368-2.28748-1.4182c-1.14817.77241-1.99065,2.66316-1.87917,4.22124m.95439,2.96045c.04803-.16458.00592-.30178-.08743-.31623-.06967-.00835-.13574-.03001-.19759-.0547-.06195-.03-.11956-.06292-.17332-.10401-.04566-.03304-.10357-.02773-.1587.00935-.0449.0302-.08798.08176-.12034.15068l-1.22549,2.46851c-.07637.15617-.0686.32755.00949.39083.13694.10645.28138.1914.43818.25681.15681.06561.31742.11751.48473.13743.03467.00583.0719-.00511.10796-.02937.06611-.04448.12757-.13358.15844-.24369l.76407-2.66562m4.41934-1.0089c.07679-.15108.08238-.33124.00369-.3997l-1.24639-1.11448c-.04541-.03656-.10468-.03229-.16147.00591-.04152.02793-.0818.07404-.11441.13548-.05254.10152-.11451.20393-.17664.30082-.05779.0941-.12094.18078-.1887.26493-.09743.12077-.13928.30893-.08985.41904l.79358,1.81081c.03747.08342.11751.09708.19632.04407.02529-.01701.05037-.04081.07396-.07132.1652-.20498.32477-.42263.47816-.66381.15372-.23582.29753-.4815.43175-.73174m-7.99962-1.52562c-.0118.15693.06882.25163.17657.2122l1.7708-.71129c.01265-.00522.02513-.01214.03708-.02017.09145-.06152.16653-.20044.17689-.339.00624-.10893.02106-.22369.04015-.3414.01969-.11247.04409-.22273.06887-.32767.04336-.16702.00088-.30954-.10072-.31287l-1.62764-.12423c-.03135-.00108-.06406.01032-.09557.03151-.07045.04739-.13487.1438-.16483.25948-.07264.27499-.13537.55989-.17998.83819-.04857.28654-.08402.56418-.10163.83526m9.14218-5.58204c.10854-.09499.16877-.28457.14054-.42002-.04813-.22142-.1097-.43923-.18864-.63992-.07915-.20055-.16591-.38496-.26551-.54965-.04104-.07054-.11525-.07959-.18758-.03094-.02936.01975-.05854.04899-.0851.08748l-1.49624,2.15966c-.08752.13056-.11582.31512-.05834.40892.04186.07106.07945.14512.10819.22501.02875.08008.05353.16814.07344.2541.02923.11818.11496.15866.20994.09476.01147-.00771.02311-.01689.0348-.02771l1.7145-1.5617m-5.43615-2.11364c-.10853.09518-.17386.27698-.14589.41274l.44687,2.18184c.02523.11879.11364.15827.20793.09484.00905-.00609.01853-.0134.02772-.02153.07382-.06625.1478-.12711.22248-.17735.07495-.05042.15045-.09013.2216-.12691.01043-.00493.02077-.01102.03079-.01776.09761-.06567.17595-.21248.18247-.35203l.1079-2.55505c.00691-.15923-.08152-.23758-.18879-.18759-.18344.07941-.37364.19077-.56298.31814-.18901.12716-.37266.26729-.5501.43066"/>
                <path class="cls-51" d="m283.8683,400.06506c.05681-.03822.11606-.04246.16145-.00595l1.24641,1.11451c.0787.06842.07308.24865-.00368.39966-.13421.25027-.27802.49592-.43177.7318-.15338.24117-.31295.45881-.47817.66379-.02359.03053-.04866.05428-.07396.07131-.07877.05299-.15881.03934-.19631-.04408l-.79358-1.81079c-.04941-.11013-.00758-.29825.08986-.41903.06778-.08421.13089-.17081.18871-.26493.06212-.09687.1241-.19932.17663-.30081.03263-.06146.07287-.10754.1144-.13548Z"/>
                <path class="cls-13" d="m327.93445,317.95802l-2.96373,18.93063,3.36507-2.26378,2.84206-17.54333,3.17863,13.49303-11.17559,7.51816c-.96796.65118-1.83644.11555-1.93059-1.20034l-.81495-11.39039c-.09415-1.31589.62144-2.91716,1.5894-3.56834l5.90969-3.97563Z"/>
                <path class="cls-54" d="m289.15827,386.01096l3.84536-2.58689.02914.3445-3.84965,2.58977c-.0704.04736-.13766.00985-.14443-.08482-.00678-.09479.04918-.2152.11958-.26256Z"/>
                <path class="cls-51" d="m285.91383,392.82516c.07233-.04866.14653-.03961.18761.03093.0996.16466.18635.34905.2655.54961.07891.20073.14053.41848.18865.63993.02821.13547-.03204.32505-.14058.42007l-1.71446,1.56163c-.01173.01088-.02334.02004-.03479.02775-.09501.06391-.18072.0234-.20994-.09477-.01991-.08598-.04473-.17404-.07347-.25408-.02873-.07989-.06631-.15398-.10817-.22504-.0575-.09376-.02917-.27834.05832-.40888l1.49628-2.15969c.02652-.03849.0557-.0677.08506-.08746Z"/>
                <path class="cls-51" d="m280.2361,402.11661c.05514-.0371.11306-.04239.15871-.00934.05373.04108.11138.07398.17332.10399.06182.02471.12792.04639.19757.05476.09335.01442.13545.15162.08743.31622l-.76404,2.66559c-.0309.11013-.09233.1992-.15845.24368-.03604.02425-.07329.03524-.10798.02939-.1673-.01989-.32789-.07184-.48471-.13741-.1568-.06542-.30124-.15039-.43821-.25684-.07809-.0633-.08584-.23468-.00945-.39083l1.22549-2.46854c.03235-.0689.07545-.12049.12032-.15068Z"/>
                <path class="cls-27" d="m359.7968,325.25856c-.75889-.65441-9.78924-5.53521-9.78924-5.53521l-14.18022-9.00409c-.15856-.10458-.33049-.19362-.497-.20384l-18.27583,12.29374,1.98402,27.72226,30.22482-20.33866c.07588-.04851.1363-.00936.1432.09102s-.04317.21208-.11253.25293l-30.23183,20.33914,1.06145,14.90685,17.96358-12.25533c.33634-.98189,3.00016-9.16816,6.84486-12.39558.06202-.04017.12193-.00838.13437.07015.02078.09239-.02831.21827-.09669.27331-3.95385,3.31431-6.79061,11.76436-6.919,11.99655l-17.94519,12.06931.13108,1.80048,19.74358-13.28136c1.08258-4.81108,3.81836-9.48349,7.20886-11.76405,2.5016-1.68598,4.86354-1.72555,6.5816-.43771,3.10735,2.20188,2.69351,7.84272,2.69351,7.84272,0,0,1.24392-.61963,2.40047-1.55588.01155-.46214-.07021-1.26792-.10127-1.71992l-.01084-.15785c-.0775-1.02563-.2348-1.9523-.47138-2.77232-.0757-.26147.20289-.40312.42302-.55536l3.13423-2.23409c.1155-.20965.06089-7.92774.04585-10.14016-.00341-.3673-.00383-.5836-.00383-.5836-.31218-1.60797-.43638-3.30825-2.08364-4.72347Zm-34.21208,17.71422l-1.07561.71566c-.09112.97965-.62611,2.01127-1.31511,2.47683s-1.31973.20596-1.53765-.55761l-1.06076.72168c-.20711.13674-.39341.04868-.41017-.19537-.01726-.25123.13443-.5644.34119-.70112l1.06124-.71467c.07613-.99288.61579-2.05386,1.32603-2.52792.70287-.47373,1.33459-.19976,1.54096.60068l1.06124-.71467c.20676-.13671.39257-.05566.40982.19539.01677.24404-.13457.5572-.34119.70112Zm-2.3258-3.84152c-1.39924.93961-2.64886.16754-2.78637-1.7265l-.81156-11.39331c-.13665-1.8867.89399-4.19983,2.28585-5.13911l10.10997-6.79399c.66862-.44955,1.31942-.52312,1.83216-.19786l13.99251,8.68536-24.62256,16.5654Zm28.54714-4.88112l-1.39924.93961c-.60626.40935-1.14328.15071-1.20058-.58077-.05028-.73196.40555-1.65006,1.01216-2.05944l1.39888-.93959c.61312-.41704,1.15015-.1584,1.20043.57356.04979.72478-.3984,1.65679-1.01166,2.06663Z"/>
                <polygon class="cls-54" points="316.78058 322.82444 317.04005 322.64989 317.05247 322.82352 319.0356 350.54149 318.77613 350.71604 316.793 322.99807 316.78058 322.82444"/>
                <path class="cls-51" d="m281.77793,395.40053c1.15272-.77547,2.17597-.13984,2.28744,1.41821s-.73102,3.44883-1.88374,4.2243c-1.14819.77242-2.17143.13679-2.28291-1.42127s.73102-3.44883,1.8792-4.22124Z"/>
                <path class="cls-51" d="m281.529,391.92133c.1893-.12734.37949-.23868.56295-.3181.10726-.05001.19568.02834.18881.18756l-.10792,2.55509c-.00653.13953-.08485.28635-.18248.35203-.01003.00674-.02035.01279-.03076.0177-.07117.03681-.14665.0765-.2216.12693-.07472.05026-.14868.11109-.2225.17737-.00918.00812-.01866.0154-.02773.0215-.09429.06343-.18268.02397-.20794-.09477l-.44684-2.18189c-.02798-.13577.03733-.31754.14586-.4127.17746-.16338.36109-.30352.55014-.43071Z"/>
                <polygon class="cls-40" points="273.46948 404.12352 234.02343 384.68584 234.04647 384.49375 273.49252 403.93143 273.46948 404.12352"/>
                <path class="cls-33" d="m281.16222,386.72839c3.39228-2.28209,6.51131-1.55022,8.14967,1.43021.62538,1.13496,1.02998,2.60058,1.15539,4.35338l.0113.15792-.9999.67341c-.00306-.05331-.00637-.10646-.01016-.15944-.40031-5.59511-4.07783-7.87674-8.21368-5.09442-4.13132,2.77926-7.15959,9.57208-6.75928,15.16719.004.05597.0085.11176.0132.16697l-1.03928.69991.02304-.19209c-.23914-3.34241.60112-7.06886,2.13628-10.29721l-.04377.00715.04377-.00715c1.37882-2.90273,3.31152-5.41109,5.53342-6.90582Z"/>
                <path class="cls-57" d="m281.25485,388.08943c4.1359-2.78235,7.81337-.5007,8.21368,5.09441.00379.053.00714.1061.01017.15942.33256,5.56404-2.67724,12.25481-6.77398,15.0108-4.08999,2.75146-7.73478.54268-8.19594-4.93048-.00468-.05523-.00918-.11105-.01318-.167-.40031-5.59511,2.62796-12.38792,6.75926-15.16716Zm1.21639,17.00133c2.80268-1.88545,4.85766-6.48983,4.58614-10.28486-.27152-3.79502-2.76636-5.33848-5.56904-3.45303s-4.85306,6.48661-4.58154,10.28163c.27152,3.79502,2.76181,5.34167,5.56444,3.45626"/>
                <path class="cls-11" d="m290.84871,358.8472c.00418.48642.00898.92888.01423,1.31583-.00526-.38711-.01005-.82941-.01423-1.31583Z"/>
                <path class="cls-13" d="m314.31173,328.28088c.29542.19848.47596.5957.50011,1.12553l.59991,12.5116c.04831,1.0598-.51372,2.29305-1.28381,2.81112l-17.90403,12.04459,3.05267-18.84155-.22485.00777,14.20215-9.55422c.38719-.26047.76254-.29782,1.05785-.10484Z"/>
                <polygon class="cls-31" points="295.79361 340.13177 299.05173 337.93993 299.27658 337.93216 296.2239 356.77371 292.83093 359.05627 295.79361 340.13177"/>
                <path class="cls-13" d="m290.24928,343.78055l5.54432-3.64878-2.96268,18.9245-1.19071.80103c-.25894.18963-.33876.45619-.34215.13569-.0422-4.18441-1.05234-12.82439-1.04879-16.21243Z"/>
                <path class="cls-30" d="m264.96541,360.87083l25.10935-16.89182c-.00303,3.16063.73632,9.87759.76912,14.26972.00022.03445.00046.06613.00072.098.00582.78374.01295,1.47442.02125,2.03151l-25.40039,17.08761c-.28148.18936-.55208.21145-.76529.06797-.20897-.15184-.3315-.44459-.34549-.8324l-.38097-13.70704c-.02064-.80258.41523-1.73573.9917-2.12354Z"/>
                <g class="cls-83">
                  <g class="cls-77">
                    <g class="cls-83">
                      <path class="cls-10" d="m261.44049,400.55297l-39.44605-19.43768c.04863.02018.09778.03871.14744.0556l39.44605,19.43768c-.04966-.01688-.09881-.03541-.14744-.0556"/>
                      <path class="cls-7" d="m261.58793,400.60857l-39.44605-19.43768c.0864.02938.17432.05376.26361.07317l39.44605,19.43768c-.08929-.01941-.1772-.0438-.26361-.07317"/>
                      <path class="cls-6" d="m261.85153,400.68174l-39.44605-19.43768c.08893.01933.17921.03374.27072.04322l39.44605,19.43768c-.09151-.00949-.18179-.02389-.27072-.04322"/>
                      <path class="cls-9" d="m262.12225,400.72496l-39.44605-19.43768c.06872.00713.13813.01148.20817.01307.02511.00058.05029.0008.07555.00067l39.44605,19.43768c-.02526.00013-.05045-.00009-.07555-.00067-.07004-.00159-.13945-.00594-.20817-.01307"/>
                      <path class="cls-8" d="m262.40597,400.7387l-39.44605-19.43768c.09968-.00052.20056-.00654.30244-.01804l39.44605,19.43768c-.10188.0115-.20275.01752-.30244.01804"/>
                      <path class="cls-41" d="m262.70841,400.72067l-39.44605-19.43768c.10957-.01237.2203-.03106.33198-.05606l39.44605,19.43768c-.11168.02499-.22242.04369-.33198.05606"/>
                      <path class="cls-57" d="m263.04039,400.66461l-39.44605-19.43768c.1266-.02833.25441-.06475.38311-.10921l39.44605,19.43768c-.1287.04446-.25651.08088-.38311.10921"/>
                      <path class="cls-42" d="m263.4235,400.5554l-39.44605-19.43768c.16309-.05634.32761-.12558.49289-.20761l39.44605,19.43768c-.16528.08203-.3298.15127-.49289.20761"/>
                      <path class="cls-43" d="m263.91639,400.34779l-39.44605-19.43768c.19316-.09587.38736-.20921.58154-.33984l39.44605,19.43768c-.19418.13063-.38838.24397-.58154.33984"/>
                    </g>
                  </g>
                </g>
                <polygon class="cls-10" points="259.51897 399.73818 220.07292 380.3005 221.99444 381.11529 261.44049 400.55297 259.51897 399.73818"/>
                <path class="cls-54" d="m266.22838,386.06651l25.54724-17.1864.02919.34446-25.55158,17.18932c-.07468.05024-.13728.0151-.14443-.08482-.00678-.09479.04489-.21232.11958-.26256Z"/>
                <path class="cls-54" d="m335.0585,310.3407c.09131.0348.21666.14095.30569.18223l-18.31173,12.30063-55.20073,37.13521c.01058-.25435.03384-.33135.0576-.4084l73.14918-49.20968Z"/>
                <path class="cls-27" d="m261.83906,359.78171l54.95394-36.78364,1.98313,27.71797-26.74196,17.99013-.6139-7.28307c-.00507-.07082-.01036-.17622-.01514-.30978l22.79776-15.33674c1.19237-.80214,2.06136-2.71086,1.9855-4.34799l-.59953-12.50628c-.04037-.82243-.31544-1.44284-.7748-1.74068-.45486-.30081-1.03668-.24596-1.63511.15662l-21.58567,14.52133-26.7028,17.96378c-.98562.66306-1.72937,2.2557-1.69527,3.63413l.38546,13.70389c.01632.67859.23891,1.21311.61193,1.46412.374.26156.85508.21927,1.34781-.11221l25.34338-17.04926.26134-.17581c.00491.13139.0104.23558.01568.30942l.61481,7.28246-25.54724,17.1864c-.07468.05024-.12636.16777-.11958.26256.00715.09992.06975.13506.14443.08482l25.55158-17.18932,1.19882,14.19951-3.84536,2.58689c-.0704.04736-.12636.16777-.11958.26256.00677.09466.07403.13218.14443.08482l3.84965-2.58977.15077,1.78544-3.87161,2.60455c-1.63837-2.98043-4.75741-3.71232-8.14969-1.43024-2.22187,1.49472-4.15458,4.00309-5.53341,6.90587l-2.38365.39517-8.71403,5.95604c-.77533.52172-1.51728.7684-2.20068.75254-.31075-.00705-.60917-.06849-.88997-.18504l-1.92148-.81477-.10434-5.51839,3.15472-2.12228-1.29811-18.14351-.43458-6.07414c-.18075-2.52638.17447-5.33541,1.00235-8.0981Zm4.03768,20.78921c-.51036.34333-.8841,1.1135-.8408,1.71872.04331.60529.48786.82476.99821.48143l21.68687-14.58942c.50602-.34041.88433-1.11345.84102-1.71874-.0433-.60522-.49242-.82183-.99844-.48141l-21.68687,14.58942m50.53679-31.42113c.20675-.13908.35954-.45153.34183-.69899-.0177-.24733-.19911-.33495-.40586-.19586l-1.0594.71269c-.2084-.79753-.8454-1.06985-1.54719-.59774-.70178.47211-1.24311,1.53713-1.32348,2.52893l-1.0594.71269c-.20675.13908-.35975.45167-.34205.69901.0177.24746.19933.33493.40608.19585l1.067-.71781c.21857.76388.84587,1.01983,1.53618.55543.6901-.46425,1.22506-1.50209,1.31927-2.47638l1.067-.71781"/>
                <path class="cls-35" d="m275.62881,393.63423l-.04387.00706-2.33975.38815-8.74727,5.97851c-.74196.49912-1.48401.74583-2.16735.73011-.31099-.00715-.60916-.06852-.89-.18511l-1.92144-.81481-39.44618-19.43771c-1.1923,1.815-1.52482,4.35278-.12884,6.01625,2.82239,3.3632,41.33812,21.13796,41.33812,21.13796,1.729.81089,3.7324.79423,5.44767-.0453l6.77846-3.31765-.01594-.16032c-.23912-3.34239.60113-7.06891,2.13639-10.29715Zm-17.01651,8.02094l-.00004-.00053c.00356-.01485.0103-.0294.01422-.0441-.00389.01505-.01029.02957-.01418.04463Zm.14689-.45472c.0139-.03845.02209-.07809.03743-.11628.00033-.00037.00029-.0009.00029-.0009.04024-.10098.09393-.19567.14143-.29346-.06539.13457-.12567.27178-.17914.41064Z"/>
                <polygon class="cls-30" points="259.51902 399.73813 220.07297 380.30045 219.96863 374.78206 259.41468 394.21974 259.51902 399.73813"/>
                <path class="cls-30" d="m287.56357,365.98158c.50606-.34044.95515-.12385.99845.48141.0433.60526-.33498,1.3783-.84104,1.71874l-21.68686,14.58941c-.51036.34333-.9549.12383-.9982-.48142s.33043-1.37539.84079-1.71872l21.68686-14.58941Z"/>
                <polygon class="cls-20" points="262.31707 388.57087 262.56939 392.09748 259.41463 394.21978 259.34707 390.56889 262.31707 388.57087"/>
                <polygon class="cls-14" points="262.20259 386.9707 262.31707 388.57087 259.34707 390.56889 259.31637 388.91235 262.20259 386.9707"/>
                <polygon class="cls-20" points="261.98078 383.87059 262.20259 386.9707 259.31637 388.91235 259.28926 387.50182 259.25737 385.70272 261.98078 383.87059"/>
                <polygon class="cls-14" points="259.01335 372.56009 261.27129 373.954 261.98078 383.87059 259.25737 385.70272 259.01335 372.56009"/>
                <path class="cls-54" d="m261.90932,359.55038c-.02376.07704-.04702.15405-.07027.23135l-.01257-.17562.08283-.05572Z"/>
                <path class="cls-27" d="m263.16878,356.25923c-.49364,1.07363-.91477,2.17795-1.25946,3.29115l-.08283.05572.01257.17562c-.8279,2.76273-1.18311,5.57173-1.00235,8.09813l.43459,6.07414-2.25793-1.39392-.94448-9.15657c-.48405-7.04603,2.27097-6.94995,5.0999-7.14429Z"/>
                <path class="cls-27" d="m259.08881,372.56623l-1.51558-.75398,1.44277.74455.3991,21.65951-37.25926-18.35581-1.96296-.96827-.05208-.02529-.17145-.08204s-.00048-.00701.00637-.01487c-.00099-.01437-.00246-.03574.00209-.07214l.00747-.10137c.00894-.08.02291-.18921.03527-.327.06015-.59521.17261-1.6844.33372-3.11595.05905-.50871.12229-1.05379.18993-1.64229l.39656-3.14914c.26727-2.09487.59025-4.42416.96823-6.79331.31288-1.95367.65952-3.93852,1.03345-5.83883,1.13439-5.73769,2.55595-10.75951,4.20471-12.15614.26566-.22736.53196-.44033.80759-.62508l34.0108,16.61088c-5.3638,3.67784-3.23981,9.19872-2.87673,15.00656Z"/>
                <g>
                  <polygon class="cls-23" points="256.93643 389.30379 259.34469 390.56589 259.41522 394.2164 256.97629 392.92758 256.93643 389.30379"/>
                  <polygon class="cls-30" points="259.31737 388.9095 259.34456 390.56592 256.9365 389.30383 256.91681 387.65411 259.31737 388.9095"/>
                  <polygon class="cls-23" points="259.25603 385.7054 259.29258 387.49812 259.31737 388.9095 256.91681 387.65411 256.87782 384.46272 259.25603 385.7054"/>
                  <polygon class="cls-30" points="259.01599 372.5568 259.25603 385.7054 256.87782 384.46272 256.74473 372.76335 257.61084 371.93957 259.01599 372.5568"/>
                  <polyline class="cls-1" points="256.93643 389.30379 256.91683 387.65409 256.87784 384.46284 256.74462 372.76329"/>
                </g>
                <path class="cls-21" d="m267.41042,399.66565l-.48882,2.01627-.90312.60278c-.90361.59559-1.93253.94034-2.98018,1.01231-1.04766.07197-2.11405-.12883-3.08361-.59574l-3.62493-1.76236.41776-1.3698.00736-.00051c.04359.00422.08081.02332.11838.04239l3.70623,1.79286c1.49139.71956,3.264.59779,4.63562-.31846l1.99912-1.3341c.06235-.04037.12485-.07353.19619-.08565Z"/>
                <line class="cls-1" x1="267.41033" y1="399.6657" x2="266.92159" y2="401.68197"/>
                <polyline class="cls-1" points="256.32982 400.9388 256.74762 399.56908 256.7548 399.56859"/>
                <path class="cls-21" d="m224.225,383.62748l.00049.00718-.8513,1.14699-3.57487-1.87405c-.22436-.11431-.44284-.25068-.64695-.38804.10313-.4973.264-.98431.49202-1.44707.25264.21341.53218.40332.83147.563l3.64314,1.91988c.03757.01907.07479.03816.10599.0721Z"/>
                <path class="cls-30" d="m288.4805,305.22457l-60.52685,35.72728,32.85489,16.04163c.46966.22931,1.02596.19072,1.45945-.10126l67.61229-45.53994c.20828-.14016.41655-.26519.62429-.38261.06033-.03389.12049-.06531.18059-.09742.12021-.06423.23989-.12086.35957-.17731.18753-.08875.37438-.16671.56041-.23635.0858-.03212.1717-.06795.25673-.09597.11257-.03713.22362-.06553.33526-.09573.1158-.03101.23184-.0638.34604-.08732.08296-.01714.16454-.02873.24638-.04174.13059-.02076.26032-.03865.38877-.04959.07281-.00606.14506-.00997.21703-.0128.13692-.00553.27216-.00462.40637.00165.05932.00261.11923.00343.17802.00854.1891.01623.37849.13354.56112.17345.00857.0017.12755.10595.13577.10784.19451.04367.21584-.08807.402-.01725l-23.23743-7.6567c-7.7883-2.55799-16.30119-1.63545-23.3607,2.53158Z"/>
                <path class="cls-35" d="m361.85365,340.61482c-.02929,1.24929-.1745,2.49211-.45146,3.70808-.25599,1.1061-.75097,2.06685-1.09406,2.54807-.30323.42531-.94671.95191-1.44347,1.27436.01155-.46214-.06354-1.17083-.09461-1.62301l-.01084-.15785c-.07366-.98822-.22393-1.88879-.4498-2.68983-.0869-.3082.02001-.63621.28386-.81766l3.26038-2.24217Z"/>
                <path class="cls-27" d="m361.88044,329.98203s.00043.2163.00383.5836c-.51893-.00026-1.47334-.25188-2.13661-.98503-.55433-.61812-1.8041-.5467-2.73728-.38156-.0426.01014-.07834.0126-.12144.01556-.56693.03895-1.06875-.33759-1.10424-.85423-.02169-.3157.14486-.62268.44171-.81627l3.57039-2.28553c.22993.20053.43146.40284.60442.6145.93376,1.10392,1.15569,2.33596,1.3758,3.54647.03419.18511.06923.37738.10342.5625Z"/>
                <path class="cls-54" d="m358.32505,347.51094c-.09741.00669-.18264-.06561-.19148-.16357-.00114-.014-.13106-1.41324-.85603-4.47688-.70266-2.96942-4.56239-3.84769-4.60135-3.85628-.09688-.02151-.15838-.11726-.13724-.21447.0214-.09582.11641-.15797.21394-.13721.168.03704,4.11947.93365,4.8745,4.12478.73222,3.09483.85932,4.47102.8645,4.5284.00872.09868-.06431.18607-.16333.19499l-.0035.00024Z"/>
                <path class="cls-54" d="m345.10313,341.50167c.01562.08885-.03075.21375-.10045.27172-3.95474,3.31699-6.79033,11.76768-6.81657,11.85144l-.10027.14471-17.94272,12.07061-.25946.17455-26.58555,17.62133-.03813-.38442,26.59882-17.58429.25946-.17455,17.8766-12.02613c.3356-.98151,3.12362-8.80998,6.95669-12.02302.07847-.0538.1371-.02472.15156.05806Z"/>
                <path class="cls-14" d="m360.40123,325.87306l-1.19857.60142c-.50203.25082-.66037.98989-.29975,1.41203l1.12267.80984c.53056.37456,1.12421.6221,1.75144.72317-.2201-1.21051-.44204-2.44254-1.3758-3.54647Z"/>
                <rect class="cls-57" x="256.70619" y="358.07173" width="101.17259" height=".71879" transform="translate(-147.79283 232.73746) rotate(-33.95259)"/>
                <polygon class="cls-57" points="320.62653 372.40453 319.93691 372.86093 316.49961 322.82584 317.10368 322.41946 320.62653 372.40453"/>
                <polyline class="cls-57" points="289.99815 340.93331 290.00568 341.01875 290.36044 345.04082 289.54734 345.31281 289.24109 341.16347 289.9687 340.67398"/>
                <g>
                  <polygon class="cls-23" points="220.04678 374.02263 220.02049 374.26957 219.98526 374.59643 219.97781 374.69788 219.96839 374.77063 219.97557 374.77013 220.14083 374.86693 220.19303 374.89218 222.14209 375.97674 222.15573 375.86045 222.46004 372.31395 220.35437 371.15364 220.31701 371.13457 220.04678 374.02263"/>
                  <polygon class="cls-30" points="220.54435 369.51117 222.61216 370.64525 222.46004 372.31395 220.35437 371.15364 220.31701 371.13457 220.54435 369.51117"/>
                  <polygon class="cls-23" points="222.88889 367.43229 222.73854 369.23063 222.61217 370.64519 220.54419 369.51128 220.94075 366.36214 222.88889 367.43229"/>
                  <path class="cls-30" d="m224.05126,354.23065l-1.16237,13.20164-1.94813-1.07015c.26727-2.09487.59025-4.42416.96823-6.79331.31288-1.95367.65952-3.93852,1.03345-5.83883l1.10882.50064Z"/>
                </g>
                <path class="cls-27" d="m264.96541,360.87083c-.57647.38781-1.01234,1.32096-.9917,2.12354l.38097,13.70704c.01399.38781.13652.68056.34549.8324.21321.14348.4838.12139.76529-.06797l25.40039-17.08761c.00267.18408.00555.35378.00877.50713l.00917.57867-25.34338,17.04926c-.49273.33148-.97381.37377-1.34781.11221-.37302-.251-.59562-.78552-.61193-1.46412l-.38546-13.70389c-.0341-1.37844.70964-2.97108,1.69527-3.63413l25.40161-15.98061"/>
                <path class="cls-57" d="m294.01915,390.30771l-3.64348-45.48109-.08499-1.06268,3.33406-2.20483.03231-1.08788-4.26688,2.86168.0007.00834-24.50025,16.48215c-.98585.663-1.72937,2.25566-1.6953,3.63409l.38528,13.70388c.01651.67854.23882,1.21309.61216,1.46412.37404.26157.85485.21924,1.3476-.11221l25.29224-17.01477,2.3324,29.37008.85415-.56089Zm-28.5536-12.84183c-.28167.1893-.55211.21143-.76529.06796-.20897-.1519-.33154-.44464-.34559-.83237l-.38107-13.70713c-.02037-.80252.41548-1.73569.99182-2.12352l24.50868-16.47829,1.2756,16.06377-25.28416,17.00959Z"/>
                <g>
                  <path class="cls-57" d="m255.11953,362.10892c-.01616-.59425-.23004-1.23346-.60233-1.80102-.34981-.53876-.82114-.97216-1.32688-1.22011l-24.00293-11.74315c-.54508-.26692-1.08806-.29642-1.52918-.08078-.40214.19527-.68276.5802-.78988,1.08384l-2.84553,13.57508c-.13346.64412.02072,1.4203.42251,2.12975.36561.64623.8833,1.1576,1.45859,1.43857l27.24041,13.32712c.3038.14891.60865.22267.89419.22267.28273,0,.54684-.07235.77302-.21775.46255-.29713.71753-.86469.69926-1.55657l-.39125-15.15764Zm-.46325,14.90055c.00983.42848-.14259.77478-.41759.95108-.26552.16928-.61076.16577-.97251-.01124l-27.24041-13.32712c-.35227-.17209-.67117-.48608-.8977-.88435-.25744-.45658-.35367-.95179-.26341-1.3599l2.84131-13.57578c.06462-.30556.22688-.53525.45693-.64693.10888-.05338.2304-.08008.35999-.08008.17069,0,.35508.04636.54227.13768l24.00329,11.74385c.31012.15172.60022.41724.81692.74808.23531.35753.36983.76494.37931,1.14706l.3916,15.15764Z"/>
                  <path class="cls-30" d="m240.50416,375.81167c.31293-.60821.04215-1.58256-.6083-2.18165-.14505-.13469-.29607-.23891-.44745-.31302-.52436-.25656-1.04767-.14909-1.29071.31908-.3175.60093-.0425,1.57756.60373,2.17928.14505.13346.29677.23742.4478.31135.52682.25779,1.05153.15366,1.29492-.31504Z"/>
                  <path class="cls-58" d="m251.6081,383.56223l-24.67516-12.0689c-.23777-.12494-.48819.14795-.35086.38089l2.95124,5.0471c.50434.87391,1.21836,1.56536,2.00507,1.9487l14.2638,6.98246c.80779.38862,1.59732.42198,2.22774.09588l3.58448-1.90199c.19492-.10747.18895-.38985-.00632-.48415Z"/>
                </g>
                <path class="cls-27" d="m336.22048,311.11326l.96792.48873.25299.23758s-2.16315-1.70706-3.04304-1.68949-.25423.01747-.25423.01747l-2.70349,1.48073s-.94275,1.59398-.87231,1.61669,1.10805.88825,1.10805.88825l3.89012-2.73327"/>
                <path class="cls-27" d="m329.80347,311.34926c1.85788-1.24985,3.71008-1.59645,5.25505-1.00857l-73.14919,49.20968c.34471-1.11326.76586-2.21755,1.25946-3.29117.26169-.2314.53192-.4406.80409-.6237l65.8306-44.28624Z"/>
                <path class="cls-57" d="m261.9343,359.90944c-.12404.00852-.24909-.04766-.32338-.15803-.11087-.16488-.06716-.38826.09766-.49886l69.6053-46.82593c.16477-.1113.38833-.06751.49911.09738.11087.16488.06716.38826-.09766.49886l-69.6053,46.82593c-.05424.03682-.11485.05647-.17573.06065Z"/>
              </g>
              <g>
                <ellipse class="cls-45" cx="421.2508" cy="165.47908" rx="20.74896" ry="12.98523"/>
                <path class="cls-45" d="m421.25042,186.91717c-18.50197,0-33.55463-9.6172-33.55463-21.438s15.05266-21.43857,33.55463-21.43857c18.50311,0,33.55578,9.6172,33.55578,21.43857s-15.05266,21.438-33.55578,21.438Zm0-40.53278c-17.20991,0-31.21084,8.56604-31.21084,19.09478s14.00093,19.09421,31.21084,19.09421,31.21199-8.56547,31.21199-19.09421-14.00208-19.09478-31.21199-19.09478Z"/>
                <path class="cls-45" d="m421.2508,165.47908l-43.34561-93.70238c-9.97398-29.63819,12.07412-60.32101,43.34555-60.32101h.00013c31.27143,0,53.31954,30.68282,43.34555,60.32101l-43.34561,93.70238Z"/>
                <circle class="cls-14" cx="421.2508" cy="54.62174" r="22.40031"/>
              </g>
              <path class="cls-30" d="m254.44429,361.84763c-.01024-.41411-.15539-.85627-.4089-1.24189-.23434-.35726-.55027-.64512-.88828-.81049l-24.00328-11.74355c-.75585-.3698-1.45002-.06237-1.6142.71355l-2.84139,13.57629c-.09943.45077.00508.99191.2829,1.48466.24348.42832.58853.76838.97551.9577l27.24036,13.32728c.88924.43506,1.67194-.09543,1.64861-1.10579l-.39132-15.15777"/>
              <path class="cls-14" d="m271.83937,248.31908c0-7.75888,6.29053-14.04941,14.06058-14.04941,7.75908,0,14.04961,6.29053,14.04961,14.04941s-6.29053,14.04968-14.04961,14.04968c-7.77005,0-14.06058-6.29053-14.06058-14.04968Z"/>
              <path class="cls-14" d="m307.90589,278.27046c-5.80839,5.31515-13.53456,8.57011-22.01692,8.57011-8.47138,0-16.19756-3.25496-22.00595-8.57011,4.40559-7.58363,12.603-12.67979,22.00595-12.67979s17.61133,5.09616,22.01692,12.67979Z"/>
              <g>
                <g>
                  <circle class="cls-14" cx="280.69565" cy="257.39133" r="33.62209"/>
                  <path class="cls-45" d="m280.69565,224.76898c17.98804,0,32.62231,14.63428,32.62231,32.62256s-14.63428,32.62207-32.62231,32.62207-32.62207-14.63428-32.62207-32.62207,14.63428-32.62256,32.62207-32.62256m0-2c-19.09058,0-34.62207,15.53174-34.62207,34.62256s15.53149,34.62207,34.62207,34.62207,34.62231-15.53125,34.62231-34.62207-15.53149-34.62256-34.62231-34.62256h0Z"/>
                </g>
                <g>
                  <path class="cls-46" d="m302.70821,281.4431c-5.80839,5.31515-13.53456,8.57011-22.01692,8.57011-8.47138,0-16.19756-3.25496-22.00595-8.57011,4.40559-7.58363,12.603-12.67979,22.00595-12.67979s17.61133,5.09616,22.01692,12.67979Z"/>
                  <path class="cls-46" d="m294.75187,251.49172c0,7.75915-6.29053,14.04968-14.04961,14.04968-7.77005,0-14.06058-6.29053-14.06058-14.04968s6.29053-14.04941,14.06058-14.04941c7.75908,0,14.04961,6.29053,14.04961,14.04941Z"/>
                </g>
              </g>
            </g>
          </g>
        </g>
      </g>
    </g>
  </g>
</svg>