<?xml version="1.0" encoding="UTF-8"?>
<svg width="90px" height="90px" viewBox="0 0 90 90" version="1.1" xmlns="http://www.w3.org/2000/svg" xmlns:xlink="http://www.w3.org/1999/xlink">
    <title>move-deliver copy</title>
    <g id="move-deliver-copy" stroke="none" stroke-width="1" fill="none" fill-rule="evenodd">
        <path d="M7.69565217,78.6206897 C5.04968944,78.6206897 3,76.5505552 3,73.8781999 L3,53.1392168 C3,47.0793688 4.19254658,43.6542373 7.47204969,39.3634132 L10.4906832,35.4489772 C11.7950311,29.0503799 14.1428571,22.3130333 15.3354037,19.6783168 C17.2360248,15.6133255 20.9627329,13.0915254 25.7329193,12.5269433 C28.1552795,12.2258328 35.7950311,12 45,12 C54.2049689,12 61.8819876,12.188194 64.3043478,12.5269433 C69.0372671,13.166803 72.7639752,15.6133255 74.6645963,19.6783168 C75.8944099,22.3130333 78.242236,29.0503799 79.5093168,35.4489772 L82.5652174,39.3634132 C85.8447205,43.6542373 87,47.0793688 87,53.1392168 L87,73.8781999 C87,76.5505552 84.9503106,78.6206897 82.3043478,78.6206897 L78.1304348,78.6206897 C75.447205,78.6206897 73.3975155,76.5505552 73.3975155,73.8781999 L73.3975155,67.8559906 C65.5714286,68.3452951 54.1677019,68.7216832 45,68.7216832 C35.8322981,68.7216832 24.4285714,68.3452951 16.6024845,67.8559906 L16.6024845,73.8781999 C16.6024845,76.5505552 14.552795,78.6206897 11.9068323,78.6206897 L7.69565217,78.6206897 Z M17.8695652,32.4002338 C17.5714286,33.7928697 18.1304348,34.3574518 19.5465839,34.2445354 C25.2484472,33.9057861 32.1801242,33.529398 45,33.529398 C57.8198758,33.529398 64.7515528,33.9057861 70.4534161,34.2445354 C71.9068323,34.3574518 72.5031056,33.7928697 72.1677019,32.4002338 C71.2732919,28.5987142 69.7080745,23.5927528 68.552795,21.6355348 C67.5465839,19.9041496 66.5031056,19.1890123 64.4906832,18.8879018 C61.8819876,18.4362361 55.8819876,18.2856809 45,18.2856809 C34.1552795,18.2856809 28.1180124,18.5115137 25.5465839,18.8879018 C23.5341615,19.1513735 22.4534161,19.9041496 21.484472,21.6355348 C20.3664596,23.6303916 18.689441,28.5987142 17.8695652,32.4002338 Z M19.173913,59.3496201 C22.5279503,59.3496201 25.0993789,56.7525424 25.0993789,53.3650497 C25.0993789,49.977557 22.5279503,47.3804793 19.173913,47.3804793 C15.8198758,47.3804793 13.2484472,49.977557 13.2484472,53.3650497 C13.2484472,56.7525424 15.8198758,59.3496201 19.173913,59.3496201 Z M70.863354,59.3496201 C74.2173913,59.3496201 76.7515528,56.7525424 76.7515528,53.3650497 C76.7515528,49.977557 74.2173913,47.3804793 70.863354,47.3804793 C67.4720497,47.3804793 64.9378882,49.977557 64.9378882,53.3650497 C64.9378882,56.7525424 67.4720497,59.3496201 70.863354,59.3496201 Z M35.6086957,57.6935126 L54.4285714,57.6935126 C56.9254658,57.6935126 58.6770186,55.8868498 58.6770186,53.3650497 C58.6770186,50.8056108 56.9254658,49.0365868 54.4285714,49.0365868 L35.6086957,49.0365868 C33.0745342,49.0365868 31.3229814,50.8056108 31.3229814,53.3650497 C31.3229814,55.8868498 33.0745342,57.6935126 35.6086957,57.6935126 Z" id="icon-move-deliver" fill="#FFFFFF" fill-rule="nonzero"></path>
    </g>
</svg>