<?xml version="1.0" encoding="UTF-8"?>
<svg width="90px" height="90px" viewBox="0 0 90 90" version="1.1" xmlns="http://www.w3.org/2000/svg" xmlns:xlink="http://www.w3.org/1999/xlink">
    <title>recycling copy</title>
    <g id="recycling-copy" stroke="none" stroke-width="1" fill="none" fill-rule="evenodd">
        <path d="M44.9996204,3 C40.9110152,3 37.2410746,5.73560314 34.7950489,10.035 L25.4997956,26.31 L31.1577759,29.67 L40.3519938,13.5 C42.0120452,10.5821169 43.67758,9.72 44.9996204,9.72 C46.3216609,9.72 47.9871957,10.5821169 49.6472471,13.5 L59.7507833,31.245 L54.5979798,34.5 L70.7636377,44.58 L70.7636377,24.42 L65.3077282,27.78 L55.204192,10.035 C52.7581663,5.73560314 49.0882257,3 44.9996204,3 Z M25.3987602,33.135 L9.23310234,43.215 L14.1838351,46.26 L5.19168786,62.115 C2.74818077,66.4133539 2.20897619,71.1582754 4.2823696,74.82 C6.35576298,78.4817246 10.5522042,80.28 15.3962594,80.28 L35.3002257,80.28 L35.3002257,73.56 L15.3962594,73.56 C12.0475592,73.56 10.459928,72.4510354 9.83931451,71.355 C9.218701,70.2589646 9.08929588,68.3939261 10.7486328,65.475 L19.6397446,49.725 L25.3987602,53.295 L25.3987602,33.135 Z M76.9267948,48.57 L71.4708853,52.035 L79.2506081,65.475 C80.9114646,68.3956565 80.7808008,70.2586354 80.1599264,71.355 C79.539052,72.4513646 77.9516813,73.56 74.6029815,73.56 L57.9321468,73.56 L57.9321468,66.84 L41.7664889,76.92 L57.9321468,87 L57.9321468,80.28 L74.6029815,80.28 C79.447037,80.28 83.6429305,78.4822354 85.7168713,74.82 C87.790812,71.1577646 87.2527737,66.4149835 84.807553,62.115 L84.807553,62.01 L76.9267948,48.57 Z" id="icon-recycling" stroke="#FFFFFF" stroke-width="1.5" fill="#FFFFFF"></path>
    </g>
</svg>