<?xml version="1.0" encoding="UTF-8"?>
<svg xmlns="http://www.w3.org/2000/svg" width="552.55757" height="574.31341" viewBox="0 0 552.55757 574.31341">
  <defs>
    <style>
      .cls-1 {
        fill: none;
        stroke: #ffeff4;
        stroke-linecap: round;
        stroke-linejoin: round;
      }

      .cls-2, .cls-3 {
        fill: #f4b498;
      }

      .cls-4 {
        fill: #fff;
      }

      .cls-5 {
        fill: #e5e5e5;
      }

      .cls-6 {
        fill: #08d88c;
      }

      .cls-3 {
        mix-blend-mode: multiply;
        opacity: .6;
      }

      .cls-7 {
        isolation: isolate;
      }
    </style>
  </defs>
  <g class="cls-7">
    <g id="Layer_2" data-name="Layer 2">
      <g id="Create_a_delivery_ad" data-name="Create a delivery ad">
        <g id="select-helper-and-time">
          <g>
            <g>
              <rect class="cls-5" x="0" y="99.63872" width="138.46484" height="62.36888" rx="4.94002" ry="4.94002"/>
              <rect class="cls-5" x="181.53516" y="99.63872" width="138.46484" height="62.36888" rx="4.94002" ry="4.94002"/>
              <rect class="cls-5" x=".36326" y="187.08993" width="138.46484" height="62.36888" rx="4.94002" ry="4.94002"/>
              <rect class="cls-5" x="353.12735" y="187.08993" width="138.46484" height="62.36888" rx="4.94002" ry="4.94002"/>
              <g>
                <path class="cls-4" d="m43.65327,120.09605v21.45422h-2.88439v-17.87809l-4.17087,1.81997-1.0976-2.4479,6.30226-2.9482h1.8506Z"/>
                <path class="cls-4" d="m61.53136,138.79096v2.75931h-13.67404v-2.88439l5.54925-5.61562c1.86336-1.90165,3.1473-3.32853,3.85946-4.28063.70961-.9521,1.06697-1.95015,1.06697-2.9967,0-.94189-.36757-1.74595-1.0976-2.41472-.73258-.66877-1.67448-1.00315-2.82313-1.00315-.98273,0-1.83018.29354-2.54234.87808-.70961.58454-1.16907,1.2967-1.37838,2.13138l-2.63424-1.06442c.41607-1.31712,1.22267-2.43258,2.41472-3.34129,1.19204-.90871,2.59084-1.36562,4.2015-1.36562,1.94505,0,3.56592.5973,4.86262,1.78934,1.2967,1.19204,1.94505,2.65466,1.94505,4.39039,0,2.07012-1.14099,4.30871-3.42042,6.71322l-6.27163,6.30481h9.9422Z"/>
                <path class="cls-4" d="m74.7051,133.01963h-10.03664v-2.38409h10.03664v2.38409Z"/>
                <path class="cls-4" d="m84.93063,120.09605v21.45422h-2.88439v-17.87809l-4.17087,1.81997-1.0976-2.4479,6.30226-2.9482h1.8506Z"/>
                <path class="cls-4" d="m102.96443,135.46498c0,1.88123-.6994,3.45105-2.10075,4.70436-1.38093,1.25586-3.0937,1.88379-5.1434,1.88379-1.61066,0-3.06307-.48243-4.35976-1.44475-1.31712-1.00315-2.20796-2.31006-2.66742-3.92072l2.63679-1.0976c.33438,1.19204.88318,2.10841,1.6464,2.744.76321.63814,1.67703.95721,2.744.95721,1.17162,0,2.18499-.36502,3.04265-1.0976.83469-.753,1.2533-1.66171,1.2533-2.72868s-.43904-1.96547-1.31712-2.69805c-.85766-.73003-1.89144-1.0976-3.10391-1.0976h-1.8506v-2.6955h1.63108c1.14865,0,2.09054-.31907,2.82313-.95721.73003-.63814,1.0976-1.47027,1.0976-2.49385,0-.94189-.34459-1.70511-1.03634-2.28964-.68919-.58454-1.5979-.87808-2.72868-.87808-1.81997,0-3.06307.92913-3.73183,2.78994l-2.66742-1.12823c.48243-1.31712,1.28649-2.38409,2.41727-3.19835,1.12823-.81682,2.45556-1.22523,3.98199-1.22523,1.90165,0,3.5021.56667,4.7988,1.6949,1.27628,1.08739,1.91442,2.49895,1.91442,4.23469,0,2.07012-.96231,3.60676-2.88694,4.60991v.12508c1.13078.48243,2.01397,1.18183,2.6521,2.10331.63559.91892.95466,1.95526.95466,3.10391Z"/>
              </g>
              <g>
                <path class="cls-4" d="m267.2022,119.84462v21.45422h-2.88439v-17.87809l-4.17087,1.81997-1.0976-2.4479,6.30226-2.9482h1.8506Z"/>
                <path class="cls-4" d="m284.17159,136.78337v4.51547h-2.88694v-4.51547h-10.19235v-2.19775l9.9422-14.741h3.13709v14.2407h2.75931v2.69805h-2.75931Zm-9.81968-2.69805h6.93274v-10.00601h-.12508l-6.80766,10.00601Z"/>
                <path class="cls-4" d="m256.75715,132.76821h-10.03664v-2.38409h10.03664v2.38409Z"/>
                <path class="cls-4" d="m222.61979,119.84462v21.45422h-2.88439v-17.87809l-4.17087,1.81997-1.0976-2.4479,6.30226-2.9482h1.8506Z"/>
                <path class="cls-4" d="m240.65359,135.21355c0,1.88123-.6994,3.45105-2.10075,4.70436-1.38093,1.25586-3.0937,1.88379-5.1434,1.88379-1.61066,0-3.06307-.48243-4.35976-1.44475-1.31712-1.00315-2.20796-2.31006-2.66742-3.92072l2.63679-1.0976c.33438,1.19204.88318,2.10841,1.6464,2.744.76321.63814,1.67703.95721,2.744.95721,1.17162,0,2.18499-.36502,3.04265-1.0976.83469-.753,1.2533-1.66171,1.2533-2.72868s-.43904-1.96547-1.31712-2.69805c-.85766-.73003-1.89144-1.0976-3.10391-1.0976h-1.8506v-2.6955h1.63108c1.14865,0,2.09054-.31907,2.82313-.95721.73003-.63814,1.0976-1.47027,1.0976-2.49385,0-.94189-.34459-1.70511-1.03634-2.28964-.68919-.58454-1.5979-.87808-2.72868-.87808-1.81997,0-3.06307.92913-3.73183,2.78994l-2.66742-1.12823c.48243-1.31712,1.28649-2.38409,2.41727-3.19835,1.12823-.81682,2.45556-1.22523,3.98199-1.22523,1.90165,0,3.5021.56667,4.7988,1.6949,1.27628,1.08739,1.91442,2.49895,1.91442,4.23469,0,2.07012-.96231,3.60676-2.88694,4.60991v.12508c1.13078.48243,2.01397,1.18183,2.6521,2.10331.63559.91892.95466,1.95526.95466,3.10391Z"/>
              </g>
              <g>
                <path class="cls-4" d="m43.10655,207.54726v21.45422h-2.88439v-17.87809l-4.17087,1.81997-1.0976-2.4479,6.30226-2.9482h1.8506Z"/>
                <path class="cls-4" d="m61.95716,222.28826c0,2.0497-.71216,3.76502-2.13394,5.14595-1.42177,1.37838-3.17793,2.07012-5.26847,2.07012-1.67192,0-3.18814-.52327-4.54865-1.56982-1.35796-1.04399-2.25646-2.45556-2.6955-4.23469l2.57042-1.03378c.31396,1.2533.88318,2.2488,1.71021,2.97883.82448.73258,1.79189,1.0976,2.8997,1.0976,1.34009,0,2.43258-.41096,3.28003-1.23799.8449-.82703,1.26862-1.88634,1.26862-3.18304,0-1.31712-.42372-2.3943-1.26862-3.23153-.84745-.83724-1.92973-1.25586-3.24685-1.25586-1.52643,0-2.72868.61772-3.60676,1.8506l-2.91757-1.2533,1.38093-10.88409h11.25932v2.75931h-8.8446l-.78363,6.1491.12508.03063c1.06442-.85766,2.36111-1.28649,3.88754-1.28649,1.92463,0,3.56081.68153,4.90856,2.03949,1.3503,1.36051,2.02418,3.04265,2.02418,5.04895Z"/>
                <path class="cls-4" d="m75.25597,220.47084h-10.03664v-2.38409h10.03664v2.38409Z"/>
                <path class="cls-4" d="m85.48151,207.54726v21.45422h-2.88439v-17.87809l-4.17087,1.81997-1.0976-2.4479,6.30226-2.9482h1.8506Z"/>
                <path class="cls-4" d="m97.52446,215.38871c1.73574,0,3.28259.68919,4.6431,2.07012,1.37838,1.36051,2.07012,2.97883,2.07012,4.86262,0,1.92207-.73258,3.60676-2.19775,5.04895-1.48303,1.42177-3.19835,2.13394-5.1434,2.13394-2.07012,0-3.81607-.71216-5.23784-2.13394s-2.13138-3.10391-2.13138-5.04895c0-1.73574.6994-3.71141,2.10075-5.92958l6.241-9.34746,2.32027,1.60045-5.2991,7.33859.06126.06381c.64835-.43904,1.50601-.65856,2.57298-.65856Zm-5.08214,6.96337c0,1.23288.42883,2.27943,1.28649,3.13709.85766.83469,1.91442,1.2533,3.16772,1.2533,1.25586,0,2.29985-.41862,3.13709-1.2533.85766-.85766,1.28649-1.90421,1.28649-3.13709,0-1.21246-.43904-2.2488-1.31712-3.10646-.85766-.85511-1.894-1.28393-3.10646-1.28393-1.19204,0-2.23604.42883-3.13709,1.28393-.87808.85766-1.31712,1.894-1.31712,3.10646Z"/>
              </g>
              <g>
                <path class="cls-4" d="m396.68617,207.54726v21.45422h-2.88439v-17.87809l-4.17087,1.81997-1.0976-2.4479,6.30226-2.9482h1.8506Z"/>
                <path class="cls-4" d="m414.46982,210.49546l-10.41442,19.00887-2.57042-1.31712,9.9422-17.88065h-10.85091l.06126-2.75931h13.83229v2.9482Z"/>
                <path class="cls-4" d="m427.51848,220.47084h-10.03664v-2.38409h10.03664v2.38409Z"/>
                <path class="cls-4" d="m437.74401,207.54726v21.45422h-2.88439v-17.87809l-4.17087,1.81997-1.0976-2.4479,6.30226-2.9482h1.8506Z"/>
                <path class="cls-4" d="m456.18622,223.07445c0,1.84039-.6994,3.36682-2.10075,4.57928-1.42177,1.23288-3.1473,1.8506-5.17658,1.8506-2.02673,0-3.75226-.61772-5.17403-1.8506-1.40135-1.21246-2.10075-2.73889-2.10075-4.57928,0-1.13078.3012-2.15946.90871-3.09114.60496-.92913,1.47282-1.66682,2.60361-2.21051v-.12508c-.83724-.54369-1.51111-1.21246-2.02418-2.00886-.51306-.79384-.76832-1.63108-.76832-2.50916,0-1.73574.61772-3.18814,1.8506-4.35976,1.21246-1.14865,2.78228-1.72553,4.70436-1.72553,1.92463,0,3.49189.57688,4.70691,1.72553,1.23288,1.17162,1.8506,2.62403,1.8506,4.35976,0,.87808-.25781,1.71532-.77087,2.50916-.51051.7964-1.18694,1.46517-2.02162,2.00886v.12508c1.12823.54369,1.9961,1.28138,2.60361,2.21051.60496.93168.90871,1.96036.90871,3.09114Zm-11.60391-.15826c0,.56411.10976,1.07718.32928,1.53664.21952.46201.52072.86276.90871,1.20736.38544.34459.84234.61261,1.36306.8015.52327.18634,1.10015.28078,1.72553.28078.62793,0,1.20225-.09444,1.72553-.28078.52327-.18889.97763-.45691,1.36562-.8015.38544-.34459.68919-.74535.90871-1.20736.21952-.45946.32928-.97252.32928-1.53664,0-1.08739-.41862-1.98589-1.2533-2.69805-.83724-.73003-1.86336-1.0976-3.07583-1.0976s-2.24625.36757-3.10391,1.0976c-.81682.73258-1.22267,1.63108-1.22267,2.69805Zm.71982-9.84776c0,1.00315.33438,1.81231,1.00315,2.43003.67132.61772,1.53919.92658,2.60361.92658,1.06697,0,1.93484-.30886,2.60361-.92658s1.00315-1.42688,1.00315-2.43003c0-1.00571-.33438-1.79955-1.00315-2.38409s-1.53664-.87808-2.60361-.87808c-1.06442,0-1.93228.29354-2.60361.87808-.66877.58454-1.00315,1.37838-1.00315,2.38409Z"/>
              </g>
              <g>
                <g>
                  <circle class="cls-4" cx="34.35578" cy="34.32564" r="33.32542"/>
                  <path class="cls-6" d="m34.35578,2c17.82422,0,32.32544,14.50146,32.32544,32.32568s-14.50122,32.3252-32.32544,32.3252S2.03034,52.1499,2.03034,34.32568,16.53156,2,34.35578,2m0-2C15.42878,0,.03034,15.39844.03034,34.32568s15.39844,34.3252,34.32544,34.3252,34.32544-15.39844,34.32544-34.3252S53.28278,0,34.35578,0h0Z"/>
                </g>
                <g>
                  <path class="cls-6" d="m56.16793,58.15865c-5.75556,5.26681-13.41147,8.49217-21.81667,8.49217-8.39434,0-16.05024-3.22536-21.8058-8.49217,4.36552-7.51466,12.48837-12.56446,21.8058-12.56446s17.45115,5.04981,21.81667,12.56446Z"/>
                  <path class="cls-6" d="m48.28396,28.47968c0,7.68858-6.23332,13.92189-13.92183,13.92189-7.69938,0-13.9327-6.23332-13.9327-13.92189s6.23332-13.92163,13.9327-13.92163c7.68851,0,13.92183,6.23332,13.92183,13.92163Z"/>
                </g>
              </g>
              <rect class="cls-5" x="352.1561" y="99.63872" width="138.46484" height="62.36888" rx="4.94002" ry="4.94002"/>
              <g>
                <path class="cls-4" d="m394.47566,119.84462v21.45422h-2.88439v-17.87809l-4.17087,1.81997-1.0976-2.4479,6.30226-2.9482h1.8506Z"/>
                <path class="cls-4" d="m411.44504,136.78337v4.51547h-2.88694v-4.51547h-10.19235v-2.19775l9.9422-14.741h3.13709v14.2407h2.75931v2.69805h-2.75931Zm-9.81968-2.69805h6.93274v-10.00601h-.12508l-6.80766,10.00601Z"/>
                <path class="cls-4" d="m427.37809,132.76821h-10.03664v-2.38409h10.03664v2.38409Z"/>
                <path class="cls-4" d="m437.60362,119.84462v21.45422h-2.88439v-17.87809l-4.17087,1.81997-1.0976-2.4479,6.30226-2.9482h1.8506Z"/>
                <path class="cls-4" d="m456.45424,134.58563c0,2.0497-.71216,3.76502-2.13394,5.14595-1.42177,1.37838-3.17793,2.07012-5.26847,2.07012-1.67192,0-3.18814-.52327-4.54865-1.56982-1.35796-1.04399-2.25646-2.45556-2.6955-4.23469l2.57042-1.03378c.31396,1.2533.88318,2.2488,1.71021,2.97883.82448.73258,1.79189,1.0976,2.8997,1.0976,1.34009,0,2.43258-.41096,3.28003-1.23799.8449-.82703,1.26862-1.88634,1.26862-3.18304,0-1.31712-.42372-2.3943-1.26862-3.23153-.84745-.83724-1.92973-1.25586-3.24685-1.25586-1.52643,0-2.72868.61772-3.60676,1.8506l-2.91757-1.2533,1.38093-10.88409h11.25932v2.75931h-8.8446l-.78363,6.1491.12508.03063c1.06442-.85766,2.36111-1.28649,3.88754-1.28649,1.92463,0,3.56081.68153,4.90856,2.03949,1.3503,1.36051,2.02418,3.04265,2.02418,5.04895Z"/>
              </g>
              <g>
                <rect class="cls-6" x="181.53516" y="187.08993" width="138.46484" height="62.36888" rx="4.94002" ry="4.94002"/>
                <path class="cls-4" d="m224.27845,207.54726v21.45422h-2.88439v-17.87809l-4.17087,1.81997-1.0976-2.4479,6.30226-2.9482h1.8506Z"/>
                <path class="cls-4" d="m256.42787,220.47084h-10.03664v-2.38409h10.03664v2.38409Z"/>
                <path class="cls-4" d="m236.3214,215.38871c1.73574,0,3.28259.68919,4.6431,2.07012,1.37838,1.36051,2.07012,2.97883,2.07012,4.86262,0,1.92207-.73258,3.60676-2.19775,5.04895-1.48303,1.42177-3.19835,2.13394-5.1434,2.13394-2.07012,0-3.81607-.71216-5.23784-2.13394s-2.13138-3.10391-2.13138-5.04895c0-1.73574.6994-3.71141,2.10075-5.92958l6.241-9.34746,2.32027,1.60045-5.2991,7.33859.06126.06381c.64835-.43904,1.50601-.65856,2.57298-.65856Zm-5.08214,6.96337c0,1.23288.42883,2.27943,1.28649,3.13709.85766.83469,1.91442,1.2533,3.16772,1.2533,1.25586,0,2.29985-.41862,3.13709-1.2533.85766-.85766,1.28649-1.90421,1.28649-3.13709,0-1.21246-.43904-2.2488-1.31712-3.10646-.85766-.85511-1.894-1.28393-3.10646-1.28393-1.19204,0-2.23604.42883-3.13709,1.28393-.87808.85766-1.31712,1.894-1.31712,3.10646Z"/>
                <path class="cls-4" d="m267.92994,207.54726v21.45422h-2.88439v-17.87809l-4.17087,1.81997-1.0976-2.4479,6.30226-2.9482h1.8506Z"/>
                <path class="cls-4" d="m285.71359,210.24403l-10.41442,19.00887-2.57042-1.31712,9.9422-17.88065h-10.85091l.06126-2.75931h13.83229v2.9482Z"/>
              </g>
              <g>
                <rect class="cls-5" x="109.01648" y="9.81106" width="177.78835" height="4.58599" rx="2.29299" ry="2.29299"/>
                <rect class="cls-5" x="109.01648" y="32.03266" width="177.78835" height="4.58599" rx="2.29299" ry="2.29299"/>
                <rect class="cls-5" x="109.01648" y="54.25426" width="92.46973" height="4.58599" rx="2.29299" ry="2.29299"/>
              </g>
              <g>
                <g>
                  <circle class="cls-4" cx="34.35578" cy="340.81006" r="33.32544"/>
                  <path class="cls-5" d="m34.35578,308.48486c17.82422,0,32.32544,14.50098,32.32544,32.3252s-14.50122,32.32568-32.32544,32.32568-32.32544-14.50146-32.32544-32.32568,14.50122-32.3252,32.32544-32.3252m0-2C15.42878,306.48486.03034,321.8833.03034,340.81006s15.39844,34.32568,34.32544,34.32568,34.32544-15.39844,34.32544-34.32568-15.39844-34.3252-34.32544-34.3252h0Z"/>
                </g>
                <g>
                  <path class="cls-5" d="m56.16793,364.64307c-5.75556,5.26681-13.41147,8.49217-21.81667,8.49217-8.39434,0-16.05024-3.22536-21.8058-8.49217,4.36552-7.51466,12.48837-12.56446,21.8058-12.56446s17.45115,5.04981,21.81667,12.56446Z"/>
                  <path class="cls-5" d="m48.28396,334.9641c0,7.68858-6.23332,13.92189-13.92183,13.92189-7.69938,0-13.9327-6.23332-13.9327-13.92189s6.23332-13.92163,13.9327-13.92163c7.68851,0,13.92183,6.23332,13.92183,13.92163Z"/>
                </g>
              </g>
              <g>
                <rect class="cls-5" x="109.01648" y="316.29548" width="177.78835" height="4.58599" rx="2.29299" ry="2.29299"/>
                <rect class="cls-5" x="109.01648" y="338.51708" width="177.78835" height="4.58599" rx="2.29299" ry="2.29299"/>
                <rect class="cls-5" x="109.01648" y="360.73868" width="92.46973" height="4.58599" rx="2.29299" ry="2.29299"/>
              </g>
            </g>
            <g>
              <g>
                <path class="cls-2" d="m381.77931,266.74788c-1.82156-.03101-10.3981,2.53672-15.97316,10.54482-5.57506,8.00809-9.06895,37.54896-9.29684,46.89617s11.91077,25.33384,17.0524,22.18975c5.14162-3.14409,22.17751-32.48879,23.88371-39.81685s-15.6661-39.81389-15.6661-39.81389Z"/>
                <path class="cls-3" d="m381.77931,266.74788c-1.82156-.03101-10.3981,2.53672-15.97316,10.54482-5.57506,8.00809-9.06895,37.54896-9.29684,46.89617s11.91077,25.33384,17.0524,22.18975c5.14162-3.14409,22.17751-32.48879,23.88371-39.81685s-15.6661-39.81389-15.6661-39.81389Z"/>
              </g>
              <path class="cls-2" d="m432.71769,547.55598s3.00156,3.93456-13.18476-22.17684c-16.18632-26.1114-23.18827-20.88166-47.22007-45.06389-24.0318-24.18223-60.49644-87.4588-73.70813-111.09584s-19.17717-33.69133-13.61946-39.06298c5.55772-5.37165,15.08954-6.39545,25.37962,1.0509,10.29007,7.44635,22.35302,21.31738,20.52606,19.58451-1.82697-1.73287-16.9467-52.63058-22.03818-65.55782-5.09148-12.92725-25.67907-60.80307-13.82601-69.33723,15.32319-11.03264,24.04481,2.21425,29.16766,16.32811,5.12285,14.11386,44.49502,106.52458,45.9315,106.96159,1.43648.437,5.30678-14.86453,2.26077-26.77715-3.04601-11.91262-8.23159-28.3997-1.97185-38.65841,6.25974-10.25871,18.29535-7.26042,25.11229-3.87411,6.81694,3.38631,9.58172,13.64395,9.58172,13.64395,0,0-.31919-11.61387,9.90227-13.7319,10.22146-2.11803,19.76193,3.92321,21.82361,10.0434,2.06169,6.12019,6.67815,20.60886,6.67815,20.60886,0,0,9.9283-6.69597,18.96105-3.00005,13.08462,5.35383,46.26459,122.57704,47.71836,137.14411s4.25714,33.72029,11.24417,42.16845c4.80646,5.81159,13.14293,17.40689,25.0546,38.66069,16.1573,28.8292-2.7167,43.67613-24.31939,52.88205-19.63483,8.36732-69.51115,12.94561-89.45396-20.74041Z"/>
              <path class="cls-1" d="m297.30635,329.32087c2.55474,3.59213,5.11328,7.25009,6.66787,11.37481,1.55459,4.12473,2.02341,8.82954.35793,12.91075-1.66548,4.08121-5.78333,7.30264-10.1847,7.06182.11246.30256.68858.02528.52227-.25137"/>
              <path class="cls-1" d="m328.76813,371.44021c-5.84776,3.50382-10.75353,8.56359-14.07498,14.51682"/>
              <path class="cls-1" d="m330.51539,352.10309c4.32211,13.74887,5.93544,28.17485,8.65243,42.32864s6.70833,28.4271,15.08712,40.15347"/>
              <path class="cls-1" d="m443.86608,301.78532c3.31627,10.13115,8.90748,23.99513,13.30124,36.50758"/>
              <path class="cls-1" d="m405.74094,284.49159c2.83546,15.3278,7.47491,30.32108,13.792,44.57154"/>
              <path class="cls-1" d="m340.61875,291.08584c-2.94422,4.49407-7.57575,7.85363-12.76184,9.25702"/>
              <path class="cls-1" d="m324.84802,366.33933c-6.88868,1.78594-12.79355,7.0108-15.40484,13.63081"/>
              <path class="cls-1" d="m339.40115,286.20378c-7.43005,1.93623-14.42112,5.53786-20.31098,10.46373"/>
              <path class="cls-1" d="m333.44039,281.48031c-6.04116-.34624-12.18707,2.00646-16.45276,6.29823"/>
              <path class="cls-1" d="m300.15111,237.1477c.85902,1.42461,1.88798,2.80265,3.41075,3.74159,1.52279.93895,3.61638,1.38853,5.64798.84595,2.16599-.57847,3.93907-2.20056,4.88867-3.95106s1.18844-3.62378,1.24707-5.4342c.10441-3.22417-.31747-6.37586-.88094-9.48006-.2944-1.6219-.84136-3.45359-2.68159-3.94084-1.00942-.26726-2.18721-.0514-3.30472.16529-4.62809.89745-12.56981.75054-12.22626,5.77047.29372,4.29178,1.70108,8.63774,3.89903,12.28286Z"/>
            </g>
          </g>
        </g>
      </g>
    </g>
  </g>
</svg>