<?xml version="1.0" encoding="UTF-8"?>
<svg xmlns="http://www.w3.org/2000/svg" width="494.65221" height="491.71645" xmlns:xlink="http://www.w3.org/1999/xlink" viewBox="0 0 494.65221 491.71645">
  <defs>
    <style>
      .cls-1 {
        stroke: #ffeff4;
      }

      .cls-1, .cls-2 {
        fill: none;
        stroke-linecap: round;
        stroke-linejoin: round;
      }

      .cls-2 {
        stroke: #090334;
      }

      .cls-3 {
        mix-blend-mode: screen;
        opacity: .35;
      }

      .cls-3, .cls-4 {
        fill: #b5f3dd;
      }

      .cls-5 {
        clip-path: url(#clippath);
      }

      .cls-6 {
        fill: #f4b498;
      }

      .cls-7 {
        fill: #fff;
      }

      .cls-8 {
        fill: #090334;
      }

      .cls-9 {
        clip-path: url(#clippath-1);
      }

      .cls-10 {
        clip-path: url(#clippath-4);
      }

      .cls-11 {
        clip-path: url(#clippath-3);
      }

      .cls-12 {
        clip-path: url(#clippath-2);
      }

      .cls-13 {
        clip-path: url(#clippath-5);
      }

      .cls-14 {
        fill: #afadb2;
        mix-blend-mode: multiply;
        opacity: .32;
      }

      .cls-15 {
        isolation: isolate;
      }
    </style>
    <clipPath id="clippath">
      <path class="cls-4" d="m187.93271,68.12937l-1.1575-23.5013c-1.14119-23.17008-19.84846-42.00631-43.15598-43.45241C125.46533.04933,104.03596-.58005,85.25017.74604,56.19886,2.79678,33.38697,8.79561,17.4619,14.51605,2.54046,19.87599-4.25238,36.91602,2.7923,51.29307l.00002.00004c5.38126,10.98228,18.65068,15.68341,29.5586,10.47211h.00002s7.18576,20.07346,7.18576,20.07346c0,0-16.03287-1.0757-22.80544,10.92276-6.77256,11.99846,2.15657,32.972,13.45963,36.57745l11.30306,3.60545,16.73949,74.27781,75.48717,27.24241,154.51769-25.37436.01191-77.94452s18.8416-4.94597,24.69092-21.39639c3.59472-10.10968-1.87564-33.56951-23.27321-36.58739-35.85312-5.05667-101.73521-5.03253-101.73521-5.03253Z"/>
    </clipPath>
    <clipPath id="clippath-1">
      <path class="cls-4" d="m376.78395,160.75973l-.2876-10.11344c-.28355-9.97091-8.15741-18.23569-18.16428-19.06563-7.79421-.64643-17.00098-1.10848-25.08875-.70627-12.50735.62201-22.36769,2.99703-29.26492,5.31392-6.46256,2.17088-9.53503,9.43561-6.63502,15.67919v.00002c2.21525,4.76932,7.87771,6.90889,12.61354,4.76604h0s2.90975,8.6937,2.90975,8.6937c0,0-6.88285-.6057-9.90156,4.49186-3.01871,5.09757.63247,14.19378,5.45939,15.84475l4.82692,1.65097,6.5325,32.08128,32.20816,12.38593,66.6532-9.52759.70162-33.50789s8.14412-1.95788,10.80571-8.97758c1.63569-4.31398-.50636-14.44814-9.67811-15.93672-15.36791-2.49421-43.69054-3.07255-43.69054-3.07255Z"/>
    </clipPath>
    <clipPath id="clippath-2">
      <path class="cls-6" d="m421.04836,224.56624c3.52015-8.38506,16.17237-23.37895,31.57833-29.91481,26.64061-11.30208,31.97904,12.37145,25.44318,24.97633-3.94061,7.59974-20.30974,26.13415-36.41409,28.71111-14.32018,2.29147-24.0627-15.5421-20.60742-23.77263Z"/>
    </clipPath>
    <clipPath id="clippath-3">
      <path class="cls-6" d="m182.25499,449.62608c32.47765-131.82104,25.70941-104.06955,28.98993-117.69633,5.51908-22.9254,10.16375-40.65187,19.2207-71.21906,9.05695-30.5672,18.18465-36.58158,27.7369-81.37101,3.06807-14.38585,9.23384-40.75626,9.23384-40.75626,0,0,25.64956-7.22474,26.00335,35.874.23074,28.10914-4.54284,31.51784-4.24544,37.76309.60766,12.76093,1.02205,39.84416-4.25325,62.52163-1.3471,5.79091-2.54847,15.37196-2.5651,21.31747l-.17449,62.38504c-.03381,12.08666,9.75492,21.9028,21.84162,21.9028l98.78761.16324s-23.49146,18.60148-44.71868,25.39419c-21.22722,6.79271-24.90661,13.01936-31.41629,21.79328-3.5148,4.73734-4.78555,10.29311-7.21807,51.64603-1.48591,25.26039-147.03461,10.107-137.22263-29.71811Z"/>
    </clipPath>
    <clipPath id="clippath-4">
      <path class="cls-6" d="m454.73942,247.29287c.91563-.09093,11.04161-3.68054,16.01034,10.48953,4.96873,14.17007-18.81794,40.71376-35.14914,36.98941-10.05047-2.29202-16.31402-12.48693-14.01652-19.32283,3.71102-11.04161,28.97061-27.74054,33.15532-28.15612Z"/>
    </clipPath>
    <clipPath id="clippath-5">
      <path class="cls-6" d="m420.27599,315.7673c.4092-.45703,10.66945-14.54925,28.32254-20.56294,17.65309-6.01369,25.02471,10.86344,13.38531,24.44274-11.6394,13.5793-23.86077,19.01102-33.94825,13.38531-10.08748-5.62571-9.63327-15.17239-7.7596-17.26511Z"/>
    </clipPath>
  </defs>
  <g class="cls-15">
    <g id="Layer_2" data-name="Layer 2">
      <g id="Create_a_delivery_ad" data-name="Create a delivery ad">
        <g>
          <g>
            <polygon class="cls-8" points="83.66871 219.21953 69.58185 222.16359 69.58185 179.66953 83.66871 176.72547 83.66871 219.21953"/>
            <polygon class="cls-8" points="69.73681 222.16359 58.23344 217.50461 58.23344 175.01054 69.73681 179.66953 69.73681 222.16359"/>
            <polygon class="cls-8" points="288.2383 218.30303 273.74821 221.13243 273.74821 178.63837 288.2383 175.80897 288.2383 218.30303"/>
            <polygon class="cls-8" points="273.90317 221.13244 262.27488 216.24072 262.27488 173.74665 273.90317 178.63837 273.90317 221.13244"/>
            <polygon class="cls-8" points="147.92501 241.99592 133.45732 244.82533 133.45732 202.33126 147.92501 199.50186 147.92501 241.99592"/>
            <polygon class="cls-8" points="133.61226 244.82533 121.98397 239.93361 121.98397 197.43954 133.61226 202.33126 133.61226 244.82533"/>
            <g>
              <g>
                <path class="cls-4" d="m187.93271,68.12937l-1.1575-23.5013c-1.14119-23.17008-19.84846-42.00631-43.15598-43.45241C125.46533.04933,104.03596-.58005,85.25017.74604,56.19886,2.79678,33.38697,8.79561,17.4619,14.51605,2.54046,19.87599-4.25238,36.91602,2.7923,51.29307l.00002.00004c5.38126,10.98228,18.65068,15.68341,29.5586,10.47211h.00002s7.18576,20.07346,7.18576,20.07346c0,0-16.03287-1.0757-22.80544,10.92276-6.77256,11.99846,2.15657,32.972,13.45963,36.57745l11.30306,3.60545,16.73949,74.27781,75.48717,27.24241,154.51769-25.37436.01191-77.94452s18.8416-4.94597,24.69092-21.39639c3.59472-10.10968-1.87564-33.56951-23.27321-36.58739-35.85312-5.05667-101.73521-5.03253-101.73521-5.03253Z"/>
                <g class="cls-5">
                  <path class="cls-14" d="m92.49065-1.89727c21.43174-.96263,43.30824,7.87437,58.22402,23.51954,14.91578,15.64517,22.59851,37.81289,20.44748,58.99908-.74395,7.32744-2.64953,14.62325-6.51555,20.84802-3.86601,6.22477-13.35569,15.16001-20.48886,17.07742,9.92562,1.83073,19.49946-.4303,31.10545-.29405,3.18633.03742,14.20661.46788,14.47038-1.16708,1.82621-11.3198,1.34774-23.25584.71843-28.99693-2.29278-20.91677-1.95426-41.08825-6.17889-61.74328-3.79795-18.56895-9.55613-26.96302-27.83665-32.46809-18.28052-5.50507-37.80551-3.7954-56.4748-.65779,1.74163-1.05643,3.48326-2.11287,5.22489-3.1693"/>
                  <path class="cls-14" d="m336.42993,122.84928c-2.24781-19.74271-10.5925-39.1893-24.88811-53.30316-5.59184-5.52071-12.73801-10.69216-20.87653-10.7863-4.24159-.04904-13.78287,1.76934-11.19964,7.49953,1.83935,4.08032,11.33277,6.77314,14.93981,8.88396,6.59791,3.86113,12.01366,9.35163,14.08629,16.84345,3.06972,11.09768-2.15689,23.77011-12.10712,29.35404-6.06969,3.40596-13.59113,4.41089-18.67514,9.13547-7.05214,6.55331-6.87199,17.70861-5.18056,27.28372,1.69118,9.5752,4.32918,19.75716.60277,28.63726-2.59598,6.18707-8.03246,10.81544-14.06535,13.80256-6.03313,2.9871-12.69511,4.51609-19.28795,6.02089-20.56157,4.69297-41.30677,9.40898-62.48597,9.73281-5.49607.08403-11.16683-.10083-16.25236,1.87837-2.42442.94349-12.29538,1.85997-21.90213,3.1504-2.7798.3734-5.4524-1.28629-6.39713-3.93714-.00537-.01506-.01073-.03011-.0161-.04515-7.2359-20.27464-14.47156-40.54926-21.70747-60.82378-.43638-1.22259-.89159-2.47781-1.75047-3.46106-1.54675-1.77074-4.04317-2.29584-6.34541-2.73982-8.33105-1.60625-16.60811-3.51782-24.80924-5.72808-7.23429-1.94968-14.41942-4.11808-21.51568-6.54396-4.98625-1.7045-9.846-4.31082-14.9491-5.60215-10.71769-2.71239-23.43371,1.15327-28.1426,11.45771-3.27597,7.16879-2.14199,15.58281-.42999,23.36387,2.51421,11.42672,6.18698,22.73382,12.1959,32.85456,6.00894,10.1205,14.48486,19.03723,25.01987,24.35829,18.93879,9.56543,41.44584,6.47155,62.10159,11.04984,3.63427.80546,7.26816,1.85827,10.97594,1.85447,2.78223-.00291,5.66752-.71818,7.84221-2.32608,1.34408-.99377,1.22428,7.2219,2.87096,7.63885,9.60392,2.43183,22.09469-3.86947,25.19114-2.7726,4.17459,1.47878,8.48534,2.51918,12.88252,2.86495,19.40882,1.52618,38.8801,1.07947,58.28081.19577,21.06846-.95973,42.99688-2.70011,60.91016-13.44952,17.68482-10.61254,29.38855-28.93877,36.73011-48.17491,7.02856-18.41553,10.60206-38.42445,8.35399-58.16706Z"/>
                  <path class="cls-3" d="m109.33237,28.1913c-6.16585-.12381-12.43614-1.45874-18.43342-.15449-11.20562,2.43692-19.37033,13.62272-30.87382,14.0192-7.76407.26759-15.47464-4.5913-23.01381-2.84959-5.24604,1.21194-9.2265,5.40062-14.23533,7.33431-9.94951,3.84107-22.2038-2.9034-26.15692-12.90973-3.95313-10.00633-.5944-21.7484,6.52566-29.60575,7.12006-7.85735,17.42212-12.26538,27.89392-14.46162,10.47181-2.19625,21.28353-2.39193,31.98924-3.12373,18.89739-1.29177,43.27352-4.01787,58.38135,11.07044,12.10591,12.09027,5.27041,31.02931-12.07688,30.68097Z"/>
                  <path class="cls-3" d="m68.358,95.4509c2.83608,1.47505,6.09525,4.50798,4.31655,7.00313-1.3396,1.87917-4.35422,1.45241-6.68581.80806-23.9933-6.63067-47.75378-14.28648-70.44095-24.35748-6.3864-2.83497-6.31901-7.68027.82475-7.29926,8.08454.43118,16.87975,3.23625,24.65386,5.35669,16.40411,4.47432,32.31763,10.68006,47.33161,18.48885Z"/>
                  <path class="cls-3" d="m294.85079,74.23723c3.2801-.44882,6.86248-1.0293,9.15719-2.60159,2.7998-1.91836,2.52524-4.69297.39213-6.43771-2.13295-1.74462-5.68444-2.6767-9.20347-3.44366-23.86173-5.20058-56.9014-6.11741-83.94718.20924-9.33237,2.18306-17.11074,5.74845-16.90616,11.7509.35019,10.27511,25.00821,6.74535,38.03614,6.17152,20.76167-.91447,41.67527-2.80317,62.47134-5.64869Z"/>
                </g>
              </g>
              <g>
                <path class="cls-2" d="m95.82372,124.35468c-2.99169-3.08545-1.95295-8.69662,1.56618-11.02939,3.51913-2.33277,8.55951-1.61394,11.9644,1.0127,3.40489,2.62664,5.32436,6.80139,6.04054,10.99717.77924,4.56522.20563,9.47194-2.36576,13.26507-4.84313,7.14423-15.50304,8.32102-23.63266,4.94551-18.89659-7.84606-23.70335-34.19147-10.17219-48.63059,12.31238-13.13857,38.79606-3.20592,50.70266,6.18359,11.44918,9.02878,17.68233,22.97323,22.55118,36.61413,8.35876,23.41848,14.02275,47.73858,16.84433,72.32642"/>
                <path class="cls-2" d="m114.10052,153.22204c10.76728,22.1166,17.73108,45.99721,20.49233,70.2733"/>
                <path class="cls-2" d="m259.9964,115.86411c-1.54096-6.39309-1.22424-13.27365,1.44999-19.20169,2.67422-5.92804,7.80753-10.79946,14.08955-12.64556,6.28202-1.84609,13.62478-.42886,18.51545,4.0519,4.89066,4.48076,6.88913,11.99724,4.34729,17.9846-1.76236,4.15128-5.87895,7.45597-10.44634,7.34733-4.56739-.10864-8.9721-4.36041-8.39656-8.8503"/>
                <path class="cls-2" d="m189.1113,73.32949c1.45403,12.9978,2.62368,26.68018.57173,44.37721.4788-.22074,66.94963,16.25101,67.42843,16.03027"/>
                <path class="cls-2" d="m68.90612,77.63814c-6.13344-19.20332-13.18323-39.7261-29.48971-51.83094-3.62641-2.692-7.71227-4.91159-12.14001-5.70419-4.42775-.79259-9.23691-.02105-12.7019,2.73845-4.69111,3.73597-6.04729,11.01457-3.03948,16.31287s10.0276,7.99627,15.73284,6.04671"/>
                <path class="cls-2" d="m103.76795,33.10789c-.15269,1.35712-.96471,2.52677-1.75213,3.63421-2.72728,3.83566-5.45456,7.67132-8.18184,11.50698"/>
                <path class="cls-2" d="m106.52024,45.76505c-1.36913-.17868-2.56264-1.0089-3.69303-1.81344-3.91517-2.78656-7.83035-5.57312-11.74552-8.35967"/>
                <path class="cls-2" d="m139.12219,29.13746c-.15269,1.35712-.96471,2.52677-1.75213,3.63421-2.72728,3.83566-5.45456,7.67132-8.18184,11.50698"/>
                <path class="cls-2" d="m141.87448,41.79461c-1.36913-.17868-2.56264-1.0089-3.69303-1.81344-3.91517-2.78656-7.83035-5.57312-11.74552-8.35967"/>
                <path class="cls-2" d="m148.15595,69.42154c-.15269,1.35712-.96471,2.52677-1.75213,3.63421-2.72728,3.83566-5.45456,7.67132-8.18184,11.50698"/>
                <path class="cls-2" d="m150.90824,82.07869c-1.36913-.17868-2.56264-1.0089-3.69303-1.81344-3.91517-2.78656-7.83035-5.57312-11.74552-8.35967"/>
                <path class="cls-2" d="m113.78731,71.75377c-.15269,1.35712-.96471,2.52677-1.75213,3.63421-2.72728,3.83566-5.45456,7.67132-8.18184,11.50698"/>
                <path class="cls-2" d="m116.5396,84.41092c-1.36913-.17868-2.56264-1.0089-3.69303-1.81344-3.91517-2.78656-7.83035-5.57312-11.74552-8.35967"/>
                <line class="cls-2" x1="146.56299" y1="119.33965" x2="189.68303" y2="117.7067"/>
                <path class="cls-2" d="m159.23903,146.53163l100.22515-7.61567.08808.00062c.2043,17.53921,2.12103,35.09193,5.71893,52.37173"/>
                <line class="cls-2" x1="43.8596" y1="81.3292" x2="101.28636" y2="88.62196"/>
              </g>
            </g>
          </g>
          <g>
            <path class="cls-8" d="m426.06304,44.25679h-121.41703c-12.32545,0-22.31448,9.63803-22.31448,21.53038v293.19313c0,11.89239,9.98903,21.53038,22.31448,21.53038h121.41703c12.32549,0,22.31448-9.63799,22.31448-21.53038V65.78718c0-11.89235-9.98899-21.53038-22.31448-21.53038Zm16.40771,314.72351c0,8.73246-7.35719,15.83116-16.40771,15.83116h-121.41703c-9.05048,0-16.40771-7.09871-16.40771-15.83116V65.78718c0-8.73246,7.35723-15.83116,16.40771-15.83116h26.73146v.64592c0,4.19843,3.52437,7.59896,7.8757,7.59896h52.20275c4.35133,0,7.8757-3.40053,7.8757-7.59896v-.64592h26.73142c9.05052,0,16.40771,7.09871,16.40771,15.83116v293.19313Z"/>
            <path class="cls-7" d="m442.47074,65.78718v293.19313c0,8.73246-7.35719,15.83116-16.40771,15.83116h-121.41703c-9.05048,0-16.40771-7.09871-16.40771-15.83116V65.78718c0-8.73246,7.35723-15.83116,16.40771-15.83116h26.73146v.64592c0,4.19843,3.52437,7.59896,7.8757,7.59896h52.20275c4.35133,0,7.8757-3.40053,7.8757-7.59896v-.64592h26.73142c9.05052,0,16.40771,7.09871,16.40771,15.83116Z"/>
            <g>
              <circle class="cls-8" cx="365.35451" cy="345.28613" r="13.19315"/>
              <path class="cls-8" d="m365.35459,362.517c-9.5011,0-17.23091-7.72982-17.23091-17.23091s7.72982-17.23091,17.23091-17.23091,17.23069,7.72982,17.23069,17.23091-7.7296,17.23091-17.23069,17.23091Zm0-32.6444c-8.49898,0-15.41349,6.91428-15.41349,15.41349s6.91451,15.41349,15.41349,15.41349,15.41327-6.91428,15.41327-15.41349-6.91428-15.41349-15.41327-15.41349Z"/>
            </g>
            <g>
              <polygon class="cls-8" points="330.61122 224.78103 324.52904 225.92079 324.90875 207.65279 330.99094 206.51303 330.61122 224.78103"/>
              <polygon class="cls-8" points="324.59565 225.92218 319.69204 223.81651 320.07175 205.54851 324.97537 207.65417 324.59565 225.92218"/>
              <polygon class="cls-8" points="418.56295 226.21502 412.30845 227.30189 412.68817 209.03388 418.94267 207.94701 418.56295 226.21502"/>
              <polygon class="cls-8" points="412.37506 227.30327 407.41982 225.09644 407.79954 206.82843 412.75478 209.03527 412.37506 227.30327"/>
              <polygon class="cls-8" points="358.03119 235.14668 351.78631 236.23375 352.16603 217.96574 358.41091 216.87867 358.03119 235.14668"/>
              <polygon class="cls-8" points="351.85292 236.23513 346.89768 234.0283 347.2774 215.76029 352.23264 217.96713 351.85292 236.23513"/>
              <g>
                <g>
                  <path class="cls-4" d="m376.78395,160.75973l-.2876-10.11344c-.28355-9.97091-8.15741-18.23569-18.16428-19.06563-7.79421-.64643-17.00098-1.10848-25.08875-.70627-12.50735.62201-22.36769,2.99703-29.26492,5.31392-6.46256,2.17088-9.53503,9.43561-6.63502,15.67919v.00002c2.21525,4.76932,7.87771,6.90889,12.61354,4.76604h0s2.90975,8.6937,2.90975,8.6937c0,0-6.88285-.6057-9.90156,4.49186-3.01871,5.09757.63247,14.19378,5.45939,15.84475l4.82692,1.65097,6.5325,32.08128,32.20816,12.38593,66.6532-9.52759.70162-33.50789s8.14412-1.95788,10.80571-8.97758c1.63569-4.31398-.50636-14.44814-9.67811-15.93672-15.36791-2.49421-43.69054-3.07255-43.69054-3.07255Z"/>
                  <g class="cls-9">
                    <path class="cls-14" d="m336.37958,129.80275c9.22201-.22232,18.54765,3.77215,24.82008,10.63122,6.27242,6.85907,9.37711,16.45753,8.26308,25.54615-.3853,3.14339-1.26969,6.26279-2.9873,8.90425-1.7176,2.64145-5.87702,6.39788-8.96067,7.15842,4.25062.87571,8.38658-.01074,13.37472.15154,1.36945.04456,6.10318.32809,6.23118-.37242.88623-4.85001.7872-9.98554.56796-12.45923-.79875-9.01251-.47297-17.68111-2.10455-26.59837-1.46679-8.01665-3.8672-11.67667-11.67672-14.20663-7.80952-2.52995-16.2185-1.96945-24.27238-.78742.75816-.43859,1.51632-.87719,2.27448-1.31578"/>
                    <path class="cls-14" d="m440.13327,185.61051c-.78991-8.50739-4.20348-16.94195-10.22298-23.13718-2.35457-2.4233-5.38047-4.71033-8.87834-4.82353-1.823-.05898-5.941.63747-4.88169,3.12394.75427,1.77055,4.81138,3.01301,6.34317,3.95267,2.80191,1.71884,5.08105,4.12758,5.90512,7.36679,1.22049,4.79827-1.13964,10.19939-5.4671,12.51098-2.63977,1.40997-5.88218,1.77477-8.10999,3.76042-3.09024,2.75422-3.11248,7.55145-2.4709,11.68286.64147,4.13145,1.68455,8.5322.00323,12.31641-1.17129,2.63659-3.54976,4.57773-6.16997,5.80798-2.62031,1.23023-5.49793,1.82801-8.34561,2.416-8.88126,1.83375-17.84167,3.67577-26.9494,3.62573-2.36349-.01299-4.79967-.14313-7.0036.66228-1.05068.38394-5.30235.68972-9.44378,1.15863-1.19836.13568-2.33247-.60169-2.71492-1.74972-.00217-.00652-.00435-.01304-.00652-.01955-2.92951-8.78063-5.85892-17.56126-8.78844-26.34184-.17667-.52949-.36115-1.07317-.72159-1.50354-.64912-.77506-1.71762-1.0231-2.70338-1.23454-3.56713-.76497-7.10832-1.6607-10.6142-2.68417-3.09257-.9028-6.16205-1.89919-9.19102-3.00548-2.12833-.77731-4.19423-1.94118-6.37649-2.54192-4.58325-1.26182-10.08435.28639-12.20076,4.67414-1.47238,3.05256-1.06008,6.67984-.39362,10.04018.97874,4.93476,2.45661,9.82845,4.94938,14.23301,2.49278,4.40445,6.05686,8.31345,10.53827,10.69509,8.05623,4.28137,17.75955,3.15244,26.59846,5.3052,1.55516.37874,3.10794.86381,4.70194.89531,1.1961.02361,2.44286-.2581,3.39212-.9299.58669-.41521.46178,3.1156,1.16595,3.30956,4.10695,1.13125,9.53298-1.46603,10.85433-.96683,1.78142.67302,3.6253,1.15881,5.51254,1.34674,8.33013.82953,16.70473.81148,25.05291.60494,9.06581-.22432,18.50829-.77655,26.30518-5.23761,7.69746-4.40426,12.8926-12.17804,16.22059-20.38196,3.1861-7.85395,4.90113-16.42376,4.11111-24.93111Z"/>
                    <path class="cls-3" d="m343.3509,142.88818c-2.64957-.10832-5.33321-.73823-7.92306-.23113-4.83902.94749-8.44895,5.68326-13.39779,5.75091-3.34013.04566-6.61145-2.11206-9.86807-1.43067-2.26608.47413-4.01469,2.23926-6.18524,3.02578-4.31157,1.56235-9.51937-1.44657-11.12938-5.78357-1.61002-4.337-.06119-9.35485,3.0699-12.66907,3.1311-3.31422,7.59929-5.11715,12.1207-5.96773,4.52141-.85058,9.17107-.83809,13.77995-1.05703,8.13545-.38646,18.63899-1.34058,24.99896,5.28081,5.09624,5.30573,1.98846,13.38645-5.46595,13.0817Z"/>
                    <path class="cls-3" d="m325.13518,171.43664c1.20604.65946,2.58004,1.99243,1.79309,3.04919-.59268.79588-1.88484.58547-2.88142.28764-10.25536-3.06489-20.40147-6.56841-30.06459-11.10062-2.72015-1.27581-2.64788-3.35818.41978-3.13055,3.47165.25761,7.22761,1.54208,10.55072,2.52312,7.01207,2.07007,13.79777,4.88009,20.18243,8.37122Z"/>
                    <path class="cls-3" d="m422.69297,164.34087c1.41411-.16363,2.95935-.38117,3.95988-1.03659,1.22076-.79968,1.12752-1.99492.2261-2.76404-.90136-.76906-2.4198-1.20149-3.92576-1.56265-10.21158-2.44893-24.40699-3.1383-36.09038-.66018-4.03145.8551-7.40719,2.31833-7.37289,4.90059.05873,4.42035,10.69064,3.12326,16.29642,2.99299,8.93352-.2076,17.94106-.83267,26.90662-1.87012Z"/>
                  </g>
                </g>
                <g>
                  <path class="cls-8" d="m367.51062,221.81482c-.10768-.00224-.19899-.08499-.20931-.19487-.99135-10.57597-3.20688-21.0716-6.58494-31.19533-1.86289-5.58337-4.42458-11.832-9.30004-15.84381-4.58909-3.77617-15.96029-8.74742-21.45124-3.12712-2.82519,2.89189-4.01557,7.18009-3.18432,11.47088.81778,4.22105,3.38942,7.56669,7.05549,9.17904,3.1916,1.40373,7.76073,1.23505,9.94182-1.84238,1.02451-1.44566,1.41463-3.40794,1.09839-5.52538-.29533-1.97694-1.15501-3.62688-2.42071-4.64592-1.45882-1.17446-3.51305-1.39671-4.88456-.52809-.73097.46292-1.23928,1.29646-1.3599,2.22961-.1076.83252.12218,1.62343.63036,2.16986.08093.08694.07601.22297-.01094.30385-.08694.08083-.22313.076-.30385-.01104-.59559-.64033-.866-1.55804-.74199-2.51779.13677-1.0585.71855-2.00716,1.55614-2.53775,1.52228-.96402,3.78678-.7299,5.3844.55644,1.34997,1.08694,2.26497,2.83326,2.57635,4.91732.33264,2.22778-.08383,4.30091-1.17292,5.83747-2.31253,3.26338-7.11838,3.45959-10.46564,1.98742-3.79717-1.67-6.45958-5.12929-7.30457-9.49087-.85808-4.42927.37517-8.86037,3.29895-11.85316,5.68321-5.81748,17.3398-.76539,22.03192,3.09561,4.9596,4.08103,7.55252,10.39835,9.43478,16.03971,3.38833,10.15482,5.61065,20.68272,6.60521,31.2913.01109.1182-.07583.22302-.19408.23411-.00831.00082-.01661.00107-.0248.0009Z"/>
                  <path class="cls-8" d="m352.46043,227.28918c-.10789-.00224-.1992-.0851-.20941-.19509-.97277-10.48996-3.71919-20.69212-8.16275-30.32308-.04973-.10782-.00266-.23557.10516-.28531.10771-.04968.23547-.00272.2852.10515,4.46416,9.67543,7.22325,19.9248,8.20057,30.46352.01098.11825-.07603.22296-.19428.23394-.00821.00077-.0164.00102-.02448.00086Z"/>
                  <path class="cls-8" d="m407.33263,182.13964c-.09698-.00202-.18366-.07002-.20533-.16896-.64639-2.94956-.35846-5.92574.81081-8.38023,1.27204-2.67044,3.63009-4.69865,6.30779-5.42545,2.87506-.78029,6.06536-.01111,8.1283,1.95937,2.17176,2.07438,2.9102,5.44475,1.75577,8.01395-.88273,1.9649-2.83572,3.27734-4.76217,3.19188-1.09309-.04876-2.18956-.61682-2.93299-1.51952-.64952-.78872-.93383-1.71443-.80052-2.60673.01746-.11745.12707-.1978.24432-.18088.11745.01756.19844.12698.18088.24442-.11503.77025.13607,1.57636.70725,2.26984.66734.81025,1.6469,1.31991,2.6203,1.36329,1.7392.07721,3.53838-1.13038,4.35076-2.93856,1.08222-2.40852.38382-5.574-1.66058-7.52676-1.95658-1.86872-4.98624-2.59709-7.71875-1.8553-2.55828.69437-4.81331,2.63657-6.03211,5.19535-1.12843,2.36871-1.40507,5.24653-.77901,8.10327.02541.11598-.04805.23063-.16398.25605-.01698.00374-.03403.00533-.05071.00498Z"/>
                  <path class="cls-8" d="m405.95441,189.79187c-.28055-.00578-1.83328-.39537-14.49601-3.74916-6.50643-1.72327-13.87479-3.67487-14.35918-3.73938-.0457.00105-.0959-.01344-.1356-.04345-.06192-.04691-.09382-.12365-.08319-.20065,1.04277-7.60822.64568-13.57477.14962-19.03402-.01077-.11824.07635-.2228.19459-.23357.1194-.01091.2228.07645.23357.1947.49411,5.43637.89034,11.37392-.12483,18.93216.76765.15713,3.53065.87339,14.23509,3.70856,6.50654,1.72332,13.8749,3.67487,14.36263,3.74029.08457-.00192.16715.0461.20333.12897.0474.10887-.00227.23557-.11109.28303-.016.00696-.03052.01333-.06893.01253Z"/>
                  <path class="cls-8" d="m325.52544,163.99893c-.091-.00189-.17427-.0619-.20155-.15387-2.74553-9.25546-5.55409-17.33208-12.13997-22.43659-1.75836-1.36291-3.41965-2.18715-5.07857-2.51983-1.96874-.39493-3.95458-.01211-5.31225,1.02385-1.96058,1.49593-2.58576,4.50715-1.39365,6.71252,1.19352,2.20818,4.08909,3.39145,6.45499,2.63743.113-.03629.23402.02655.2701.13954.03608.11315-.02639.23407-.1396.27015-2.55277.8134-5.6768-.46166-6.96375-2.84268-1.28847-2.38367-.61063-5.63997,1.51106-7.25881,1.4763-1.12631,3.53826-1.52865,5.65768-1.10361,1.72552.34604,3.44527,1.19706,5.25747,2.60157,6.68694,5.18295,9.52163,13.3261,12.28875,22.6542.03375.11384-.0311.2335-.145.26726-.02187.00648-.04398.00932-.0657.00887Z"/>
                  <path class="cls-8" d="m336.50427,151.58736c-.04303-.00089-.08632-.01471-.12354-.04236-.09534-.07081-.11522-.20547-.04436-.3008l3.62018-4.87368c.31543-.42463.67288-.90592.74523-1.4469.01578-.1178.12503-.20073.24156-.18461.11769.01573.20039.12387.18461.24156-.08704.65119-.49688,1.203-.82624,1.64635l-3.62018,4.87373c-.0431.05806-.10998.08812-.17726.08672Z"/>
                  <path class="cls-8" d="m341.98076,150.63287c-.00934-.00019-.01867-.00097-.02809-.00237-.65408-.09928-1.21587-.51699-1.66732-.85261l-4.97479-3.69877c-.09523-.07086-.11501-.20551-.04425-.3008.07086-.09534.20536-.11517.30091-.04425l4.97468,3.69877c.4346.32314.92721.68938,1.47526.77249.11744.01782.19811.12744.18034.24483-.01642.10797-.11042.18492-.21674.18271Z"/>
                  <path class="cls-8" d="m351.73838,150.19645c-.04303-.00089-.08632-.01471-.12354-.04236-.09534-.07081-.11522-.20547-.04436-.3008l3.62018-4.87373c.31543-.42463.67288-.90592.74523-1.4469.01578-.11774.12366-.2004.24156-.18461.11769.01573.20039.12387.18461.24156-.08704.65119-.49688,1.203-.82624,1.64635l-3.62018,4.87378c-.0431.05806-.10998.08812-.17726.08672Z"/>
                  <path class="cls-8" d="m357.21487,149.2419c-.00934-.00019-.01867-.00097-.02809-.00237-.65419-.09923-1.21597-.51694-1.66743-.85261l-4.97468-3.69877c-.09523-.07086-.11501-.20551-.04425-.3008.07097-.09534.20536-.11517.30091-.04425l4.97468,3.69877c.4346.32314.9271.68938,1.47526.77249.11733.01782.19811.12744.18034.24483-.01642.10797-.11042.18492-.21674.18271Z"/>
                  <path class="cls-8" d="m355.26206,167.59511c-.04303-.00089-.08632-.01471-.12354-.04236-.09534-.07081-.11522-.20547-.04436-.30075l3.62008-4.87373c.31543-.42457.67298-.90576.74523-1.44695.01568-.11769.1245-.20038.24156-.18461.11769.01568.20039.12387.18461.24156-.08694.6514-.49688,1.20311-.82624,1.64645l-3.62007,4.87363c-.0431.05811-.10998.08817-.17726.08677Z"/>
                  <path class="cls-8" d="m360.73845,166.64061c-.00934-.00019-.01867-.00097-.02809-.00237-.65419-.09928-1.21597-.51699-1.66743-.85266l-4.97468-3.69877c-.09523-.07086-.11501-.20551-.04425-.3008.07086-.09539.20536-.11517.30091-.04425l4.97468,3.69877c.4346.32314.9271.68938,1.47526.77254.11744.01782.19811.12744.18034.24483-.01642.10797-.11042.18492-.21674.18271Z"/>
                  <path class="cls-8" d="m340.46629,168.29058c-.04303-.00089-.08632-.01471-.12354-.04236-.09534-.07081-.11522-.20547-.04436-.3008l3.62007-4.87368c.31543-.42457.67298-.90576.74523-1.4469.01567-.11759.1225-.20058.24156-.18461.11769.01568.20039.12387.18461.24156-.08693.65135-.49688,1.20306-.82624,1.6464l-3.62007,4.87368c-.0431.05806-.10998.08812-.17726.08672Z"/>
                  <path class="cls-8" d="m345.94278,167.33609c-.00934-.00019-.01867-.00097-.02809-.00237-.65419-.09928-1.21608-.51699-1.66743-.85261l-4.97479-3.69877c-.09523-.07086-.11501-.20551-.04425-.3008.07097-.09539.20525-.11517.30091-.04425l4.97468,3.69877c.4346.32309.92721.68933,1.47537.77249.11744.01782.19811.12744.18034.24483-.01642.10797-.11042.18492-.21674.18271Z"/>
                  <path class="cls-8" d="m358.53709,182.62006c-.11503-.00239-.20844-.09532-.21044-.21128-.00194-.11874.0926-.21658.21129-.21863l18.55184-.31668c.11921-.00167.21658.0926.21863.21129.00194.11874-.0926.21658-.21129.21863l-18.55184.31668c-.00273.00005-.00546.00004-.00819-.00001Z"/>
                  <path class="cls-8" d="m408.9262,214.61129c-.09971-.00207-.18768-.07367-.20667-.17555-1.37814-7.38465-2.0495-14.91196-1.99605-22.37836l-42.96363,2.36538c-.12026.00674-.2199-.08427-.22647-.20284-.00657-.11852.08427-.21996.20284-.22647l43.15447-2.37832c.00589-.00035.04965.00077.05553.00079.11711.00327.21013.09971.20906.21687-.0686,7.51339.59992,15.09156,1.98693,22.52407.02183.11674-.05516.22901-.17195.25079-.01476.00279-.02959.00395-.04407.00365Z"/>
                  <path class="cls-8" d="m339.34778,169.0101c-.00903-.00019-.01815-.0009-.02736-.0023l-24.62234-3.64826c-.11745-.0174-.19855-.12671-.1812-.24416.01756-.11745.12635-.19855.24422-.18114l24.62234,3.64826c.11745.0174.19855.12671.1812.24416-.01611.10829-.11022.18566-.21686.18344Z"/>
                </g>
              </g>
            </g>
          </g>
          <path class="cls-6" d="m448.18615,132.85206c.84909-.21227,20.29201-16.27059,37.57218-12.09952,12.31179,2.97181,14.00997,22.07631-8.94749,37.99672-11.58242,8.03212-28.62469,20.5904-28.62469,20.5904v-46.48761Z"/>
          <g>
            <path class="cls-6" d="m421.04836,224.56624c3.52015-8.38506,16.17237-23.37895,31.57833-29.91481,26.64061-11.30208,31.97904,12.37145,25.44318,24.97633-3.94061,7.59974-20.30974,26.13415-36.41409,28.71111-14.32018,2.29147-24.0627-15.5421-20.60742-23.77263Z"/>
            <g class="cls-12">
              <path class="cls-1" d="m424.01494,225.94463s4.58857,3.42925,9.2492,8.1475c4.66063,4.71826,7.45246,9.45659,7.45246,9.45659,0,0,15.51778-11.3755,16.71442-18.30498,1.61849-9.37236-6.99338-14.49923-14.83618-13.13377-7.8428,1.36546-18.5799,13.83465-18.5799,13.83465Z"/>
            </g>
          </g>
          <g>
            <path class="cls-6" d="m182.25499,449.62608c32.47765-131.82104,25.70941-104.06955,28.98993-117.69633,5.51908-22.9254,10.16375-40.65187,19.2207-71.21906,9.05695-30.5672,18.18465-36.58158,27.7369-81.37101,3.06807-14.38585,9.23384-40.75626,9.23384-40.75626,0,0,25.64956-7.22474,26.00335,35.874.23074,28.10914-4.54284,31.51784-4.24544,37.76309.60766,12.76093,1.02205,39.84416-4.25325,62.52163-1.3471,5.79091-2.54847,15.37196-2.5651,21.31747l-.17449,62.38504c-.03381,12.08666,9.75492,21.9028,21.84162,21.9028l98.78761.16324s-23.49146,18.60148-44.71868,25.39419c-21.22722,6.79271-24.90661,13.01936-31.41629,21.79328-3.5148,4.73734-4.78555,10.29311-7.21807,51.64603-1.48591,25.26039-147.03461,10.107-137.22263-29.71811Z"/>
            <g class="cls-11">
              <path class="cls-1" d="m261.91729,137.94659c.86236.19018,12.41792,2.66255,12.41792,3.42328s-3.79437,27.00585-7.58873,33.66222-14.48758,3.61346-14.48758,3.61346l9.65839-40.69895Z"/>
              <path class="cls-1" d="m240.93992,212.2205c9.47264.5363,18.88615,2.1108,28.01773,4.68622"/>
              <path class="cls-1" d="m243.72006,218.33678c6.32846,1.7167,12.46703,4.13243,18.26815,7.18914"/>
            </g>
          </g>
          <g>
            <path class="cls-6" d="m454.73942,247.29287c.91563-.09093,11.04161-3.68054,16.01034,10.48953,4.96873,14.17007-18.81794,40.71376-35.14914,36.98941-10.05047-2.29202-16.31402-12.48693-14.01652-19.32283,3.71102-11.04161,28.97061-27.74054,33.15532-28.15612Z"/>
            <g class="cls-10">
              <path class="cls-1" d="m426.16398,276.49181s3.80803,2.03824,8.0949,6.09001c4.22709,3.99527,6.71005,8.07255,6.71005,8.07255,0,0,13.51552-10.66434,14.48726-16.50276,1.28629-7.72837-5.80449-11.93149-12.50858-10.8333-6.97859,1.14315-16.78363,13.17349-16.78363,13.17349Z"/>
            </g>
          </g>
          <g>
            <path class="cls-6" d="m420.27599,315.7673c.4092-.45703,10.66945-14.54925,28.32254-20.56294,17.65309-6.01369,25.02471,10.86344,13.38531,24.44274-11.6394,13.5793-23.86077,19.01102-33.94825,13.38531-10.08748-5.62571-9.63327-15.17239-7.7596-17.26511Z"/>
            <g class="cls-13">
              <path class="cls-1" d="m422.51865,318.64585s4.99018,2.44512,8.06762,5.23034c3.07744,2.78522,4.87356,6.27852,4.87356,6.27852,0,0,12.86801-6.46272,11.59671-13.7337-1.2713-7.27098-9.00906-11.40434-24.53788,2.22484Z"/>
            </g>
          </g>
        </g>
      </g>
    </g>
  </g>
</svg>